# "Please visit http://wiktorb.eu/leggie"

name: leggie Medium 4
foundry: wiktorb
copyright: 2012-2015 Wiktor W Brodlo. Released under SIL OFL
point-size: 4
weight: medium
spacing: character-cell
x-height: 5
cap-height: 7
offset: 0 -2
encoding: unicode
default-char: u+ffff
converter: monobit v0.12
source-name: leggie.bdf
source-format: BDF v2.1
bdf.FONT: "leggie"

u+0020:
SPACE:
    ......
    ......
    ......
    ......
    ......
    ......
    ......
    ......
    ......
    ......
    ......
    ......

u+0021:
EXCLAMATION MARK:
    ......
    ......
    ......
    ...@..
    ...@..
    ...@..
    ...@..
    ...@..
    ......
    ...@..
    ......
    ......

u+0022:
QUOTATION MARK:
    ......
    ......
    ..@.@.
    ..@.@.
    ..@.@.
    ......
    ......
    ......
    ......
    ......
    ......
    ......

u+0023:
NUMBER SIGN:
    ......
    ......
    ......
    ..@.@.
    ..@.@.
    .@@@@@
    ..@.@.
    .@@@@@
    ..@.@.
    ..@.@.
    ......
    ......

u+0024:
DOLLAR SIGN:
    ......
    ......
    ....@.
    ..@@@@
    .@....
    .@....
    ..@@@.
    .....@
    .....@
    .@@@@.
    ..@...
    ......

u+0025:
PERCENT SIGN:
    ......
    ......
    ......
    ..@...
    .@.@.@
    ..@.@.
    ...@..
    ..@.@.
    .@.@.@
    ....@.
    ......
    ......

u+0026:
AMPERSAND:
    ......
    ......
    ......
    ..@@..
    .@..@.
    .@..@.
    ..@@..
    .@...@
    .@..@.
    ..@@.@
    ......
    ......

u+0027:
APOSTROPHE:
    ......
    ......
    ...@..
    ...@..
    ...@..
    ......
    ......
    ......
    ......
    ......
    ......
    ......

u+0028:
LEFT PARENTHESIS:
    ......
    ....@.
    ...@..
    ...@..
    ...@..
    ...@..
    ...@..
    ...@..
    ...@..
    ...@..
    ...@..
    ....@.

u+0029:
RIGHT PARENTHESIS:
    ......
    ..@...
    ...@..
    ...@..
    ...@..
    ...@..
    ...@..
    ...@..
    ...@..
    ...@..
    ...@..
    ..@...

u+002a:
ASTERISK:
    ......
    ......
    ......
    ......
    ..@.@.
    ...@..
    .@@@@@
    ...@..
    ..@.@.
    ......
    ......
    ......

u+002b:
PLUS SIGN:
    ......
    ......
    ......
    ......
    ...@..
    ...@..
    .@@@@@
    ...@..
    ...@..
    ......
    ......
    ......

u+002c:
COMMA:
    ......
    ......
    ......
    ......
    ......
    ......
    ......
    ......
    ......
    ...@..
    ..@...
    ......

u+002d:
HYPHEN-MINUS:
    ......
    ......
    ......
    ......
    ......
    ......
    .@@@@@
    ......
    ......
    ......
    ......
    ......

u+002e:
FULL STOP:
    ......
    ......
    ......
    ......
    ......
    ......
    ......
    ......
    ......
    ...@..
    ......
    ......

u+002f:
SOLIDUS:
    ......
    ......
    .....@
    .....@
    ....@.
    ....@.
    ...@..
    ...@..
    ..@...
    ..@...
    .@....
    .@....

u+0030:
DIGIT ZERO:
    ......
    ......
    ......
    ..@@@.
    .@...@
    .@..@@
    .@.@.@
    .@@..@
    .@...@
    ..@@@.
    ......
    ......

u+0031:
DIGIT ONE:
    ......
    ......
    ......
    ....@.
    ...@@.
    ..@.@.
    ....@.
    ....@.
    ....@.
    ....@.
    ......
    ......

u+0032:
DIGIT TWO:
    ......
    ......
    ......
    .@@@@.
    .....@
    .....@
    ....@.
    ...@..
    ..@...
    .@@@@@
    ......
    ......

u+0033:
DIGIT THREE:
    ......
    ......
    ......
    .@@@@.
    .....@
    .....@
    ...@@.
    .....@
    .....@
    .@@@@.
    ......
    ......

u+0034:
DIGIT FOUR:
    ......
    ......
    ......
    .....@
    ....@@
    ...@.@
    ..@..@
    .@@@@@
    .....@
    .....@
    ......
    ......

u+0035:
DIGIT FIVE:
    ......
    ......
    ......
    .@@@@@
    .@....
    .@@@@.
    .....@
    .....@
    .....@
    .@@@@.
    ......
    ......

u+0036:
DIGIT SIX:
    ......
    ......
    ......
    ..@@@.
    .@....
    .@@@@.
    .@...@
    .@...@
    .@...@
    ..@@@.
    ......
    ......

u+0037:
DIGIT SEVEN:
    ......
    ......
    ......
    .@@@@@
    .....@
    .....@
    ....@.
    ...@..
    ...@..
    ...@..
    ......
    ......

u+0038:
DIGIT EIGHT:
    ......
    ......
    ......
    ..@@@.
    .@...@
    .@...@
    ..@@@.
    .@...@
    .@...@
    ..@@@.
    ......
    ......

u+0039:
DIGIT NINE:
    ......
    ......
    ......
    ..@@@.
    .@...@
    .@...@
    .@...@
    ..@@@@
    .....@
    ..@@@.
    ......
    ......

u+003a:
COLON:
    ......
    ......
    ......
    ......
    ......
    ...@..
    ......
    ......
    ......
    ...@..
    ......
    ......

u+003b:
SEMICOLON:
    ......
    ......
    ......
    ......
    ......
    ...@..
    ......
    ......
    ......
    ...@..
    ..@...
    ......

u+003c:
LESS-THAN SIGN:
    ......
    ......
    .....@
    ....@.
    ...@..
    ..@...
    .@....
    ..@...
    ...@..
    ....@.
    .....@
    ......

u+003d:
EQUALS SIGN:
    ......
    ......
    ......
    ......
    ......
    .@@@@@
    ......
    .@@@@@
    ......
    ......
    ......
    ......

u+003e:
GREATER-THAN SIGN:
    ......
    ......
    .@....
    ..@...
    ...@..
    ....@.
    .....@
    ....@.
    ...@..
    ..@...
    .@....
    ......

u+003f:
QUESTION MARK:
    ......
    ......
    ......
    .@@@@.
    .....@
    .....@
    ....@.
    ...@..
    ......
    ...@..
    ......
    ......

u+0040:
COMMERCIAL AT:
    ......
    ......
    ......
    ..@@@.
    .@...@
    .@.@@@
    .@@..@
    .@@..@
    .@.@@.
    .@....
    ..@@@.
    ......

u+0041:
LATIN CAPITAL LETTER A:
    ......
    ......
    ......
    ..@@@.
    .@...@
    .@...@
    .@...@
    .@@@@@
    .@...@
    .@...@
    ......
    ......

u+0042:
LATIN CAPITAL LETTER B:
    ......
    ......
    ......
    .@@@@.
    .@...@
    .@...@
    .@@@@.
    .@...@
    .@...@
    .@@@@.
    ......
    ......

u+0043:
LATIN CAPITAL LETTER C:
    ......
    ......
    ......
    ..@@@@
    .@....
    .@....
    .@....
    .@....
    .@....
    ..@@@@
    ......
    ......

u+0044:
LATIN CAPITAL LETTER D:
    ......
    ......
    ......
    .@@@@.
    .@...@
    .@...@
    .@...@
    .@...@
    .@...@
    .@@@@.
    ......
    ......

u+0045:
LATIN CAPITAL LETTER E:
    ......
    ......
    ......
    .@@@@@
    .@....
    .@....
    .@@@..
    .@....
    .@....
    .@@@@@
    ......
    ......

u+0046:
LATIN CAPITAL LETTER F:
    ......
    ......
    ......
    .@@@@@
    .@....
    .@....
    .@@@..
    .@....
    .@....
    .@....
    ......
    ......

u+0047:
LATIN CAPITAL LETTER G:
    ......
    ......
    ......
    ..@@@@
    .@....
    .@....
    .@..@@
    .@...@
    .@...@
    ..@@@@
    ......
    ......

u+0048:
LATIN CAPITAL LETTER H:
    ......
    ......
    ......
    .@...@
    .@...@
    .@...@
    .@@@@@
    .@...@
    .@...@
    .@...@
    ......
    ......

u+0049:
LATIN CAPITAL LETTER I:
    ......
    ......
    ......
    ..@@@.
    ...@..
    ...@..
    ...@..
    ...@..
    ...@..
    ..@@@.
    ......
    ......

u+004a:
LATIN CAPITAL LETTER J:
    ......
    ......
    ......
    .....@
    .....@
    .....@
    .....@
    .....@
    .@...@
    ..@@@.
    ......
    ......

u+004b:
LATIN CAPITAL LETTER K:
    ......
    ......
    ......
    .@...@
    .@..@.
    .@.@..
    .@@...
    .@.@..
    .@..@.
    .@...@
    ......
    ......

u+004c:
LATIN CAPITAL LETTER L:
    ......
    ......
    ......
    .@....
    .@....
    .@....
    .@....
    .@....
    .@....
    .@@@@@
    ......
    ......

u+004d:
LATIN CAPITAL LETTER M:
    ......
    ......
    ......
    .@...@
    .@@.@@
    .@.@.@
    .@...@
    .@...@
    .@...@
    .@...@
    ......
    ......

u+004e:
LATIN CAPITAL LETTER N:
    ......
    ......
    ......
    .@...@
    .@...@
    .@@..@
    .@.@.@
    .@..@@
    .@...@
    .@...@
    ......
    ......

u+004f:
LATIN CAPITAL LETTER O:
    ......
    ......
    ......
    ..@@@.
    .@...@
    .@...@
    .@...@
    .@...@
    .@...@
    ..@@@.
    ......
    ......

u+0050:
LATIN CAPITAL LETTER P:
    ......
    ......
    ......
    .@@@@.
    .@...@
    .@...@
    .@...@
    .@@@@.
    .@....
    .@....
    ......
    ......

u+0051:
LATIN CAPITAL LETTER Q:
    ......
    ......
    ......
    ..@@@.
    .@...@
    .@...@
    .@...@
    .@...@
    .@..@.
    ..@@.@
    ......
    ......

u+0052:
LATIN CAPITAL LETTER R:
    ......
    ......
    ......
    .@@@@.
    .@...@
    .@...@
    .@...@
    .@@@@.
    .@..@.
    .@...@
    ......
    ......

u+0053:
LATIN CAPITAL LETTER S:
    ......
    ......
    ......
    ..@@@@
    .@....
    .@....
    ..@@@.
    .....@
    .....@
    .@@@@.
    ......
    ......

u+0054:
LATIN CAPITAL LETTER T:
    ......
    ......
    ......
    .@@@@@
    ...@..
    ...@..
    ...@..
    ...@..
    ...@..
    ...@..
    ......
    ......

u+0055:
LATIN CAPITAL LETTER U:
    ......
    ......
    ......
    .@...@
    .@...@
    .@...@
    .@...@
    .@...@
    .@...@
    ..@@@.
    ......
    ......

u+0056:
LATIN CAPITAL LETTER V:
    ......
    ......
    ......
    .@...@
    .@...@
    .@...@
    .@...@
    ..@.@.
    ..@.@.
    ...@..
    ......
    ......

u+0057:
LATIN CAPITAL LETTER W:
    ......
    ......
    ......
    .@...@
    .@...@
    .@...@
    .@...@
    .@.@.@
    .@@.@@
    .@...@
    ......
    ......

u+0058:
LATIN CAPITAL LETTER X:
    ......
    ......
    ......
    .@...@
    .@...@
    ..@.@.
    ...@..
    ..@.@.
    .@...@
    .@...@
    ......
    ......

u+0059:
LATIN CAPITAL LETTER Y:
    ......
    ......
    ......
    .@...@
    .@...@
    ..@.@.
    ...@..
    ...@..
    ...@..
    ...@..
    ......
    ......

u+005a:
LATIN CAPITAL LETTER Z:
    ......
    ......
    ......
    .@@@@@
    .....@
    ....@.
    ...@..
    ..@...
    .@....
    .@@@@@
    ......
    ......

u+005b:
LEFT SQUARE BRACKET:
    ......
    ...@@.
    ...@..
    ...@..
    ...@..
    ...@..
    ...@..
    ...@..
    ...@..
    ...@..
    ...@..
    ...@@.

u+005c:
REVERSE SOLIDUS:
    ......
    ......
    .@....
    .@....
    ..@...
    ..@...
    ...@..
    ...@..
    ....@.
    ....@.
    .....@
    .....@

u+005d:
RIGHT SQUARE BRACKET:
    ......
    ..@@..
    ...@..
    ...@..
    ...@..
    ...@..
    ...@..
    ...@..
    ...@..
    ...@..
    ...@..
    ..@@..

u+005e:
CIRCUMFLEX ACCENT:
    ......
    ......
    ...@..
    ..@.@.
    .@...@
    ......
    ......
    ......
    ......
    ......
    ......
    ......

u+005f:
LOW LINE:
    ......
    ......
    ......
    ......
    ......
    ......
    ......
    ......
    ......
    ......
    .@@@@@
    ......

u+0060:
GRAVE ACCENT:
    ......
    ......
    ..@...
    ...@..
    ....@.
    ......
    ......
    ......
    ......
    ......
    ......
    ......

u+0061:
LATIN SMALL LETTER A:
    ......
    ......
    ......
    ......
    ......
    ..@@@.
    .....@
    ..@@@@
    .@...@
    ..@@@@
    ......
    ......

u+0062:
LATIN SMALL LETTER B:
    ......
    ......
    .@....
    .@....
    .@....
    .@@@@.
    .@...@
    .@...@
    .@...@
    .@@@@.
    ......
    ......

u+0063:
LATIN SMALL LETTER C:
    ......
    ......
    ......
    ......
    ......
    ..@@@@
    .@....
    .@....
    .@....
    ..@@@@
    ......
    ......

u+0064:
LATIN SMALL LETTER D:
    ......
    ......
    .....@
    .....@
    .....@
    ..@@@@
    .@...@
    .@...@
    .@...@
    ..@@@@
    ......
    ......

u+0065:
LATIN SMALL LETTER E:
    ......
    ......
    ......
    ......
    ......
    ..@@@.
    .@...@
    .@@@@@
    .@....
    ..@@@.
    ......
    ......

u+0066:
LATIN SMALL LETTER F:
    ......
    ......
    ...@@.
    ..@...
    ..@...
    ..@@..
    ..@...
    ..@...
    ..@...
    ..@...
    ......
    ......

u+0067:
LATIN SMALL LETTER G:
    ......
    ......
    ......
    ......
    ......
    ..@@@@
    .@...@
    .@...@
    .@...@
    ..@@@@
    .....@
    ...@@.

u+0068:
LATIN SMALL LETTER H:
    ......
    ......
    .@....
    .@....
    .@....
    .@@@@.
    .@...@
    .@...@
    .@...@
    .@...@
    ......
    ......

u+0069:
LATIN SMALL LETTER I:
    ......
    ......
    ......
    ...@..
    ......
    ..@@..
    ...@..
    ...@..
    ...@..
    ...@..
    ......
    ......

u+006a:
LATIN SMALL LETTER J:
    ......
    ......
    ......
    ...@..
    ......
    ..@@..
    ...@..
    ...@..
    ...@..
    ...@..
    ...@..
    ..@...

u+006b:
LATIN SMALL LETTER K:
    ......
    ......
    ..@...
    ..@...
    ..@...
    ..@..@
    ..@.@.
    ..@@..
    ..@.@.
    ..@..@
    ......
    ......

u+006c:
LATIN SMALL LETTER L:
    ......
    ......
    ..@...
    ..@...
    ..@...
    ..@...
    ..@...
    ..@...
    ..@...
    ...@@.
    ......
    ......

u+006d:
LATIN SMALL LETTER M:
    ......
    ......
    ......
    ......
    ......
    .@@.@.
    .@.@.@
    .@.@.@
    .@.@.@
    .@...@
    ......
    ......

u+006e:
LATIN SMALL LETTER N:
    ......
    ......
    ......
    ......
    ......
    .@@@@.
    .@...@
    .@...@
    .@...@
    .@...@
    ......
    ......

u+006f:
LATIN SMALL LETTER O:
    ......
    ......
    ......
    ......
    ......
    ..@@@.
    .@...@
    .@...@
    .@...@
    ..@@@.
    ......
    ......

u+0070:
LATIN SMALL LETTER P:
    ......
    ......
    ......
    ......
    ......
    .@@@@.
    .@...@
    .@...@
    .@...@
    .@@@@.
    .@....
    .@....

u+0071:
LATIN SMALL LETTER Q:
    ......
    ......
    ......
    ......
    ......
    ..@@@@
    .@...@
    .@...@
    .@...@
    ..@@@@
    .....@
    .....@

u+0072:
LATIN SMALL LETTER R:
    ......
    ......
    ......
    ......
    ......
    .@.@@@
    .@@...
    .@....
    .@....
    .@....
    ......
    ......

u+0073:
LATIN SMALL LETTER S:
    ......
    ......
    ......
    ......
    ......
    ..@@@@
    .@....
    ..@@@.
    .....@
    .@@@@.
    ......
    ......

u+0074:
LATIN SMALL LETTER T:
    ......
    ......
    ..@...
    ..@...
    ..@...
    .@@@..
    ..@...
    ..@...
    ..@...
    ...@@.
    ......
    ......

u+0075:
LATIN SMALL LETTER U:
    ......
    ......
    ......
    ......
    ......
    .@...@
    .@...@
    .@...@
    .@...@
    ..@@@@
    ......
    ......

u+0076:
LATIN SMALL LETTER V:
    ......
    ......
    ......
    ......
    ......
    .@...@
    .@...@
    ..@.@.
    ..@.@.
    ...@..
    ......
    ......

u+0077:
LATIN SMALL LETTER W:
    ......
    ......
    ......
    ......
    ......
    .@...@
    .@...@
    .@.@.@
    .@@.@@
    .@...@
    ......
    ......

u+0078:
LATIN SMALL LETTER X:
    ......
    ......
    ......
    ......
    ......
    .@...@
    ..@.@.
    ...@..
    ..@.@.
    .@...@
    ......
    ......

u+0079:
LATIN SMALL LETTER Y:
    ......
    ......
    ......
    ......
    ......
    .@...@
    .@...@
    .@...@
    .@...@
    ..@@@@
    .....@
    ...@@.

u+007a:
LATIN SMALL LETTER Z:
    ......
    ......
    ......
    ......
    ......
    .@@@@@
    ....@.
    ...@..
    ..@...
    .@@@@@
    ......
    ......

u+007b:
LEFT CURLY BRACKET:
    ......
    ....@.
    ...@..
    ...@..
    ...@..
    ...@..
    ..@...
    ...@..
    ...@..
    ...@..
    ...@..
    ....@.

u+007c:
VERTICAL LINE:
    ...@..
    ...@..
    ...@..
    ...@..
    ...@..
    ...@..
    ...@..
    ...@..
    ...@..
    ...@..
    ...@..
    ...@..

u+007d:
RIGHT CURLY BRACKET:
    ......
    ..@...
    ...@..
    ...@..
    ...@..
    ...@..
    ....@.
    ...@..
    ...@..
    ...@..
    ...@..
    ..@...

u+007e:
TILDE:
    ......
    ......
    ......
    ......
    ......
    ......
    .@@..@
    @..@@.
    ......
    ......
    ......
    ......

u+00a0:
NO-BREAK SPACE:
    ......
    ......
    ......
    ......
    ......
    ......
    ......
    ......
    ......
    ......
    ......
    ......

u+00a1:
INVERTED EXCLAMATION MARK:
    ......
    ......
    ......
    ......
    ......
    ...@..
    ......
    ...@..
    ...@..
    ...@..
    ...@..
    ...@..

u+00a2:
CENT SIGN:
    ......
    ......
    ......
    ......
    ....@.
    ..@@@@
    .@....
    .@....
    .@....
    ..@@@@
    ...@..
    ......

u+00a3:
POUND SIGN:
    ......
    ......
    ......
    ...@@.
    ..@...
    ..@...
    .@@@..
    ..@...
    ..@...
    .@@@@@
    ......
    ......

u+00a4:
CURRENCY SIGN:
    ......
    ......
    ......
    ......
    .@...@
    ..@@@.
    ..@.@.
    ..@@@.
    .@...@
    ......
    ......
    ......

u+00a5:
YEN SIGN:
    ......
    ......
    ......
    .@...@
    .@...@
    ..@.@.
    ...@..
    ..@@@.
    ...@..
    ...@..
    ......
    ......

u+00a6:
BROKEN BAR:
    ...@..
    ...@..
    ...@..
    ...@..
    ...@..
    ......
    ......
    ...@..
    ...@..
    ...@..
    ...@..
    ...@..

u+00a7:
SECTION SIGN:
    ......
    ..@@@@
    .@....
    .@....
    ..@@@.
    .@...@
    .@...@
    .@...@
    ..@@@.
    .....@
    .....@
    .@@@@.

u+00a8:
DIAERESIS:
    ......
    ..@.@.
    ......
    ......
    ......
    ......
    ......
    ......
    ......
    ......
    ......
    ......

u+00a9:
COPYRIGHT SIGN:
    ......
    ......
    ......
    ..@@@.
    .@...@
    .@.@@@
    .@@..@
    .@@..@
    .@.@@@
    .@...@
    ..@@@.
    ......

u+00aa:
FEMININE ORDINAL INDICATOR:
    ......
    ......
    ......
    ..@@..
    ..@@@.
    .@..@.
    ..@@@.
    ......
    ......
    ......
    ......
    ......

u+00ab:
LEFT-POINTING DOUBLE ANGLE QUOTATION MARK:
    ......
    ......
    ......
    ......
    ...@.@
    ..@.@.
    .@.@..
    ..@.@.
    ...@.@
    ......
    ......
    ......

u+00ac:
NOT SIGN:
    ......
    ......
    ......
    ......
    ......
    ......
    .@@@@@
    .....@
    ......
    ......
    ......
    ......

u+00ad:
SOFT HYPHEN:
    ......
    ......
    ......
    ......
    ......
    ......
    ..@@@.
    ......
    ......
    ......
    ......
    ......

u+00ae:
REGISTERED SIGN:
    ..@@@.
    .@...@
    .@@@.@
    .@@.@@
    .@@@.@
    .@@.@@
    .@...@
    ..@@@.
    ......
    ......
    ......
    ......

u+00af:
MACRON:
    ......
    ......
    .@@@@@
    ......
    ......
    ......
    ......
    ......
    ......
    ......
    ......
    ......

u+00b0:
DEGREE SIGN:
    ......
    ......
    ......
    ...@..
    ..@.@.
    ...@..
    ......
    ......
    ......
    ......
    ......
    ......

u+00b1:
PLUS-MINUS SIGN:
    ......
    ......
    ......
    ...@..
    ...@..
    .@@@@@
    ...@..
    ...@..
    ......
    .@@@@@
    ......
    ......

u+00b2:
SUPERSCRIPT TWO:
    ......
    .@@@..
    ....@.
    ....@.
    ...@..
    ..@...
    .@@@@.
    ......
    ......
    ......
    ......
    ......

u+00b3:
SUPERSCRIPT THREE:
    ......
    .@@@..
    ....@.
    ..@@..
    ....@.
    ....@.
    .@@@..
    ......
    ......
    ......
    ......
    ......

u+00b4:
ACUTE ACCENT:
    ......
    ......
    ....@.
    ...@..
    ..@...
    ......
    ......
    ......
    ......
    ......
    ......
    ......

u+00b5:
MICRO SIGN:
    ......
    ......
    ......
    ......
    ......
    .@...@
    .@...@
    .@...@
    .@...@
    .@@@@.
    .@....
    .@....

u+00b6:
PILCROW SIGN:
    ......
    ......
    ..@@@@
    .@@@.@
    .@@@.@
    .@@@.@
    ..@@.@
    ...@.@
    ...@.@
    ...@.@
    ......
    ......

u+00b7:
MIDDLE DOT:
    ......
    ......
    ......
    ......
    ......
    ......
    ...@..
    ......
    ......
    ......
    ......
    ......

u+00b8:
CEDILLA:
    ......
    ......
    ......
    ......
    ......
    ......
    ......
    ......
    ......
    ......
    ...@..
    ..@...

u+00b9:
SUPERSCRIPT ONE:
    ......
    ...@..
    ..@@..
    ...@..
    ...@..
    ...@..
    ...@..
    ......
    ......
    ......
    ......
    ......

u+00ba:
MASCULINE ORDINAL INDICATOR:
    ......
    ......
    ......
    ..@@..
    .@..@.
    .@..@.
    ..@@..
    ......
    ......
    ......
    ......
    ......

u+00bb:
RIGHT-POINTING DOUBLE ANGLE QUOTATION MARK:
    ......
    ......
    ......
    ......
    .@.@..
    ..@.@.
    ...@.@
    ..@.@.
    .@.@..
    ......
    ......
    ......

u+00bc:
VULGAR FRACTION ONE QUARTER:
    ......
    ..@...
    .@@...
    ..@...
    ..@...
    ..@...
    ..@..@
    ....@@
    ...@.@
    ..@@@@
    .....@
    .....@

u+00bd:
VULGAR FRACTION ONE HALF:
    ......
    ..@...
    .@@...
    ..@...
    ..@...
    ..@...
    ..@@@.
    .....@
    .....@
    ....@.
    ...@..
    ..@@@@

u+00be:
VULGAR FRACTION THREE QUARTERS:
    ......
    .@@@..
    ....@.
    ..@@..
    ....@.
    ....@.
    .@@@.@
    ....@@
    ...@.@
    ..@@@@
    .....@
    .....@

u+00bf:
INVERTED QUESTION MARK:
    ......
    ......
    ......
    ......
    ......
    ...@..
    ......
    ...@..
    ..@...
    .@....
    .@....
    ..@@@@

u+00c0:
LATIN CAPITAL LETTER A WITH GRAVE:
    ..@...
    ...@..
    ......
    ..@@@.
    .@...@
    .@...@
    .@...@
    .@@@@@
    .@...@
    .@...@
    ......
    ......

u+00c1:
LATIN CAPITAL LETTER A WITH ACUTE:
    ....@.
    ...@..
    ......
    ..@@@.
    .@...@
    .@...@
    .@...@
    .@@@@@
    .@...@
    .@...@
    ......
    ......

u+00c2:
LATIN CAPITAL LETTER A WITH CIRCUMFLEX:
    ...@..
    ..@.@.
    ......
    ..@@@.
    .@...@
    .@...@
    .@...@
    .@@@@@
    .@...@
    .@...@
    ......
    ......

u+00c3:
LATIN CAPITAL LETTER A WITH TILDE:
    ...@.@
    ..@.@.
    ......
    ..@@@.
    .@...@
    .@...@
    .@...@
    .@@@@@
    .@...@
    .@...@
    ......
    ......

u+00c4:
LATIN CAPITAL LETTER A WITH DIAERESIS:
    ......
    ..@.@.
    ......
    ..@@@.
    .@...@
    .@...@
    .@...@
    .@@@@@
    .@...@
    .@...@
    ......
    ......

u+00c5:
LATIN CAPITAL LETTER A WITH RING ABOVE:
    ...@..
    ..@.@.
    ...@..
    ..@@@.
    .@...@
    .@...@
    .@...@
    .@@@@@
    .@...@
    .@...@
    ......
    ......

u+00c6:
LATIN CAPITAL LETTER AE:
    ......
    ......
    ......
    ..@@@@
    .@.@..
    .@.@..
    .@.@@.
    .@@@..
    .@.@..
    .@.@@@
    ......
    ......

u+00c7:
LATIN CAPITAL LETTER C WITH CEDILLA:
    ......
    ......
    ......
    ..@@@@
    .@....
    .@....
    .@....
    .@....
    .@....
    ..@@@@
    ....@.
    ...@@.

u+00c8:
LATIN CAPITAL LETTER E WITH GRAVE:
    ..@...
    ...@..
    ......
    .@@@@@
    .@....
    .@....
    .@@@..
    .@....
    .@....
    .@@@@@
    ......
    ......

u+00c9:
LATIN CAPITAL LETTER E WITH ACUTE:
    ....@.
    ...@..
    ......
    .@@@@@
    .@....
    .@....
    .@@@..
    .@....
    .@....
    .@@@@@
    ......
    ......

u+00ca:
LATIN CAPITAL LETTER E WITH CIRCUMFLEX:
    ...@..
    ..@.@.
    ......
    .@@@@@
    .@....
    .@....
    .@@@..
    .@....
    .@....
    .@@@@@
    ......
    ......

u+00cb:
LATIN CAPITAL LETTER E WITH DIAERESIS:
    ......
    ..@.@.
    ......
    .@@@@@
    .@....
    .@....
    .@@@..
    .@....
    .@....
    .@@@@@
    ......
    ......

u+00cc:
LATIN CAPITAL LETTER I WITH GRAVE:
    ..@...
    ...@..
    ......
    ..@@@.
    ...@..
    ...@..
    ...@..
    ...@..
    ...@..
    ..@@@.
    ......
    ......

u+00cd:
LATIN CAPITAL LETTER I WITH ACUTE:
    ....@.
    ...@..
    ......
    ..@@@.
    ...@..
    ...@..
    ...@..
    ...@..
    ...@..
    ..@@@.
    ......
    ......

u+00ce:
LATIN CAPITAL LETTER I WITH CIRCUMFLEX:
    ...@..
    ..@.@.
    ......
    ..@@@.
    ...@..
    ...@..
    ...@..
    ...@..
    ...@..
    ..@@@.
    ......
    ......

u+00cf:
LATIN CAPITAL LETTER I WITH DIAERESIS:
    ......
    ..@.@.
    ......
    ..@@@.
    ...@..
    ...@..
    ...@..
    ...@..
    ...@..
    ..@@@.
    ......
    ......

u+00d0:
LATIN CAPITAL LETTER ETH:
    ......
    ......
    ......
    .@@@@.
    .@...@
    .@...@
    @@@@.@
    .@...@
    .@...@
    .@@@@.
    ......
    ......

u+00d1:
LATIN CAPITAL LETTER N WITH TILDE:
    ...@.@
    ..@.@.
    ......
    .@...@
    .@...@
    .@@..@
    .@.@.@
    .@..@@
    .@...@
    .@...@
    ......
    ......

u+00d2:
LATIN CAPITAL LETTER O WITH GRAVE:
    ..@...
    ...@..
    ......
    ..@@@.
    .@...@
    .@...@
    .@...@
    .@...@
    .@...@
    ..@@@.
    ......
    ......

u+00d3:
LATIN CAPITAL LETTER O WITH ACUTE:
    ....@.
    ...@..
    ......
    ..@@@.
    .@...@
    .@...@
    .@...@
    .@...@
    .@...@
    ..@@@.
    ......
    ......

u+00d4:
LATIN CAPITAL LETTER O WITH CIRCUMFLEX:
    ...@..
    ..@.@.
    ......
    ..@@@.
    .@...@
    .@...@
    .@...@
    .@...@
    .@...@
    ..@@@.
    ......
    ......

u+00d5:
LATIN CAPITAL LETTER O WITH TILDE:
    ...@.@
    ..@.@.
    ......
    ..@@@.
    .@...@
    .@...@
    .@...@
    .@...@
    .@...@
    ..@@@.
    ......
    ......

u+00d6:
LATIN CAPITAL LETTER O WITH DIAERESIS:
    ......
    ..@.@.
    ......
    ..@@@.
    .@...@
    .@...@
    .@...@
    .@...@
    .@...@
    ..@@@.
    ......
    ......

u+00d7:
MULTIPLICATION SIGN:
    ......
    ......
    ......
    ......
    .@...@
    ..@.@.
    ...@..
    ..@.@.
    .@...@
    ......
    ......
    ......

u+00d8:
LATIN CAPITAL LETTER O WITH STROKE:
    ......
    ......
    ......
    ..@@@@
    .@..@@
    .@..@@
    .@.@.@
    .@@..@
    .@@..@
    .@@@@.
    ......
    ......

u+00d9:
LATIN CAPITAL LETTER U WITH GRAVE:
    ..@...
    ...@..
    ......
    .@...@
    .@...@
    .@...@
    .@...@
    .@...@
    .@...@
    ..@@@.
    ......
    ......

u+00da:
LATIN CAPITAL LETTER U WITH ACUTE:
    ....@.
    ...@..
    ......
    .@...@
    .@...@
    .@...@
    .@...@
    .@...@
    .@...@
    ..@@@.
    ......
    ......

u+00db:
LATIN CAPITAL LETTER U WITH CIRCUMFLEX:
    ...@..
    ..@.@.
    ......
    .@...@
    .@...@
    .@...@
    .@...@
    .@...@
    .@...@
    ..@@@.
    ......
    ......

u+00dc:
LATIN CAPITAL LETTER U WITH DIAERESIS:
    ......
    ..@.@.
    ......
    .@...@
    .@...@
    .@...@
    .@...@
    .@...@
    .@...@
    ..@@@.
    ......
    ......

u+00dd:
LATIN CAPITAL LETTER Y WITH ACUTE:
    ....@.
    ...@..
    ......
    .@...@
    .@...@
    ..@.@.
    ...@..
    ...@..
    ...@..
    ...@..
    ......
    ......

u+00de:
LATIN CAPITAL LETTER THORN:
    ......
    ......
    ......
    .@....
    .@@@@.
    .@...@
    .@...@
    .@...@
    .@@@@.
    .@....
    ......
    ......

u+00df:
LATIN SMALL LETTER SHARP S:
    ......
    ......
    ..@@..
    .@..@.
    .@..@.
    .@.@..
    .@..@.
    .@...@
    .@...@
    .@.@@.
    ......
    ......

u+00e0:
LATIN SMALL LETTER A WITH GRAVE:
    ......
    ......
    ..@...
    ...@..
    ......
    ..@@@.
    .....@
    ..@@@@
    .@...@
    ..@@@@
    ......
    ......

u+00e1:
LATIN SMALL LETTER A WITH ACUTE:
    ......
    ......
    ....@.
    ...@..
    ......
    ..@@@.
    .....@
    ..@@@@
    .@...@
    ..@@@@
    ......
    ......

u+00e2:
LATIN SMALL LETTER A WITH CIRCUMFLEX:
    ......
    ......
    ...@..
    ..@.@.
    ......
    ..@@@.
    .....@
    ..@@@@
    .@...@
    ..@@@@
    ......
    ......

u+00e3:
LATIN SMALL LETTER A WITH TILDE:
    ......
    ......
    ...@.@
    ..@.@.
    ......
    ..@@@.
    .....@
    ..@@@@
    .@...@
    ..@@@@
    ......
    ......

u+00e4:
LATIN SMALL LETTER A WITH DIAERESIS:
    ......
    ......
    ......
    ..@.@.
    ......
    ..@@@.
    .....@
    ..@@@@
    .@...@
    ..@@@@
    ......
    ......

u+00e5:
LATIN SMALL LETTER A WITH RING ABOVE:
    ......
    ...@..
    ..@.@.
    ...@..
    ......
    ..@@@.
    .....@
    ..@@@@
    .@...@
    ..@@@@
    ......
    ......

u+00e6:
LATIN SMALL LETTER AE:
    ......
    ......
    ......
    ......
    ......
    .@@.@.
    ...@.@
    .@@@@@
    @..@..
    .@@.@@
    ......
    ......

u+00e7:
LATIN SMALL LETTER C WITH CEDILLA:
    ......
    ......
    ......
    ......
    ......
    ..@@@@
    .@....
    .@....
    .@....
    ..@@@@
    ....@.
    ...@..

u+00e8:
LATIN SMALL LETTER E WITH GRAVE:
    ......
    ......
    ..@...
    ...@..
    ......
    ..@@@.
    .@...@
    .@@@@@
    .@....
    ..@@@.
    ......
    ......

u+00e9:
LATIN SMALL LETTER E WITH ACUTE:
    ......
    ......
    ....@.
    ...@..
    ......
    ..@@@.
    .@...@
    .@@@@@
    .@....
    ..@@@.
    ......
    ......

u+00ea:
LATIN SMALL LETTER E WITH CIRCUMFLEX:
    ......
    ......
    ...@..
    ..@.@.
    ......
    ..@@@.
    .@...@
    .@@@@@
    .@....
    ..@@@.
    ......
    ......

u+00eb:
LATIN SMALL LETTER E WITH DIAERESIS:
    ......
    ......
    ......
    ..@.@.
    ......
    ..@@@.
    .@...@
    .@@@@@
    .@....
    ..@@@.
    ......
    ......

u+00ec:
LATIN SMALL LETTER I WITH GRAVE:
    ......
    ......
    ..@...
    ...@..
    ......
    ..@@..
    ...@..
    ...@..
    ...@..
    ...@..
    ......
    ......

u+00ed:
LATIN SMALL LETTER I WITH ACUTE:
    ......
    ......
    ....@.
    ...@..
    ......
    ..@@..
    ...@..
    ...@..
    ...@..
    ...@..
    ......
    ......

u+00ee:
LATIN SMALL LETTER I WITH CIRCUMFLEX:
    ......
    ......
    ...@..
    ..@.@.
    ......
    ..@@..
    ...@..
    ...@..
    ...@..
    ...@..
    ......
    ......

u+00ef:
LATIN SMALL LETTER I WITH DIAERESIS:
    ......
    ......
    ......
    ..@.@.
    ......
    ..@@..
    ...@..
    ...@..
    ...@..
    ...@..
    ......
    ......

u+00f0:
LATIN SMALL LETTER ETH:
    ......
    ..@.@.
    ...@..
    ..@.@.
    .....@
    ..@@@@
    .@...@
    .@...@
    .@...@
    ..@@@.
    ......
    ......

u+00f1:
LATIN SMALL LETTER N WITH TILDE:
    ......
    ......
    ..@.@.
    .@.@..
    ......
    .@@@@.
    .@...@
    .@...@
    .@...@
    .@...@
    ......
    ......

u+00f2:
LATIN SMALL LETTER O WITH GRAVE:
    ......
    ......
    ..@...
    ...@..
    ......
    ..@@@.
    .@...@
    .@...@
    .@...@
    ..@@@.
    ......
    ......

u+00f3:
LATIN SMALL LETTER O WITH ACUTE:
    ......
    ......
    ....@.
    ...@..
    ......
    ..@@@.
    .@...@
    .@...@
    .@...@
    ..@@@.
    ......
    ......

u+00f4:
LATIN SMALL LETTER O WITH CIRCUMFLEX:
    ......
    ......
    ...@..
    ..@.@.
    ......
    ..@@@.
    .@...@
    .@...@
    .@...@
    ..@@@.
    ......
    ......

u+00f5:
LATIN SMALL LETTER O WITH TILDE:
    ......
    ......
    ...@.@
    ..@.@.
    ......
    ..@@@.
    .@...@
    .@...@
    .@...@
    ..@@@.
    ......
    ......

u+00f6:
LATIN SMALL LETTER O WITH DIAERESIS:
    ......
    ......
    ......
    ..@.@.
    ......
    ..@@@.
    .@...@
    .@...@
    .@...@
    ..@@@.
    ......
    ......

u+00f7:
DIVISION SIGN:
    ......
    ......
    ......
    ......
    ...@..
    ......
    .@@@@@
    ......
    ...@..
    ......
    ......
    ......

u+00f8:
LATIN SMALL LETTER O WITH STROKE:
    ......
    ......
    ......
    ......
    ......
    ..@@@@
    .@..@@
    .@.@.@
    .@@..@
    .@@@@.
    ......
    ......

u+00f9:
LATIN SMALL LETTER U WITH GRAVE:
    ......
    ......
    ..@...
    ...@..
    ......
    .@...@
    .@...@
    .@...@
    .@...@
    ..@@@@
    ......
    ......

u+00fa:
LATIN SMALL LETTER U WITH ACUTE:
    ......
    ......
    ....@.
    ...@..
    ......
    .@...@
    .@...@
    .@...@
    .@...@
    ..@@@@
    ......
    ......

u+00fb:
LATIN SMALL LETTER U WITH CIRCUMFLEX:
    ......
    ......
    ...@..
    ..@.@.
    ......
    .@...@
    .@...@
    .@...@
    .@...@
    ..@@@@
    ......
    ......

u+00fc:
LATIN SMALL LETTER U WITH DIAERESIS:
    ......
    ......
    ......
    ..@.@.
    ......
    .@...@
    .@...@
    .@...@
    .@...@
    ..@@@@
    ......
    ......

u+00fd:
LATIN SMALL LETTER Y WITH ACUTE:
    ......
    ......
    ....@.
    ...@..
    ......
    .@...@
    .@...@
    .@...@
    .@...@
    ..@@@@
    .....@
    ...@@.

u+00fe:
LATIN SMALL LETTER THORN:
    ......
    ......
    ......
    .@....
    .@....
    .@@@@.
    .@...@
    .@...@
    .@...@
    .@@@@.
    .@....
    .@....

u+00ff:
LATIN SMALL LETTER Y WITH DIAERESIS:
    ......
    ......
    ......
    ..@.@.
    ......
    .@...@
    .@...@
    .@...@
    .@...@
    ..@@@@
    .....@
    ...@@.

u+0100:
LATIN CAPITAL LETTER A WITH MACRON:
    ......
    ..@@@.
    ......
    ..@@@.
    .@...@
    .@...@
    .@...@
    .@@@@@
    .@...@
    .@...@
    ......
    ......

u+0101:
LATIN SMALL LETTER A WITH MACRON:
    ......
    ......
    ......
    ..@@@.
    ......
    ..@@@.
    .....@
    ..@@@@
    .@...@
    ..@@@@
    ......
    ......

u+0102:
LATIN CAPITAL LETTER A WITH BREVE:
    .@...@
    ..@@@.
    ......
    ..@@@.
    .@...@
    .@...@
    .@...@
    .@@@@@
    .@...@
    .@...@
    ......
    ......

u+0103:
LATIN SMALL LETTER A WITH BREVE:
    ......
    ......
    ..@..@
    ...@@.
    ......
    ..@@@.
    .....@
    ..@@@@
    .@...@
    ..@@@@
    ......
    ......

u+0104:
LATIN CAPITAL LETTER A WITH OGONEK:
    ......
    ......
    ......
    ..@@@.
    .@...@
    .@...@
    .@...@
    .@@@@@
    .@...@
    .@...@
    ....@.
    .....@

u+0105:
LATIN SMALL LETTER A WITH OGONEK:
    ......
    ......
    ......
    ......
    ......
    ..@@@.
    .....@
    ..@@@@
    .@...@
    ..@@@@
    ....@.
    .....@

u+0106:
LATIN CAPITAL LETTER C WITH ACUTE:
    ....@.
    ...@..
    ......
    ..@@@@
    .@....
    .@....
    .@....
    .@....
    .@....
    ..@@@@
    ......
    ......

u+0107:
LATIN SMALL LETTER C WITH ACUTE:
    ......
    ......
    ....@.
    ...@..
    ......
    ..@@@@
    .@....
    .@....
    .@....
    ..@@@@
    ......
    ......

u+0108:
LATIN CAPITAL LETTER C WITH CIRCUMFLEX:
    ...@..
    ..@.@.
    ......
    ..@@@@
    .@....
    .@....
    .@....
    .@....
    .@....
    ..@@@@
    ......
    ......

u+0109:
LATIN SMALL LETTER C WITH CIRCUMFLEX:
    ......
    ......
    ...@..
    ..@.@.
    ......
    ..@@@@
    .@....
    .@....
    .@....
    ..@@@@
    ......
    ......

u+010a:
LATIN CAPITAL LETTER C WITH DOT ABOVE:
    ......
    ...@..
    ......
    ..@@@@
    .@....
    .@....
    .@....
    .@....
    .@....
    ..@@@@
    ......
    ......

u+010b:
LATIN SMALL LETTER C WITH DOT ABOVE:
    ......
    ......
    ......
    ...@..
    ......
    ..@@@@
    .@....
    .@....
    .@....
    ..@@@@
    ......
    ......

u+010c:
LATIN CAPITAL LETTER C WITH CARON:
    ..@.@.
    ...@..
    ......
    ..@@@@
    .@....
    .@....
    .@....
    .@....
    .@....
    ..@@@@
    ......
    ......

u+010d:
LATIN SMALL LETTER C WITH CARON:
    ......
    ......
    ..@.@.
    ...@..
    ......
    ..@@@@
    .@....
    .@....
    .@....
    ..@@@@
    ......
    ......

u+010e:
LATIN CAPITAL LETTER D WITH CARON:
    ..@.@.
    ...@..
    ......
    .@@@@.
    .@...@
    .@...@
    .@...@
    .@...@
    .@...@
    .@@@@.
    ......
    ......

u+010f:
LATIN SMALL LETTER D WITH CARON:
    .....@
    ....@.
    ......
    .....@
    .....@
    ..@@@@
    .@...@
    .@...@
    .@...@
    ..@@@@
    ......
    ......

u+0110:
LATIN CAPITAL LETTER D WITH STROKE:
    ......
    ......
    ......
    .@@@@.
    .@...@
    .@...@
    @@@@.@
    .@...@
    .@...@
    .@@@@.
    ......
    ......

u+0111:
LATIN SMALL LETTER D WITH STROKE:
    ......
    ......
    .....@
    ...@@@
    .....@
    ..@@@@
    .@...@
    .@...@
    .@...@
    ..@@@@
    ......
    ......

u+0112:
LATIN CAPITAL LETTER E WITH MACRON:
    ......
    ..@@@.
    ......
    .@@@@@
    .@....
    .@....
    .@@@..
    .@....
    .@....
    .@@@@@
    ......
    ......

u+0113:
LATIN SMALL LETTER E WITH MACRON:
    ......
    ......
    ......
    ..@@@.
    ......
    ..@@@.
    .@...@
    .@@@@@
    .@....
    ..@@@.
    ......
    ......

u+0114:
LATIN CAPITAL LETTER E WITH BREVE:
    .@...@
    ..@@@.
    ......
    .@@@@@
    .@....
    .@....
    .@@@..
    .@....
    .@....
    .@@@@@
    ......
    ......

u+0115:
LATIN SMALL LETTER E WITH BREVE:
    ......
    ......
    .@...@
    ..@@@.
    ......
    ..@@@.
    .@...@
    .@@@@@
    .@....
    ..@@@.
    ......
    ......

u+0116:
LATIN CAPITAL LETTER E WITH DOT ABOVE:
    ......
    ...@..
    ......
    .@@@@@
    .@....
    .@....
    .@@@..
    .@....
    .@....
    .@@@@@
    ......
    ......

u+0117:
LATIN SMALL LETTER E WITH DOT ABOVE:
    ......
    ......
    ......
    ...@..
    ......
    ..@@@.
    .@...@
    .@@@@@
    .@....
    ..@@@.
    ......
    ......

u+0118:
LATIN CAPITAL LETTER E WITH OGONEK:
    ......
    ......
    ......
    .@@@@@
    .@....
    .@....
    .@@@..
    .@....
    .@....
    .@@@@@
    ....@.
    .....@

u+0119:
LATIN SMALL LETTER E WITH OGONEK:
    ......
    ......
    ......
    ......
    ......
    ..@@@.
    .@...@
    .@@@@@
    .@....
    ..@@@.
    ....@.
    .....@

u+011a:
LATIN CAPITAL LETTER E WITH CARON:
    ..@.@.
    ...@..
    ......
    .@@@@@
    .@....
    .@....
    .@@@..
    .@....
    .@....
    .@@@@@
    ......
    ......

u+011b:
LATIN SMALL LETTER E WITH CARON:
    ......
    ......
    ..@.@.
    ...@..
    ......
    ..@@@.
    .@...@
    .@@@@@
    .@....
    ..@@@.
    ......
    ......

u+011c:
LATIN CAPITAL LETTER G WITH CIRCUMFLEX:
    ...@..
    ..@.@.
    ......
    ..@@@@
    .@....
    .@....
    .@..@@
    .@...@
    .@...@
    ..@@@@
    ......
    ......

u+011d:
LATIN SMALL LETTER G WITH CIRCUMFLEX:
    ......
    ......
    ...@..
    ..@.@.
    ......
    ..@@@@
    .@...@
    .@...@
    .@...@
    ..@@@@
    .....@
    ...@@.

u+011e:
LATIN CAPITAL LETTER G WITH BREVE:
    ..@..@
    ...@@.
    ......
    ..@@@@
    .@....
    .@....
    .@..@@
    .@...@
    .@...@
    ..@@@@
    ......
    ......

u+011f:
LATIN SMALL LETTER G WITH BREVE:
    ......
    ......
    ..@..@
    ...@@.
    ......
    ..@@@@
    .@...@
    .@...@
    .@...@
    ..@@@@
    .....@
    ...@@.

u+0120:
LATIN CAPITAL LETTER G WITH DOT ABOVE:
    ......
    ...@..
    ......
    ..@@@@
    .@....
    .@....
    .@..@@
    .@...@
    .@...@
    ..@@@@
    ......
    ......

u+0121:
LATIN SMALL LETTER G WITH DOT ABOVE:
    ......
    ......
    ......
    ...@..
    ......
    ..@@@@
    .@...@
    .@...@
    .@...@
    ..@@@@
    .....@
    ...@@.

u+0122:
LATIN CAPITAL LETTER G WITH CEDILLA:
    ......
    ......
    ......
    ..@@@@
    .@....
    .@....
    .@..@@
    .@...@
    .@...@
    ..@@@@
    ....@.
    ...@..

u+0123:
LATIN SMALL LETTER G WITH CEDILLA:
    ......
    ......
    ....@.
    ...@..
    ......
    ..@@@@
    .@...@
    .@...@
    .@...@
    ..@@@@
    .....@
    ...@@.

u+0124:
LATIN CAPITAL LETTER H WITH CIRCUMFLEX:
    ...@..
    ..@.@.
    ......
    .@...@
    .@...@
    .@...@
    .@@@@@
    .@...@
    .@...@
    .@...@
    ......
    ......

u+0125:
LATIN SMALL LETTER H WITH CIRCUMFLEX:
    ...@..
    ..@.@.
    .@....
    .@....
    .@....
    .@@@@.
    .@...@
    .@...@
    .@...@
    .@...@
    ......
    ......

u+0126:
LATIN CAPITAL LETTER H WITH STROKE:
    ......
    ......
    ......
    .@...@
    .@@@@@
    .@...@
    .@@@@@
    .@...@
    .@...@
    .@...@
    ......
    ......

u+0127:
LATIN SMALL LETTER H WITH STROKE:
    ......
    ......
    .@....
    .@@@..
    .@....
    .@@@@.
    .@...@
    .@...@
    .@...@
    .@...@
    ......
    ......

u+0128:
LATIN CAPITAL LETTER I WITH TILDE:
    ...@.@
    ..@.@.
    ......
    ..@@@.
    ...@..
    ...@..
    ...@..
    ...@..
    ...@..
    ..@@@.
    ......
    ......

u+0129:
LATIN SMALL LETTER I WITH TILDE:
    ......
    ......
    ..@.@.
    .@.@..
    ......
    ..@@..
    ...@..
    ...@..
    ...@..
    ...@..
    ......
    ......

u+012a:
LATIN CAPITAL LETTER I WITH MACRON:
    ......
    ..@@@.
    ......
    ..@@@.
    ...@..
    ...@..
    ...@..
    ...@..
    ...@..
    ..@@@.
    ......
    ......

u+012b:
LATIN SMALL LETTER I WITH MACRON:
    ......
    ......
    ......
    ..@@..
    ......
    ..@@..
    ...@..
    ...@..
    ...@..
    ...@..
    ......
    ......

u+012c:
LATIN CAPITAL LETTER I WITH BREVE:
    .@...@
    ..@@@.
    ......
    ..@@@.
    ...@..
    ...@..
    ...@..
    ...@..
    ...@..
    ..@@@.
    ......
    ......

u+012d:
LATIN SMALL LETTER I WITH BREVE:
    ......
    ......
    .@..@.
    ..@@..
    ......
    ..@@..
    ...@..
    ...@..
    ...@..
    ...@..
    ......
    ......

u+012e:
LATIN CAPITAL LETTER I WITH OGONEK:
    ......
    ......
    ......
    ..@@@.
    ...@..
    ...@..
    ...@..
    ...@..
    ...@..
    ..@@@.
    ...@..
    ....@.

u+012f:
LATIN SMALL LETTER I WITH OGONEK:
    ......
    ......
    ......
    ...@..
    ......
    ..@@..
    ...@..
    ...@..
    ...@..
    ...@..
    ...@..
    ....@.

u+0130:
LATIN CAPITAL LETTER I WITH DOT ABOVE:
    ......
    ...@..
    ......
    ..@@@.
    ...@..
    ...@..
    ...@..
    ...@..
    ...@..
    ..@@@.
    ......
    ......

u+0131:
LATIN SMALL LETTER DOTLESS I:
    ......
    ......
    ......
    ......
    ......
    ..@@..
    ...@..
    ...@..
    ...@..
    ...@..
    ......
    ......

u+0132:
LATIN CAPITAL LIGATURE IJ:
    ......
    ......
    ......
    .@@@.@
    ..@..@
    ..@..@
    ..@..@
    ..@..@
    ..@..@
    .@@@@.
    ......
    ......

u+0133:
LATIN SMALL LIGATURE IJ:
    ......
    ......
    ......
    ..@..@
    ......
    .@@.@@
    ..@..@
    ..@..@
    ..@..@
    ..@..@
    .....@
    ....@.

u+0134:
LATIN CAPITAL LETTER J WITH CIRCUMFLEX:
    ....@.
    ...@.@
    ......
    .....@
    .....@
    .....@
    .....@
    .....@
    .@...@
    ..@@@.
    ......
    ......

u+0135:
LATIN SMALL LETTER J WITH CIRCUMFLEX:
    ......
    ......
    ...@..
    ..@.@.
    ......
    ..@@..
    ...@..
    ...@..
    ...@..
    ...@..
    ...@..
    ..@...

u+0136:
LATIN CAPITAL LETTER K WITH CEDILLA:
    ......
    ......
    ......
    .@...@
    .@..@.
    .@.@..
    .@@...
    .@.@..
    .@..@.
    .@...@
    ...@..
    ..@...

u+0137:
LATIN SMALL LETTER K WITH CEDILLA:
    ......
    ......
    ..@...
    ..@...
    ..@...
    ..@..@
    ..@.@.
    ..@@..
    ..@.@.
    ..@..@
    ....@.
    ...@..

u+0138:
LATIN SMALL LETTER KRA:
    ......
    ......
    ......
    ......
    ......
    ..@..@
    ..@.@.
    ..@@..
    ..@.@.
    ..@..@
    ......
    ......

u+0139:
LATIN CAPITAL LETTER L WITH ACUTE:
    ..@...
    .@....
    ......
    .@....
    .@....
    .@....
    .@....
    .@....
    .@....
    .@@@@@
    ......
    ......

u+013a:
LATIN SMALL LETTER L WITH ACUTE:
    ...@..
    ..@...
    ......
    ..@...
    ..@...
    ..@...
    ..@...
    ..@...
    ..@...
    ...@@.
    ......
    ......

u+013b:
LATIN CAPITAL LETTER L WITH CEDILLA:
    ......
    ......
    ......
    .@....
    .@....
    .@....
    .@....
    .@....
    .@....
    .@@@@@
    ...@..
    ..@...

u+013c:
LATIN SMALL LETTER L WITH CEDILLA:
    ......
    ......
    ..@...
    ..@...
    ..@...
    ..@...
    ..@...
    ..@...
    ..@...
    ...@@.
    ...@..
    ..@...

u+013d:
LATIN CAPITAL LETTER L WITH CARON:
    ......
    ......
    ......
    .@..@.
    .@.@..
    .@....
    .@....
    .@....
    .@....
    .@@@@@
    ......
    ......

u+013e:
LATIN SMALL LETTER L WITH CARON:
    ......
    ......
    ..@..@
    ..@.@.
    ..@...
    ..@...
    ..@...
    ..@...
    ..@...
    ...@@.
    ......
    ......

u+013f:
LATIN CAPITAL LETTER L WITH MIDDLE DOT:
    ......
    ......
    ......
    .@....
    .@....
    .@..@.
    .@....
    .@....
    .@....
    .@@@@@
    ......
    ......

u+0140:
LATIN SMALL LETTER L WITH MIDDLE DOT:
    ......
    ......
    ..@...
    ..@...
    ..@.@.
    ..@...
    ..@...
    ..@...
    ..@...
    ...@@.
    ......
    ......

u+0141:
LATIN CAPITAL LETTER L WITH STROKE:
    ......
    ......
    ......
    .@....
    .@.@..
    .@@...
    .@....
    @@....
    .@....
    .@@@@@
    ......
    ......

u+0142:
LATIN SMALL LETTER L WITH STROKE:
    ......
    ......
    ..@...
    ..@...
    ..@...
    ..@@..
    .@@...
    ..@...
    ..@...
    ...@@.
    ......
    ......

u+0143:
LATIN CAPITAL LETTER N WITH ACUTE:
    ....@.
    ...@..
    ......
    .@...@
    .@...@
    .@@..@
    .@.@.@
    .@..@@
    .@...@
    .@...@
    ......
    ......

u+0144:
LATIN SMALL LETTER N WITH ACUTE:
    ......
    ......
    ....@.
    ...@..
    ......
    .@@@@.
    .@...@
    .@...@
    .@...@
    .@...@
    ......
    ......

u+0145:
LATIN CAPITAL LETTER N WITH CEDILLA:
    ......
    ......
    ......
    .@...@
    .@...@
    .@@..@
    .@.@.@
    .@..@@
    .@...@
    .@...@
    ...@..
    ..@...

u+0146:
LATIN SMALL LETTER N WITH CEDILLA:
    ......
    ......
    ......
    ......
    ......
    .@@@@.
    .@...@
    .@...@
    .@...@
    .@...@
    ...@..
    ..@...

u+0147:
LATIN CAPITAL LETTER N WITH CARON:
    ..@.@.
    ...@..
    ......
    .@...@
    .@...@
    .@@..@
    .@.@.@
    .@..@@
    .@...@
    .@...@
    ......
    ......

u+0148:
LATIN SMALL LETTER N WITH CARON:
    ......
    ......
    ..@.@.
    ...@..
    ......
    .@@@@.
    .@...@
    .@...@
    .@...@
    .@...@
    ......
    ......

u+0149:
LATIN SMALL LETTER N PRECEDED BY APOSTROPHE:
    ......
    ......
    ......
    .@....
    @.....
    .@@@@.
    .@...@
    .@...@
    .@...@
    .@...@
    ......
    ......

u+014a:
LATIN CAPITAL LETTER ENG:
    ......
    ......
    ......
    .@...@
    .@...@
    .@@..@
    .@.@.@
    .@..@@
    .@...@
    .@...@
    .....@
    ....@.

u+014b:
LATIN SMALL LETTER ENG:
    ......
    ......
    ......
    ......
    ......
    .@@@@.
    .@...@
    .@...@
    .@...@
    .@...@
    .....@
    ....@.

u+014c:
LATIN CAPITAL LETTER O WITH MACRON:
    ......
    ..@@@.
    ......
    ..@@@.
    .@...@
    .@...@
    .@...@
    .@...@
    .@...@
    ..@@@.
    ......
    ......

u+014d:
LATIN SMALL LETTER O WITH MACRON:
    ......
    ......
    ......
    ..@@@.
    ......
    ..@@@.
    .@...@
    .@...@
    .@...@
    ..@@@.
    ......
    ......

u+014e:
LATIN CAPITAL LETTER O WITH BREVE:
    .@...@
    ..@@@.
    ......
    ..@@@.
    .@...@
    .@...@
    .@...@
    .@...@
    .@...@
    ..@@@.
    ......
    ......

u+014f:
LATIN SMALL LETTER O WITH BREVE:
    ......
    ......
    .@...@
    ..@@@.
    ......
    ..@@@.
    .@...@
    .@...@
    .@...@
    ..@@@.
    ......
    ......

u+0150:
LATIN CAPITAL LETTER O WITH DOUBLE ACUTE:
    ..@..@
    .@..@.
    ......
    ..@@@.
    .@...@
    .@...@
    .@...@
    .@...@
    .@...@
    ..@@@.
    ......
    ......

u+0151:
LATIN SMALL LETTER O WITH DOUBLE ACUTE:
    ......
    ......
    ..@..@
    .@..@.
    ......
    ..@@@.
    .@...@
    .@...@
    .@...@
    ..@@@.
    ......
    ......

u+0152:
LATIN CAPITAL LIGATURE OE:
    ......
    ......
    ......
    ..@@@@
    .@.@..
    .@.@..
    .@.@@.
    .@.@..
    .@.@..
    ..@@@@
    ......
    ......

u+0153:
LATIN SMALL LIGATURE OE:
    ......
    ......
    ......
    ......
    ......
    ..@.@.
    .@.@.@
    .@.@@@
    .@.@..
    ..@.@.
    ......
    ......

u+0154:
LATIN CAPITAL LETTER R WITH ACUTE:
    ....@.
    ...@..
    ......
    .@@@@.
    .@...@
    .@...@
    .@...@
    .@@@@.
    .@..@.
    .@...@
    ......
    ......

u+0155:
LATIN SMALL LETTER R WITH ACUTE:
    ......
    ......
    ....@.
    ...@..
    ......
    .@.@@@
    .@@...
    .@....
    .@....
    .@....
    ......
    ......

u+0156:
LATIN CAPITAL LETTER R WITH CEDILLA:
    ......
    ......
    ......
    .@@@@.
    .@...@
    .@...@
    .@...@
    .@@@@.
    .@..@.
    .@...@
    ...@..
    ..@...

u+0157:
LATIN SMALL LETTER R WITH CEDILLA:
    ......
    ......
    ......
    ......
    ......
    .@.@@@
    .@@...
    .@....
    .@....
    .@....
    ..@...
    .@....

u+0158:
LATIN CAPITAL LETTER R WITH CARON:
    ..@.@.
    ...@..
    ......
    .@@@@.
    .@...@
    .@...@
    .@...@
    .@@@@.
    .@..@.
    .@...@
    ......
    ......

u+0159:
LATIN SMALL LETTER R WITH CARON:
    ......
    ......
    ..@.@.
    ...@..
    ......
    .@.@@@
    .@@...
    .@....
    .@....
    .@....
    ......
    ......

u+015a:
LATIN CAPITAL LETTER S WITH ACUTE:
    ....@.
    ...@..
    ......
    ..@@@@
    .@....
    .@....
    ..@@@.
    .....@
    .....@
    .@@@@.
    ......
    ......

u+015b:
LATIN SMALL LETTER S WITH ACUTE:
    ......
    ......
    ....@.
    ...@..
    ......
    ..@@@@
    .@....
    ..@@@.
    .....@
    .@@@@.
    ......
    ......

u+015c:
LATIN CAPITAL LETTER S WITH CIRCUMFLEX:
    ...@..
    ..@.@.
    ......
    ..@@@@
    .@....
    .@....
    ..@@@.
    .....@
    .....@
    .@@@@.
    ......
    ......

u+015d:
LATIN SMALL LETTER S WITH CIRCUMFLEX:
    ......
    ......
    ...@..
    ..@.@.
    ......
    ..@@@@
    .@....
    ..@@@.
    .....@
    .@@@@.
    ......
    ......

u+015e:
LATIN CAPITAL LETTER S WITH CEDILLA:
    ......
    ......
    ......
    ..@@@@
    .@....
    .@....
    ..@@@.
    .....@
    .....@
    .@@@@.
    ...@..
    ..@...

u+015f:
LATIN SMALL LETTER S WITH CEDILLA:
    ......
    ......
    ......
    ......
    ......
    ..@@@@
    .@....
    ..@@@.
    .....@
    .@@@@.
    ...@..
    ..@...

u+0160:
LATIN CAPITAL LETTER S WITH CARON:
    ..@.@.
    ...@..
    ......
    ..@@@@
    .@....
    .@....
    ..@@@.
    .....@
    .....@
    .@@@@.
    ......
    ......

u+0161:
LATIN SMALL LETTER S WITH CARON:
    ......
    ......
    ..@.@.
    ...@..
    ......
    ..@@@@
    .@....
    ..@@@.
    .....@
    .@@@@.
    ......
    ......

u+0162:
LATIN CAPITAL LETTER T WITH CEDILLA:
    ......
    ......
    ......
    .@@@@@
    ...@..
    ...@..
    ...@..
    ...@..
    ...@..
    ...@..
    ...@..
    ..@...

u+0163:
LATIN SMALL LETTER T WITH CEDILLA:
    ......
    ......
    ...@..
    ...@..
    ...@..
    ..@@@.
    ...@..
    ...@..
    ...@..
    ....@@
    ....@.
    ...@..

u+0164:
LATIN CAPITAL LETTER T WITH CARON:
    ..@.@.
    ...@..
    ......
    .@@@@@
    ...@..
    ...@..
    ...@..
    ...@..
    ...@..
    ...@..
    ......
    ......

u+0165:
LATIN SMALL LETTER T WITH CARON:
    ......
    .....@
    ...@@.
    ...@..
    ...@..
    ..@@@.
    ...@..
    ...@..
    ...@..
    ....@@
    ......
    ......

u+0166:
LATIN CAPITAL LETTER T WITH STROKE:
    ......
    ......
    ......
    .@@@@@
    ...@..
    ...@..
    ..@@@.
    ...@..
    ...@..
    ...@..
    ......
    ......

u+0167:
LATIN SMALL LETTER T WITH STROKE:
    ......
    ......
    ...@..
    ...@..
    ..@@@.
    ...@..
    ..@@@.
    ...@..
    ...@..
    ....@@
    ......
    ......

u+0168:
LATIN CAPITAL LETTER U WITH TILDE:
    ...@.@
    ..@.@.
    ......
    .@...@
    .@...@
    .@...@
    .@...@
    .@...@
    .@...@
    ..@@@.
    ......
    ......

u+0169:
LATIN SMALL LETTER U WITH TILDE:
    ......
    ......
    ...@.@
    ..@.@.
    ......
    .@...@
    .@...@
    .@...@
    .@...@
    ..@@@@
    ......
    ......

u+016a:
LATIN CAPITAL LETTER U WITH MACRON:
    ......
    ..@@@.
    ......
    .@...@
    .@...@
    .@...@
    .@...@
    .@...@
    .@...@
    ..@@@.
    ......
    ......

u+016b:
LATIN SMALL LETTER U WITH MACRON:
    ......
    ......
    ......
    ..@@@.
    ......
    .@...@
    .@...@
    .@...@
    .@...@
    ..@@@@
    ......
    ......

u+016c:
LATIN CAPITAL LETTER U WITH BREVE:
    .@...@
    ..@@@.
    ......
    .@...@
    .@...@
    .@...@
    .@...@
    .@...@
    .@...@
    ..@@@.
    ......
    ......

u+016d:
LATIN SMALL LETTER U WITH BREVE:
    ......
    ......
    .@...@
    ..@@@.
    ......
    .@...@
    .@...@
    .@...@
    .@...@
    ..@@@@
    ......
    ......

u+016e:
LATIN CAPITAL LETTER U WITH RING ABOVE:
    ...@..
    ..@.@.
    ...@..
    .@...@
    .@...@
    .@...@
    .@...@
    .@...@
    .@...@
    ..@@@.
    ......
    ......

u+016f:
LATIN SMALL LETTER U WITH RING ABOVE:
    ......
    ...@..
    ..@.@.
    ...@..
    ......
    .@...@
    .@...@
    .@...@
    .@...@
    ..@@@@
    ......
    ......

u+0170:
LATIN CAPITAL LETTER U WITH DOUBLE ACUTE:
    ..@..@
    .@..@.
    ......
    .@...@
    .@...@
    .@...@
    .@...@
    .@...@
    .@...@
    ..@@@.
    ......
    ......

u+0171:
LATIN SMALL LETTER U WITH DOUBLE ACUTE:
    ......
    ......
    ..@..@
    .@..@.
    ......
    .@...@
    .@...@
    .@...@
    .@...@
    ..@@@@
    ......
    ......

u+0172:
LATIN CAPITAL LETTER U WITH OGONEK:
    ......
    ......
    ......
    .@...@
    .@...@
    .@...@
    .@...@
    .@...@
    .@...@
    ..@@@.
    ...@..
    ....@.

u+0173:
LATIN SMALL LETTER U WITH OGONEK:
    ......
    ......
    ......
    ......
    ......
    .@...@
    .@...@
    .@...@
    .@...@
    ..@@@@
    ....@.
    .....@

u+0174:
LATIN CAPITAL LETTER W WITH CIRCUMFLEX:
    ...@..
    ..@.@.
    ......
    .@...@
    .@...@
    .@...@
    .@...@
    .@.@.@
    .@@.@@
    .@...@
    ......
    ......

u+0175:
LATIN SMALL LETTER W WITH CIRCUMFLEX:
    ......
    ......
    ...@..
    ..@.@.
    ......
    .@...@
    .@...@
    .@.@.@
    .@@.@@
    .@...@
    ......
    ......

u+0176:
LATIN CAPITAL LETTER Y WITH CIRCUMFLEX:
    ...@..
    ..@.@.
    ......
    .@...@
    .@...@
    ..@.@.
    ...@..
    ...@..
    ...@..
    ...@..
    ......
    ......

u+0177:
LATIN SMALL LETTER Y WITH CIRCUMFLEX:
    ......
    ......
    ...@..
    ..@.@.
    ......
    .@...@
    .@...@
    .@...@
    .@...@
    ..@@@@
    .....@
    ...@@.

u+0178:
LATIN CAPITAL LETTER Y WITH DIAERESIS:
    ......
    ..@.@.
    ......
    .@...@
    .@...@
    ..@.@.
    ...@..
    ...@..
    ...@..
    ...@..
    ......
    ......

u+0179:
LATIN CAPITAL LETTER Z WITH ACUTE:
    ....@.
    ...@..
    ......
    .@@@@@
    .....@
    ....@.
    ...@..
    ..@...
    .@....
    .@@@@@
    ......
    ......

u+017a:
LATIN SMALL LETTER Z WITH ACUTE:
    ......
    ......
    ....@.
    ...@..
    ......
    .@@@@@
    ....@.
    ...@..
    ..@...
    .@@@@@
    ......
    ......

u+017b:
LATIN CAPITAL LETTER Z WITH DOT ABOVE:
    ......
    ...@..
    ......
    .@@@@@
    .....@
    ....@.
    ...@..
    ..@...
    .@....
    .@@@@@
    ......
    ......

u+017c:
LATIN SMALL LETTER Z WITH DOT ABOVE:
    ......
    ......
    ......
    ...@..
    ......
    .@@@@@
    ....@.
    ...@..
    ..@...
    .@@@@@
    ......
    ......

u+017d:
LATIN CAPITAL LETTER Z WITH CARON:
    ..@.@.
    ...@..
    ......
    .@@@@@
    .....@
    ....@.
    ...@..
    ..@...
    .@....
    .@@@@@
    ......
    ......

u+017e:
LATIN SMALL LETTER Z WITH CARON:
    ......
    ......
    ..@.@.
    ...@..
    ......
    .@@@@@
    ....@.
    ...@..
    ..@...
    .@@@@@
    ......
    ......

u+017f:
LATIN SMALL LETTER LONG S:
    ......
    ......
    ...@@.
    ..@...
    ..@...
    ..@...
    ..@...
    ..@...
    ..@...
    ..@...
    ......
    ......

u+018e:
LATIN CAPITAL LETTER REVERSED E:
    ......
    ......
    ......
    .@@@@@
    .....@
    .....@
    ...@@@
    .....@
    .....@
    .@@@@@
    ......
    ......

u+018f:
LATIN CAPITAL LETTER SCHWA:
    ......
    ......
    ......
    ..@@@.
    .....@
    .....@
    .@@@@@
    .@...@
    .@...@
    ..@@@.
    ......
    ......

u+0192:
LATIN SMALL LETTER F WITH HOOK:
    ......
    ......
    ....@@
    ...@..
    ...@..
    ..@@@.
    ...@..
    ...@..
    ...@..
    ...@..
    ...@..
    .@@...

u+01a0:
LATIN CAPITAL LETTER O WITH HORN:
    ......
    ......
    .....@
    ..@@.@
    .@..@@
    .@..@.
    .@..@.
    .@..@.
    .@..@.
    ..@@..
    ......
    ......

u+01a1:
LATIN SMALL LETTER O WITH HORN:
    ......
    ......
    ......
    ......
    .....@
    ..@@.@
    .@..@@
    .@..@.
    .@..@.
    ..@@..
    ......
    ......

u+01af:
LATIN CAPITAL LETTER U WITH HORN:
    ......
    ......
    .....@
    .@..@@
    .@..@@
    .@..@.
    .@..@.
    .@..@.
    .@..@.
    ..@@..
    ......
    ......

u+01b0:
LATIN SMALL LETTER U WITH HORN:
    ......
    ......
    ......
    ......
    .....@
    .@..@@
    .@..@@
    .@..@.
    .@..@.
    ..@@@.
    ......
    ......

u+01dd:
LATIN SMALL LETTER TURNED E:
    ......
    ......
    ......
    ......
    ......
    ..@@@.
    .....@
    .@@@@@
    .@...@
    ..@@@.
    ......
    ......

u+01fa:
LATIN CAPITAL LETTER A WITH RING ABOVE AND ACUTE:
    ....@.
    ...@..
    ..@.@.
    ..@@@.
    .@...@
    .@...@
    .@...@
    .@@@@@
    .@...@
    .@...@
    ......
    ......

u+01fb:
LATIN SMALL LETTER A WITH RING ABOVE AND ACUTE:
    ....@.
    ...@..
    ...@..
    ..@.@.
    ...@..
    ..@@@@
    .....@
    ..@@@@
    .@...@
    ..@@@@
    ......
    ......

u+01fc:
LATIN CAPITAL LETTER AE WITH ACUTE:
    ....@.
    ...@..
    ......
    ..@@@@
    .@.@..
    .@.@..
    .@.@@.
    .@@@..
    .@.@..
    .@.@@@
    ......
    ......

u+01fd:
LATIN SMALL LETTER AE WITH ACUTE:
    ......
    ......
    ....@.
    ...@..
    ......
    .@@.@.
    ...@.@
    .@@@@@
    @..@..
    .@@@@@
    ......
    ......

u+01fe:
LATIN CAPITAL LETTER O WITH STROKE AND ACUTE:
    ....@.
    ...@..
    ......
    ..@@@@
    .@..@@
    .@..@@
    .@.@.@
    .@@..@
    .@@..@
    .@@@@.
    ......
    ......

u+01ff:
LATIN SMALL LETTER O WITH STROKE AND ACUTE:
    ......
    ......
    ....@.
    ...@..
    ......
    ..@@@@
    .@..@@
    .@.@.@
    .@@..@
    .@@@@.
    ......
    ......

u+0218:
LATIN CAPITAL LETTER S WITH COMMA BELOW:
    ......
    ......
    ......
    ..@@@@
    .@....
    .@....
    ..@@@.
    .....@
    .....@
    .@@@@.
    ...@..
    ..@...

u+0219:
LATIN SMALL LETTER S WITH COMMA BELOW:
    ......
    ......
    ......
    ......
    ......
    ..@@@@
    .@....
    ..@@@.
    .....@
    .@@@@.
    ...@..
    ..@...

u+021a:
LATIN CAPITAL LETTER T WITH COMMA BELOW:
    ......
    ......
    ......
    .@@@@@
    ...@..
    ...@..
    ...@..
    ...@..
    ...@..
    ...@..
    ...@..
    ..@...

u+021b:
LATIN SMALL LETTER T WITH COMMA BELOW:
    ......
    ......
    ..@...
    ..@...
    ..@...
    .@@@..
    ..@...
    ..@...
    ..@...
    ...@@.
    ...@..
    ..@...

u+0250:
LATIN SMALL LETTER TURNED A:
    ......
    ......
    ......
    ......
    ......
    .@@@@.
    .@...@
    .@@@@.
    .@....
    ..@@@.
    ......
    ......

u+0251:
LATIN SMALL LETTER ALPHA:
    ......
    ......
    ......
    ......
    ......
    ..@@@@
    .@...@
    .@...@
    .@...@
    ..@@@@
    ......
    ......

u+0252:
LATIN SMALL LETTER TURNED ALPHA:
    ......
    ......
    ......
    ......
    ......
    .@@@@.
    .@...@
    .@...@
    .@...@
    .@@@@.
    ......
    ......

u+0253:
LATIN SMALL LETTER B WITH HOOK:
    ......
    ..@...
    .@....
    .@....
    .@....
    .@@@@.
    .@...@
    .@...@
    .@...@
    .@@@@.
    ......
    ......

u+0254:
LATIN SMALL LETTER OPEN O:
    ......
    ......
    ......
    ......
    ......
    .@@@@.
    .....@
    .....@
    .....@
    .@@@@.
    ......
    ......

u+0255:
LATIN SMALL LETTER C WITH CURL:
    ......
    ......
    ......
    ......
    ......
    ..@@@@
    .@....
    .@....
    .@..@@
    ..@@@@
    ....@.
    ......

u+0256:
LATIN SMALL LETTER D WITH TAIL:
    ......
    ......
    ....@.
    ....@.
    ....@.
    ..@@@.
    .@..@.
    .@..@.
    .@..@.
    ..@@@.
    ....@.
    .....@

u+0257:
LATIN SMALL LETTER D WITH HOOK:
    ......
    .....@
    ....@.
    ....@.
    ....@.
    ..@@@.
    .@..@.
    .@..@.
    .@..@.
    ..@@@.
    ......
    ......

u+0258:
LATIN SMALL LETTER REVERSED E:
    ......
    ......
    ......
    ......
    ......
    ..@@@.
    .@...@
    .@@@@@
    .....@
    ..@@@.
    ......
    ......

u+0259:
LATIN SMALL LETTER SCHWA:
    ......
    ......
    ......
    ......
    ......
    ..@@@.
    .....@
    .@@@@@
    .@...@
    ..@@@.
    ......
    ......

u+025a:
LATIN SMALL LETTER SCHWA WITH HOOK:
    ......
    ......
    ......
    ......
    ......
    .@@...
    ...@..
    @@@@@.
    @..@.@
    .@@...
    ......
    ......

u+025b:
LATIN SMALL LETTER OPEN E:
    ......
    ......
    ......
    ......
    ......
    ..@@@@
    .@....
    ..@@..
    .@....
    ..@@@@
    ......
    ......

u+025c:
LATIN SMALL LETTER REVERSED OPEN E:
    ......
    ......
    ......
    ......
    ......
    .@@@@.
    .....@
    ...@@.
    .....@
    .@@@@.
    ......
    ......

u+025d:
LATIN SMALL LETTER REVERSED OPEN E WITH HOOK:
    ......
    ......
    ......
    ......
    ......
    .@@...
    ...@@.
    ..@..@
    ...@..
    .@@...
    ......
    ......

u+025e:
LATIN SMALL LETTER CLOSED REVERSED OPEN E:
    ......
    ......
    ......
    ......
    ......
    ..@@@.
    .@...@
    .@.@@.
    .@...@
    ..@@@.
    ......
    ......

u+025f:
LATIN SMALL LETTER DOTLESS J WITH STROKE:
    ......
    ......
    ......
    ......
    ......
    ..@@..
    ...@..
    ..@@@.
    ...@..
    ...@..
    ...@..
    ..@...

u+0260:
LATIN SMALL LETTER G WITH HOOK:
    ......
    ......
    ......
    .....@
    ....@.
    ..@@@.
    .@..@.
    .@..@.
    .@..@.
    ..@@@.
    ....@.
    ..@@..

u+0261:
LATIN SMALL LETTER SCRIPT G:
    ......
    ......
    ......
    ......
    ......
    ..@@@@
    .@...@
    .@...@
    .@..@@
    ..@@.@
    .....@
    ..@@@.

u+0262:
LATIN LETTER SMALL CAPITAL G:
    ......
    ......
    ......
    ......
    ......
    ..@@@@
    .@....
    .@..@@
    .@...@
    ..@@@@
    ......
    ......

u+0263:
LATIN SMALL LETTER GAMMA:
    ......
    ......
    ......
    ......
    ......
    .@...@
    .@...@
    ..@.@.
    ..@.@.
    ...@..
    ..@.@.
    ...@..

u+0264:
LATIN SMALL LETTER RAMS HORN:
    ......
    ......
    ......
    ......
    ......
    .@...@
    ..@.@.
    ...@..
    ..@.@.
    ...@..
    ......
    ......

u+0265:
LATIN SMALL LETTER TURNED H:
    ......
    ......
    ......
    ......
    ......
    .@...@
    .@...@
    .@...@
    .@...@
    ..@@@@
    .....@
    .....@

u+0266:
LATIN SMALL LETTER H WITH HOOK:
    ......
    ..@...
    .@....
    .@....
    .@....
    .@@@@.
    .@...@
    .@...@
    .@...@
    .@...@
    ......
    ......

u+0267:
LATIN SMALL LETTER HENG WITH HOOK:
    ......
    ..@...
    .@....
    .@....
    .@....
    .@@@@.
    .@...@
    .@...@
    .@...@
    .@...@
    .....@
    ....@.

u+0268:
LATIN SMALL LETTER I WITH STROKE:
    ......
    ......
    ......
    ...@..
    ......
    ..@@..
    ...@..
    ..@@@.
    ...@..
    ...@..
    ......
    ......

u+0269:
LATIN SMALL LETTER IOTA:
    ......
    ......
    ......
    ......
    ......
    ...@..
    ...@..
    ...@..
    ...@..
    ....@.
    ......
    ......

u+026a:
LATIN LETTER SMALL CAPITAL I:
    ......
    ......
    ......
    ......
    ......
    ..@@@.
    ...@..
    ...@..
    ...@..
    ..@@@.
    ......
    ......

u+026b:
LATIN SMALL LETTER L WITH MIDDLE TILDE:
    ......
    ......
    ...@..
    ...@..
    ...@..
    ..@@.@
    .@.@@.
    ...@..
    ...@..
    ....@@
    ......
    ......

u+026c:
LATIN SMALL LETTER L WITH BELT:
    ......
    ......
    ...@..
    ...@..
    ...@..
    .@@@..
    .@@@@@
    ...@..
    ...@..
    ....@@
    ......
    ......

u+026d:
LATIN SMALL LETTER L WITH RETROFLEX HOOK:
    ......
    ......
    ..@...
    ..@...
    ..@...
    ..@...
    ..@...
    ..@...
    ..@...
    ...@@.
    ....@.
    .....@

u+026e:
LATIN SMALL LETTER LEZH:
    ......
    ......
    .@....
    .@....
    .@....
    .@@@@@
    .@..@.
    .@.@..
    .@..@.
    ..@..@
    .....@
    ..@@@.

u+026f:
LATIN SMALL LETTER TURNED M:
    ......
    ......
    ......
    ......
    ......
    .@...@
    .@.@.@
    .@.@.@
    .@.@.@
    ..@.@@
    ......
    ......

u+0270:
LATIN SMALL LETTER TURNED M WITH LONG LEG:
    ......
    ......
    ......
    ......
    ......
    .@...@
    .@.@.@
    .@.@.@
    .@.@.@
    ..@.@@
    .....@
    .....@

u+0271:
LATIN SMALL LETTER M WITH HOOK:
    ......
    ......
    ......
    ......
    ......
    .@@.@.
    .@.@.@
    .@.@.@
    .@.@.@
    .@...@
    .....@
    ....@.

u+0272:
LATIN SMALL LETTER N WITH LEFT HOOK:
    ......
    ......
    ......
    ......
    ......
    .@@@@.
    .@...@
    .@...@
    .@...@
    .@...@
    .@....
    @.....

u+0273:
LATIN SMALL LETTER N WITH RETROFLEX HOOK:
    ......
    ......
    ......
    ......
    ......
    .@@@..
    .@..@.
    .@..@.
    .@..@.
    .@..@.
    ....@.
    .....@

u+0274:
LATIN LETTER SMALL CAPITAL N:
    ......
    ......
    ......
    ......
    ......
    .@...@
    .@@..@
    .@.@.@
    .@..@@
    .@...@
    ......
    ......

u+0275:
LATIN SMALL LETTER BARRED O:
    ......
    ......
    ......
    ......
    ......
    ..@@@.
    .@...@
    .@@@@@
    .@...@
    ..@@@.
    ......
    ......

u+0276:
LATIN LETTER SMALL CAPITAL OE:
    ......
    ......
    ......
    ......
    ......
    ..@@@@
    .@.@..
    .@.@@.
    .@.@..
    ..@@@@
    ......
    ......

u+0277:
LATIN SMALL LETTER CLOSED OMEGA:
    ......
    ......
    ......
    ......
    ......
    ..@@@.
    .@...@
    .@.@.@
    .@.@.@
    ..@.@.
    ......
    ......

u+0278:
LATIN SMALL LETTER PHI:
    ......
    ......
    ......
    ...@..
    ...@..
    ..@@@.
    .@.@.@
    .@.@.@
    .@.@.@
    ..@@@.
    ...@..
    ...@..

u+0279:
LATIN SMALL LETTER TURNED R:
    ......
    ......
    ......
    ......
    ......
    .....@
    .....@
    .....@
    ....@@
    .@@@.@
    ......
    ......

u+027a:
LATIN SMALL LETTER TURNED R WITH LONG LEG:
    ......
    ......
    ......
    .....@
    .....@
    .....@
    .....@
    .....@
    ....@@
    .@@@.@
    ......
    ......

u+027b:
LATIN SMALL LETTER TURNED R WITH HOOK:
    ......
    ......
    ......
    ......
    ......
    ....@.
    ....@.
    ....@.
    ...@@.
    .@@.@.
    ....@.
    .....@

u+027c:
LATIN SMALL LETTER R WITH LONG LEG:
    ......
    ......
    ......
    ......
    ......
    .@.@@@
    .@@...
    .@....
    .@....
    .@....
    .@....
    .@....

u+027d:
LATIN SMALL LETTER R WITH TAIL:
    ......
    ......
    ......
    ......
    ......
    .@.@@@
    .@@...
    .@....
    .@....
    .@....
    .@....
    ..@...

u+027e:
LATIN SMALL LETTER R WITH FISHHOOK:
    ......
    ......
    ......
    ......
    ......
    ...@@@
    ..@...
    ..@...
    ..@...
    .@@@..
    ......
    ......

u+027f:
LATIN SMALL LETTER REVERSED R WITH FISHHOOK:
    ......
    ......
    ......
    ......
    ......
    .@@@..
    ....@.
    ....@.
    ....@.
    ...@@@
    ......
    ......

u+0280:
LATIN LETTER SMALL CAPITAL R:
    ......
    ......
    ......
    ......
    ......
    .@@@@.
    .@...@
    .@@@@.
    .@..@.
    .@...@
    ......
    ......

u+0281:
LATIN LETTER SMALL CAPITAL INVERTED R:
    ......
    ......
    ......
    ......
    ......
    .@...@
    .@..@.
    .@@@@.
    .@...@
    .@@@@.
    ......
    ......

u+0282:
LATIN SMALL LETTER S WITH HOOK:
    ......
    ......
    ......
    ......
    ......
    ..@@@@
    .@....
    ..@@@.
    .....@
    .@@@@.
    .@....
    ..@...

u+0283:
LATIN SMALL LETTER ESH:
    ......
    ......
    ....@@
    ...@..
    ...@..
    ...@..
    ...@..
    ...@..
    ...@..
    ...@..
    ...@..
    .@@...

u+0284:
LATIN SMALL LETTER DOTLESS J WITH STROKE AND HOOK:
    ......
    ......
    ......
    ....@.
    ...@..
    ..@@..
    ...@..
    ..@@@.
    ...@..
    ...@..
    ...@..
    ..@...

u+0285:
LATIN SMALL LETTER SQUAT REVERSED ESH:
    ......
    ......
    ......
    ......
    ......
    .@@...
    ...@..
    ...@..
    ...@..
    ...@..
    ...@..
    ....@@

u+0286:
LATIN SMALL LETTER ESH WITH CURL:
    ......
    ......
    ....@@
    ...@..
    ...@..
    ...@..
    ...@..
    ...@..
    ...@..
    ...@..
    .@@@@.
    .@@...

u+0287:
LATIN SMALL LETTER TURNED T:
    ......
    ......
    ......
    ......
    ......
    ..@@..
    ....@.
    ....@.
    ....@.
    ...@@@
    ....@.
    ....@.

u+0288:
LATIN SMALL LETTER T WITH RETROFLEX HOOK:
    ......
    ......
    ..@...
    ..@...
    ..@...
    .@@@..
    ..@...
    ..@...
    ..@...
    ...@@.
    ....@.
    .....@

u+0289:
LATIN SMALL LETTER U BAR:
    ......
    ......
    ......
    ......
    ......
    .@...@
    .@...@
    .@@@@@
    .@...@
    ..@@@@
    ......
    ......

u+028a:
LATIN SMALL LETTER UPSILON:
    ......
    ......
    ......
    ......
    ......
    .@...@
    ..@.@.
    .@...@
    .@...@
    ..@@@.
    ......
    ......

u+028b:
LATIN SMALL LETTER V WITH HOOK:
    ......
    ......
    ......
    ....@.
    .....@
    .@...@
    .@...@
    ..@.@.
    ..@.@.
    ...@..
    ......
    ......

u+028c:
LATIN SMALL LETTER TURNED V:
    ......
    ......
    ......
    ......
    ......
    ...@..
    ..@.@.
    ..@.@.
    .@...@
    .@...@
    ......
    ......

u+028d:
LATIN SMALL LETTER TURNED W:
    ......
    ......
    ......
    ......
    ......
    .@...@
    .@@.@@
    .@.@.@
    .@...@
    .@...@
    ......
    ......

u+028e:
LATIN SMALL LETTER TURNED Y:
    ......
    ......
    ......
    ..@@@.
    .@....
    .@@@@.
    .@...@
    .@...@
    .@...@
    .@...@
    ......
    ......

u+028f:
LATIN LETTER SMALL CAPITAL Y:
    ......
    ......
    ......
    ......
    ......
    .@...@
    ..@.@.
    ...@..
    ...@..
    ...@..
    ......
    ......

u+0290:
LATIN SMALL LETTER Z WITH RETROFLEX HOOK:
    ......
    ......
    ......
    ......
    ......
    .@@@@.
    ...@..
    ..@...
    .@....
    .@@@@.
    ....@.
    .....@

u+0291:
LATIN SMALL LETTER Z WITH CURL:
    ......
    ......
    ......
    ......
    ......
    .@@@@@
    ....@.
    ...@..
    ..@.@@
    .@@@@@
    ....@.
    ......

u+0292:
LATIN SMALL LETTER EZH:
    ......
    ......
    ......
    ......
    ......
    .@@@@@
    ....@.
    ...@..
    ..@@@.
    .....@
    .....@
    .@@@@.

u+0293:
LATIN SMALL LETTER EZH WITH CURL:
    ......
    ......
    ......
    ......
    ......
    .@@@@@
    ....@.
    ...@..
    ....@.
    .@@..@
    .@@@@.
    ..@...

u+0294:
LATIN LETTER GLOTTAL STOP:
    ......
    ......
    ......
    .@@@@.
    .....@
    .....@
    ....@.
    ...@..
    ...@..
    ...@..
    ......
    ......

u+0295:
LATIN LETTER PHARYNGEAL VOICED FRICATIVE:
    ......
    ......
    ......
    ..@@@@
    .@....
    .@....
    ..@...
    ...@..
    ...@..
    ...@..
    ......
    ......

u+0296:
LATIN LETTER INVERTED GLOTTAL STOP:
    ......
    ......
    ......
    ...@..
    ...@..
    ...@..
    ....@.
    .....@
    .....@
    .@@@@.
    ......
    ......

u+0297:
LATIN LETTER STRETCHED C:
    ......
    ......
    ......
    ..@@@@
    .@....
    .@....
    .@....
    .@....
    .@....
    .@....
    .@....
    ..@@@@

u+0298:
LATIN LETTER BILABIAL CLICK:
    ......
    ......
    ......
    ..@@@.
    .@...@
    .@...@
    .@.@.@
    .@...@
    .@...@
    ..@@@.
    ......
    ......

u+0299:
LATIN LETTER SMALL CAPITAL B:
    ......
    ......
    ......
    ......
    ......
    .@@@@.
    .@...@
    .@@@@.
    .@...@
    .@@@@.
    ......
    ......

u+029a:
LATIN SMALL LETTER CLOSED OPEN E:
    ......
    ......
    ......
    ......
    ......
    ..@@@.
    .@...@
    ..@@.@
    .@...@
    ..@@@.
    ......
    ......

u+029b:
LATIN LETTER SMALL CAPITAL G WITH HOOK:
    ......
    ......
    ......
    .....@
    ....@.
    ..@@@.
    .@....
    .@.@@.
    .@..@.
    ..@@@.
    ......
    ......

u+029c:
LATIN LETTER SMALL CAPITAL H:
    ......
    ......
    ......
    ......
    ......
    .@...@
    .@...@
    .@@@@@
    .@...@
    .@...@
    ......
    ......

u+029d:
LATIN SMALL LETTER J WITH CROSSED-TAIL:
    ......
    ......
    ......
    ...@..
    ......
    ..@@..
    ...@..
    ...@..
    ...@..
    ..@@@.
    ...@..
    ..@...

u+029e:
LATIN SMALL LETTER TURNED K:
    ......
    ......
    ......
    ......
    ......
    ..@..@
    ...@.@
    ....@@
    ...@.@
    ..@..@
    .....@
    .....@

u+029f:
LATIN LETTER SMALL CAPITAL L:
    ......
    ......
    ......
    ......
    ......
    .@....
    .@....
    .@....
    .@....
    .@@@@@
    ......
    ......

u+02a0:
LATIN SMALL LETTER Q WITH HOOK:
    ......
    ......
    ......
    .....@
    ....@.
    ..@@@.
    .@..@.
    .@..@.
    .@..@.
    ..@@@.
    ....@.
    ....@.

u+02a1:
LATIN LETTER GLOTTAL STOP WITH STROKE:
    ......
    ......
    ......
    .@@@@.
    .....@
    .....@
    ....@.
    ...@..
    ..@@@.
    ...@..
    ......
    ......

u+02a2:
LATIN LETTER REVERSED GLOTTAL STOP WITH STROKE:
    ......
    ......
    ......
    ..@@@@
    .@....
    .@....
    ..@...
    ...@..
    ..@@@.
    ...@..
    ......
    ......

u+02a3:
LATIN SMALL LETTER DZ DIGRAPH:
    ......
    ......
    ...@..
    ...@..
    ...@..
    ..@@@@
    .@.@.@
    .@.@@@
    .@.@@.
    ..@@@@
    ......
    ......

u+02a4:
LATIN SMALL LETTER DEZH DIGRAPH:
    ......
    ......
    ...@..
    ...@..
    ...@..
    ..@@@@
    .@.@.@
    .@.@@.
    .@.@.@
    ..@@.@
    .....@
    ...@@.

u+02a5:
LATIN SMALL LETTER DZ DIGRAPH WITH CURL:
    ......
    ......
    ...@..
    ...@..
    ...@..
    ..@@@@
    .@.@.@
    .@.@@@
    .@.@@.
    ..@@@@
    .....@
    ......

u+02a6:
LATIN SMALL LETTER TS DIGRAPH:
    ......
    ......
    ..@...
    ..@...
    ..@...
    .@@@@@
    ..@@..
    ..@.@.
    ..@..@
    ...@@.
    ......
    ......

u+02a7:
LATIN SMALL LETTER TESH DIGRAPH:
    ......
    ......
    ..@..@
    ..@.@.
    ..@.@.
    .@@@@.
    ..@.@.
    ..@.@.
    ..@.@.
    ...@@.
    ....@.
    ...@..

u+02a8:
LATIN SMALL LETTER TC DIGRAPH WITH CURL:
    ......
    ......
    ..@...
    ..@...
    ..@...
    .@@@.@
    ..@.@.
    ..@.@.
    ..@.@@
    ...@@@
    .....@
    ......

u+02a9:
LATIN SMALL LETTER FENG DIGRAPH:
    ......
    ......
    ..@@..
    .@....
    .@....
    .@@@@.
    .@.@.@
    .@.@.@
    .@.@.@
    .@.@.@
    .....@
    ....@.

u+02aa:
LATIN SMALL LETTER LS DIGRAPH:
    ......
    ......
    .@....
    .@....
    .@....
    .@..@@
    .@.@..
    .@..@.
    .@...@
    ..@@@.
    ......
    ......

u+02ab:
LATIN SMALL LETTER LZ DIGRAPH:
    ......
    ......
    .@....
    .@....
    .@....
    .@.@@@
    .@...@
    .@..@.
    .@.@..
    ..@@@@
    ......
    ......

u+02ac:
LATIN LETTER BILABIAL PERCUSSIVE:
    ......
    ......
    ......
    ......
    ......
    .@.@.@
    ..@.@.
    ......
    .@.@.@
    ..@.@.
    ......
    ......

u+02ad:
LATIN LETTER BIDENTAL PERCUSSIVE:
    ......
    ......
    ......
    ......
    ......
    .@@@@@
    .@...@
    ......
    .@@@@@
    .@...@
    ......
    ......

u+02ae:
LATIN SMALL LETTER TURNED H WITH FISHHOOK:
    ......
    ......
    ......
    ......
    @.....
    .@...@
    .@...@
    .@...@
    ..@@@@
    .....@
    .....@
    .....@

u+02af:
LATIN SMALL LETTER TURNED H WITH FISHHOOK AND TAIL:
    ......
    ......
    ......
    ......
    @.....
    .@..@.
    .@..@.
    .@..@.
    .@..@.
    ..@@@.
    ....@.
    .....@

u+02b0:
MODIFIER LETTER SMALL H:
    ......
    .@....
    .@....
    .@@@..
    .@..@.
    .@..@.
    .@..@.
    ......
    ......
    ......
    ......
    ......

u+02b1:
MODIFIER LETTER SMALL H WITH HOOK:
    ..@...
    .@....
    .@....
    .@@@..
    .@..@.
    .@..@.
    .@..@.
    ......
    ......
    ......
    ......
    ......

u+02b2:
MODIFIER LETTER SMALL J:
    ......
    ...@..
    ......
    ..@@..
    ...@..
    ...@..
    ...@..
    ..@...
    ......
    ......
    ......
    ......

u+02b3:
MODIFIER LETTER SMALL R:
    ......
    ......
    ......
    .@.@@.
    .@@...
    .@....
    .@....
    ......
    ......
    ......
    ......
    ......

u+02b4:
MODIFIER LETTER SMALL TURNED R:
    ......
    ......
    ......
    ....@.
    ....@.
    ...@@.
    .@@.@.
    ......
    ......
    ......
    ......
    ......

u+02b5:
MODIFIER LETTER SMALL TURNED R WITH HOOK:
    ......
    ......
    ......
    ....@.
    ....@.
    ...@@.
    .@@.@.
    .....@
    ......
    ......
    ......
    ......

u+02b6:
MODIFIER LETTER SMALL CAPITAL INVERTED R:
    ......
    ......
    ......
    .@..@.
    .@@@..
    .@..@.
    .@@@..
    ......
    ......
    ......
    ......
    ......

u+02b7:
MODIFIER LETTER SMALL W:
    ......
    ......
    ......
    .@..@.
    .@..@.
    .@@@@.
    .@..@.
    ......
    ......
    ......
    ......
    ......

u+02b8:
MODIFIER LETTER SMALL Y:
    ......
    ......
    ......
    .@..@.
    .@..@.
    ..@@@.
    ....@.
    ..@@..
    ......
    ......
    ......
    ......

u+02b9:
MODIFIER LETTER PRIME:
    ....@.
    ...@..
    ..@...
    ......
    ......
    ......
    ......
    ......
    ......
    ......
    ......
    ......

u+02ba:
MODIFIER LETTER DOUBLE PRIME:
    ..@..@
    .@..@.
    @..@..
    ......
    ......
    ......
    ......
    ......
    ......
    ......
    ......
    ......

u+02bb:
MODIFIER LETTER TURNED COMMA:
    ....@.
    ...@..
    ...@..
    ......
    ......
    ......
    ......
    ......
    ......
    ......
    ......
    ......

u+02bc:
MODIFIER LETTER APOSTROPHE:
    ...@..
    ...@..
    ..@...
    ......
    ......
    ......
    ......
    ......
    ......
    ......
    ......
    ......

u+02bd:
MODIFIER LETTER REVERSED COMMA:
    ...@..
    ...@..
    ....@.
    ......
    ......
    ......
    ......
    ......
    ......
    ......
    ......
    ......

u+02be:
MODIFIER LETTER RIGHT HALF RING:
    ...@..
    ....@.
    ...@..
    ......
    ......
    ......
    ......
    ......
    ......
    ......
    ......
    ......

u+02bf:
MODIFIER LETTER LEFT HALF RING:
    ...@..
    ..@...
    ...@..
    ......
    ......
    ......
    ......
    ......
    ......
    ......
    ......
    ......

u+02c0:
MODIFIER LETTER GLOTTAL STOP:
    ......
    .@@@..
    ....@.
    ....@.
    ...@..
    ..@...
    ..@...
    ......
    ......
    ......
    ......
    ......

u+02c1:
MODIFIER LETTER REVERSED GLOTTAL STOP:
    ......
    ..@@@.
    .@....
    .@....
    ..@...
    ...@..
    ...@..
    ......
    ......
    ......
    ......
    ......

u+02c2:
MODIFIER LETTER LEFT ARROWHEAD:
    ......
    ......
    ......
    ...@@.
    .@@...
    ...@@.
    ......
    ......
    ......
    ......
    ......
    ......

u+02c3:
MODIFIER LETTER RIGHT ARROWHEAD:
    ......
    ......
    ......
    .@@...
    ...@@.
    .@@...
    ......
    ......
    ......
    ......
    ......
    ......

u+02c4:
MODIFIER LETTER UP ARROWHEAD:
    ......
    ......
    ......
    ...@..
    ..@.@.
    ......
    ......
    ......
    ......
    ......
    ......
    ......

u+02c5:
MODIFIER LETTER DOWN ARROWHEAD:
    ......
    ......
    ......
    ..@.@.
    ...@..
    ......
    ......
    ......
    ......
    ......
    ......
    ......

u+02c6:
MODIFIER LETTER CIRCUMFLEX ACCENT:
    ...@..
    ..@.@.
    ......
    ......
    ......
    ......
    ......
    ......
    ......
    ......
    ......
    ......

u+02c7:
CARON:
    ..@.@.
    ...@..
    ......
    ......
    ......
    ......
    ......
    ......
    ......
    ......
    ......
    ......

u+02c8:
MODIFIER LETTER VERTICAL LINE:
    ...@..
    ...@..
    ...@..
    ......
    ......
    ......
    ......
    ......
    ......
    ......
    ......
    ......

u+02c9:
MODIFIER LETTER MACRON:
    ......
    ..@@@.
    ......
    ......
    ......
    ......
    ......
    ......
    ......
    ......
    ......
    ......

u+02ca:
MODIFIER LETTER ACUTE ACCENT:
    ....@.
    ...@..
    ......
    ......
    ......
    ......
    ......
    ......
    ......
    ......
    ......
    ......

u+02cb:
MODIFIER LETTER GRAVE ACCENT:
    ..@...
    ...@..
    ......
    ......
    ......
    ......
    ......
    ......
    ......
    ......
    ......
    ......

u+02cc:
MODIFIER LETTER LOW VERTICAL LINE:
    ......
    ......
    ......
    ......
    ......
    ......
    ......
    ......
    ......
    ...@..
    ...@..
    ...@..

u+02cd:
MODIFIER LETTER LOW MACRON:
    ......
    ......
    ......
    ......
    ......
    ......
    ......
    ......
    ......
    ......
    ......
    ..@@@.

u+02ce:
MODIFIER LETTER LOW GRAVE ACCENT:
    ......
    ......
    ......
    ......
    ......
    ......
    ......
    ......
    ......
    ......
    ...@..
    ....@.

u+02cf:
MODIFIER LETTER LOW ACUTE ACCENT:
    ......
    ......
    ......
    ......
    ......
    ......
    ......
    ......
    ......
    ......
    ...@..
    ..@...

u+02d0:
MODIFIER LETTER TRIANGULAR COLON:
    ......
    ......
    ......
    ......
    ......
    ..@@@.
    ...@..
    ......
    ...@..
    ..@@@.
    ......
    ......

u+02d1:
MODIFIER LETTER HALF TRIANGULAR COLON:
    ......
    ......
    ......
    ......
    ......
    ......
    ..@@@.
    ...@..
    ......
    ......
    ......
    ......

u+02d2:
MODIFIER LETTER CENTRED RIGHT HALF RING:
    ......
    ......
    ......
    ......
    ......
    ......
    ...@..
    ....@.
    ...@..
    ......
    ......
    ......

u+02d3:
MODIFIER LETTER CENTRED LEFT HALF RING:
    ......
    ......
    ......
    ......
    ......
    ......
    ...@..
    ..@...
    ...@..
    ......
    ......
    ......

u+02d4:
MODIFIER LETTER UP TACK:
    ......
    ......
    ......
    ......
    ......
    ...@..
    ...@..
    .@@@@@
    ......
    ......
    ......
    ......

u+02d5:
MODIFIER LETTER DOWN TACK:
    ......
    ......
    ......
    ......
    ......
    ......
    ......
    .@@@@@
    ...@..
    ...@..
    ......
    ......

u+02d6:
MODIFIER LETTER PLUS SIGN:
    ......
    ......
    ......
    ......
    ......
    ...@..
    ...@..
    .@@@@@
    ...@..
    ...@..
    ......
    ......

u+02d7:
MODIFIER LETTER MINUS SIGN:
    ......
    ......
    ......
    ......
    ......
    ......
    ......
    .@@@@@
    ......
    ......
    ......
    ......

u+02d8:
BREVE:
    .@...@
    ..@@@.
    ......
    ......
    ......
    ......
    ......
    ......
    ......
    ......
    ......
    ......

u+02d9:
DOT ABOVE:
    ......
    ...@..
    ......
    ......
    ......
    ......
    ......
    ......
    ......
    ......
    ......
    ......

u+02da:
RING ABOVE:
    ...@..
    ..@.@.
    ...@..
    ......
    ......
    ......
    ......
    ......
    ......
    ......
    ......
    ......

u+02db:
OGONEK:
    ......
    ......
    ......
    ......
    ......
    ......
    ......
    ......
    ......
    ......
    ....@.
    .....@

u+02dc:
SMALL TILDE:
    ..@.@.
    .@.@..
    ......
    ......
    ......
    ......
    ......
    ......
    ......
    ......
    ......
    ......

u+02dd:
DOUBLE ACUTE ACCENT:
    ..@..@
    .@..@.
    ......
    ......
    ......
    ......
    ......
    ......
    ......
    ......
    ......
    ......

u+02de:
MODIFIER LETTER RHOTIC HOOK:
    ......
    ......
    ......
    ......
    ......
    .@....
    @.@...
    ..@..@
    ...@@.
    ......
    ......
    ......

u+02df:
MODIFIER LETTER CROSS ACCENT:
    ..@.@.
    ...@..
    ..@.@.
    ......
    ......
    ......
    ......
    ......
    ......
    ......
    ......
    ......

u+02e0:
MODIFIER LETTER SMALL GAMMA:
    ......
    ......
    ......
    .@..@.
    ..@.@.
    ...@..
    ..@.@.
    ...@..
    ......
    ......
    ......
    ......

u+02e1:
MODIFIER LETTER SMALL L:
    ......
    ..@...
    ..@...
    ..@...
    ..@...
    ..@...
    ...@..
    ......
    ......
    ......
    ......
    ......

u+02e2:
MODIFIER LETTER SMALL S:
    ......
    ......
    ......
    ..@@@.
    .@@@..
    ....@.
    .@@@..
    ......
    ......
    ......
    ......
    ......

u+02e3:
MODIFIER LETTER SMALL X:
    ......
    ......
    ......
    .@..@.
    ..@@..
    .@..@.
    ......
    ......
    ......
    ......
    ......
    ......

u+02e4:
MODIFIER LETTER SMALL REVERSED GLOTTAL STOP:
    ......
    ......
    ......
    ..@@@.
    .@....
    ..@...
    ..@...
    ......
    ......
    ......
    ......
    ......

u+02e5:
MODIFIER LETTER EXTRA-HIGH TONE BAR:
    ......
    ......
    ......
    ......
    ......
    .@@@@@
    .....@
    .....@
    .....@
    .....@
    ......
    ......

u+02e6:
MODIFIER LETTER HIGH TONE BAR:
    ......
    ......
    ......
    ......
    ......
    .....@
    .@@@@@
    .....@
    .....@
    .....@
    ......
    ......

u+02e7:
MODIFIER LETTER MID TONE BAR:
    ......
    ......
    ......
    ......
    ......
    .....@
    .....@
    .@@@@@
    .....@
    .....@
    ......
    ......

u+02e8:
MODIFIER LETTER LOW TONE BAR:
    ......
    ......
    ......
    ......
    ......
    .....@
    .....@
    .....@
    .@@@@@
    .....@
    ......
    ......

u+02e9:
MODIFIER LETTER EXTRA-LOW TONE BAR:
    ......
    ......
    ......
    ......
    ......
    .....@
    .....@
    .....@
    .....@
    .@@@@@
    ......
    ......

u+02ea:
MODIFIER LETTER YIN DEPARTING TONE MARK:
    ......
    ......
    ......
    ......
    ......
    .@....
    .@....
    .@....
    .@....
    .@@@@@
    ......
    ......

u+02eb:
MODIFIER LETTER YANG DEPARTING TONE MARK:
    ......
    ......
    ......
    ......
    ......
    .@....
    .@....
    .@@@@@
    .@....
    .@....
    ......
    ......

u+02ec:
MODIFIER LETTER VOICING:
    ......
    ......
    ......
    ......
    ......
    ......
    ......
    ......
    ......
    ......
    ..@.@.
    ...@..

u+02ed:
MODIFIER LETTER UNASPIRATED:
    .@@@@@
    ......
    .@@@@@
    ......
    ......
    ......
    ......
    ......
    ......
    ......
    ......
    ......

u+02ee:
MODIFIER LETTER DOUBLE APOSTROPHE:
    ..@.@.
    ..@.@.
    .@.@..
    ......
    ......
    ......
    ......
    ......
    ......
    ......
    ......
    ......

u+037a:
GREEK YPOGEGRAMMENI:
    ......
    ......
    ......
    ......
    ......
    ......
    ......
    ......
    ......
    ......
    ...@..
    ...@..

u+037e:
GREEK QUESTION MARK:
    ......
    ......
    ......
    ......
    ......
    ...@..
    ......
    ......
    ......
    ...@..
    ..@...
    ......

u+0384:
GREEK TONOS:
    ....@.
    ...@..
    ......
    ......
    ......
    ......
    ......
    ......
    ......
    ......
    ......
    ......

u+0385:
GREEK DIALYTIKA TONOS:
    ....@.
    ...@..
    .@...@
    ......
    ......
    ......
    ......
    ......
    ......
    ......
    ......
    ......

u+0386:
GREEK CAPITAL LETTER ALPHA WITH TONOS:
    ......
    ......
    .@....
    @.@@@.
    .@...@
    .@...@
    .@...@
    .@@@@@
    .@...@
    .@...@
    ......
    ......

u+0388:
GREEK CAPITAL LETTER EPSILON WITH TONOS:
    ......
    ......
    .@....
    @.@@@@
    .@....
    .@....
    .@@@..
    .@....
    .@....
    .@@@@@
    ......
    ......

u+0389:
GREEK CAPITAL LETTER ETA WITH TONOS:
    ......
    ......
    .@....
    @....@
    .@...@
    .@...@
    .@@@@@
    .@...@
    .@...@
    .@...@
    ......
    ......

u+038a:
GREEK CAPITAL LETTER IOTA WITH TONOS:
    ......
    ......
    ..@...
    .@.@@@
    ....@.
    ....@.
    ....@.
    ....@.
    ....@.
    ...@@@
    ......
    ......

u+038c:
GREEK CAPITAL LETTER OMICRON WITH TONOS:
    ......
    ......
    .@....
    @.@@@.
    .@...@
    .@...@
    .@...@
    .@...@
    .@...@
    ..@@@.
    ......
    ......

u+038e:
GREEK CAPITAL LETTER UPSILON WITH TONOS:
    ......
    ......
    .@....
    @....@
    .@...@
    ..@.@.
    ...@..
    ...@..
    ...@..
    ...@..
    ......
    ......

u+038f:
GREEK CAPITAL LETTER OMEGA WITH TONOS:
    ......
    ......
    .@....
    @.@@@.
    .@...@
    .@...@
    .@...@
    .@...@
    ..@.@.
    .@@.@@
    ......
    ......

u+0390:
GREEK SMALL LETTER IOTA WITH DIALYTIKA AND TONOS:
    ....@.
    ...@..
    ......
    ..@.@.
    ......
    ...@..
    ...@..
    ...@..
    ...@..
    ....@.
    ......
    ......

u+0391:
GREEK CAPITAL LETTER ALPHA:
    ......
    ......
    ......
    ..@@@.
    .@...@
    .@...@
    .@...@
    .@@@@@
    .@...@
    .@...@
    ......
    ......

u+0392:
GREEK CAPITAL LETTER BETA:
    ......
    ......
    ......
    .@@@@.
    .@...@
    .@...@
    .@@@@.
    .@...@
    .@...@
    .@@@@.
    ......
    ......

u+0393:
GREEK CAPITAL LETTER GAMMA:
    ......
    ......
    ......
    .@@@@@
    .@....
    .@....
    .@....
    .@....
    .@....
    .@....
    ......
    ......

u+0394:
GREEK CAPITAL LETTER DELTA:
    ......
    ......
    ......
    ...@..
    ...@..
    ..@.@.
    ..@.@.
    .@...@
    .@...@
    .@@@@@
    ......
    ......

u+0395:
GREEK CAPITAL LETTER EPSILON:
    ......
    ......
    ......
    .@@@@@
    .@....
    .@....
    .@@@..
    .@....
    .@....
    .@@@@@
    ......
    ......

u+0396:
GREEK CAPITAL LETTER ZETA:
    ......
    ......
    ......
    .@@@@@
    .....@
    ....@.
    ...@..
    ..@...
    .@....
    .@@@@@
    ......
    ......

u+0397:
GREEK CAPITAL LETTER ETA:
    ......
    ......
    ......
    .@...@
    .@...@
    .@...@
    .@@@@@
    .@...@
    .@...@
    .@...@
    ......
    ......

u+0398:
GREEK CAPITAL LETTER THETA:
    ......
    ......
    ......
    ..@@@.
    .@...@
    .@...@
    .@@@@@
    .@...@
    .@...@
    ..@@@.
    ......
    ......

u+0399:
GREEK CAPITAL LETTER IOTA:
    ......
    ......
    ......
    ..@@@.
    ...@..
    ...@..
    ...@..
    ...@..
    ...@..
    ..@@@.
    ......
    ......

u+039a:
GREEK CAPITAL LETTER KAPPA:
    ......
    ......
    ......
    .@...@
    .@..@.
    .@.@..
    .@@...
    .@.@..
    .@..@.
    .@...@
    ......
    ......

u+039b:
GREEK CAPITAL LETTER LAMDA:
    ......
    ......
    ......
    ...@..
    ...@..
    ..@.@.
    ..@.@.
    .@...@
    .@...@
    .@...@
    ......
    ......

u+039c:
GREEK CAPITAL LETTER MU:
    ......
    ......
    ......
    .@...@
    .@@.@@
    .@.@.@
    .@...@
    .@...@
    .@...@
    .@...@
    ......
    ......

u+039d:
GREEK CAPITAL LETTER NU:
    ......
    ......
    ......
    .@...@
    .@...@
    .@@..@
    .@.@.@
    .@..@@
    .@...@
    .@...@
    ......
    ......

u+039e:
GREEK CAPITAL LETTER XI:
    ......
    ......
    ......
    .@@@@@
    ......
    ......
    ..@@@.
    ......
    ......
    .@@@@@
    ......
    ......

u+039f:
GREEK CAPITAL LETTER OMICRON:
    ......
    ......
    ......
    ..@@@.
    .@...@
    .@...@
    .@...@
    .@...@
    .@...@
    ..@@@.
    ......
    ......

u+03a0:
GREEK CAPITAL LETTER PI:
    ......
    ......
    ......
    .@@@@@
    .@...@
    .@...@
    .@...@
    .@...@
    .@...@
    .@...@
    ......
    ......

u+03a1:
GREEK CAPITAL LETTER RHO:
    ......
    ......
    ......
    .@@@@.
    .@...@
    .@...@
    .@...@
    .@@@@.
    .@....
    .@....
    ......
    ......

u+03a3:
GREEK CAPITAL LETTER SIGMA:
    ......
    ......
    ......
    .@@@@@
    .@....
    ..@...
    ...@..
    ..@...
    .@....
    .@@@@@
    ......
    ......

u+03a4:
GREEK CAPITAL LETTER TAU:
    ......
    ......
    ......
    .@@@@@
    ...@..
    ...@..
    ...@..
    ...@..
    ...@..
    ...@..
    ......
    ......

u+03a5:
GREEK CAPITAL LETTER UPSILON:
    ......
    ......
    ......
    .@...@
    .@...@
    ..@.@.
    ...@..
    ...@..
    ...@..
    ...@..
    ......
    ......

u+03a6:
GREEK CAPITAL LETTER PHI:
    ......
    ......
    ......
    ...@..
    ..@@@.
    .@.@.@
    .@.@.@
    .@.@.@
    ..@@@.
    ...@..
    ......
    ......

u+03a7:
GREEK CAPITAL LETTER CHI:
    ......
    ......
    ......
    .@...@
    .@...@
    ..@.@.
    ...@..
    ..@.@.
    .@...@
    .@...@
    ......
    ......

u+03a8:
GREEK CAPITAL LETTER PSI:
    ......
    ......
    ......
    .@.@.@
    .@.@.@
    .@.@.@
    ..@@@.
    ...@..
    ...@..
    ...@..
    ......
    ......

u+03a9:
GREEK CAPITAL LETTER OMEGA:
    ......
    ......
    ......
    ..@@@.
    .@...@
    .@...@
    .@...@
    .@...@
    ..@.@.
    .@@.@@
    ......
    ......

u+03aa:
GREEK CAPITAL LETTER IOTA WITH DIALYTIKA:
    ......
    ..@.@.
    ......
    ..@@@.
    ...@..
    ...@..
    ...@..
    ...@..
    ...@..
    ..@@@.
    ......
    ......

u+03ab:
GREEK CAPITAL LETTER UPSILON WITH DIALYTIKA:
    ......
    ..@.@.
    ......
    .@...@
    .@...@
    ..@.@.
    ...@..
    ...@..
    ...@..
    ...@..
    ......
    ......

u+03ac:
GREEK SMALL LETTER ALPHA WITH TONOS:
    ......
    ......
    ....@.
    ...@..
    ......
    ..@@.@
    .@..@.
    .@..@.
    .@..@.
    ..@@.@
    ......
    ......

u+03ad:
GREEK SMALL LETTER EPSILON WITH TONOS:
    ......
    ......
    ....@.
    ...@..
    ......
    ..@@@@
    .@....
    ..@@..
    .@....
    ..@@@@
    ......
    ......

u+03ae:
GREEK SMALL LETTER ETA WITH TONOS:
    ......
    ......
    ....@.
    ...@..
    ......
    .@@@@.
    .@...@
    .@...@
    .@...@
    .@...@
    .....@
    .....@

u+03af:
GREEK SMALL LETTER IOTA WITH TONOS:
    ......
    ......
    ....@.
    ...@..
    ......
    ...@..
    ...@..
    ...@..
    ...@..
    ....@.
    ......
    ......

u+03b0:
GREEK SMALL LETTER UPSILON WITH DIALYTIKA AND TONOS:
    ....@.
    ...@..
    ......
    ..@.@.
    ......
    .@...@
    .@...@
    .@...@
    .@...@
    ..@@@.
    ......
    ......

u+03b1:
GREEK SMALL LETTER ALPHA:
    ......
    ......
    ......
    ......
    ......
    ..@@.@
    .@..@.
    .@..@.
    .@..@.
    ..@@.@
    ......
    ......

u+03b2:
GREEK SMALL LETTER BETA:
    ......
    ......
    ..@@..
    .@..@.
    .@..@.
    .@.@..
    .@..@.
    .@...@
    .@...@
    .@.@@.
    .@....
    .@....

u+03b3:
GREEK SMALL LETTER GAMMA:
    ......
    ......
    ......
    ......
    ......
    .@...@
    .@...@
    ..@.@.
    ..@.@.
    ...@..
    ...@..
    ...@..

u+03b4:
GREEK SMALL LETTER DELTA:
    ......
    ......
    ..@@@.
    .@....
    ..@...
    ..@@@.
    .@...@
    .@...@
    .@...@
    ..@@@.
    ......
    ......

u+03b5:
GREEK SMALL LETTER EPSILON:
    ......
    ......
    ......
    ......
    ......
    ..@@@@
    .@....
    ..@@..
    .@....
    ..@@@@
    ......
    ......

u+03b6:
GREEK SMALL LETTER ZETA:
    ......
    ......
    .@@@@@
    .....@
    ....@.
    ...@..
    ..@...
    .@....
    .@....
    ..@@@.
    .....@
    ......

u+03b7:
GREEK SMALL LETTER ETA:
    ......
    ......
    ......
    ......
    ......
    .@@@@.
    .@...@
    .@...@
    .@...@
    .@...@
    .....@
    .....@

u+03b8:
GREEK SMALL LETTER THETA:
    ......
    ......
    ..@@@.
    .@...@
    .@...@
    .@@@@@
    .@...@
    .@...@
    .@...@
    ..@@@.
    ......
    ......

u+03b9:
GREEK SMALL LETTER IOTA:
    ......
    ......
    ......
    ......
    ......
    ...@..
    ...@..
    ...@..
    ...@..
    ....@.
    ......
    ......

u+03ba:
GREEK SMALL LETTER KAPPA:
    ......
    ......
    ......
    ......
    ......
    ..@..@
    ..@.@.
    ..@@..
    ..@.@.
    ..@..@
    ......
    ......

u+03bb:
GREEK SMALL LETTER LAMDA:
    ......
    ......
    ..@...
    ...@..
    ...@..
    ...@..
    ..@.@.
    ..@.@.
    .@...@
    .@...@
    ......
    ......

u+03bc:
GREEK SMALL LETTER MU:
    ......
    ......
    ......
    ......
    ......
    .@...@
    .@...@
    .@...@
    .@...@
    .@@@@.
    .@....
    .@....

u+03bd:
GREEK SMALL LETTER NU:
    ......
    ......
    ......
    ......
    ......
    .@...@
    .@...@
    ..@..@
    ..@.@.
    ...@..
    ......
    ......

u+03be:
GREEK SMALL LETTER XI:
    ......
    ......
    ..@@@@
    ...@..
    ..@...
    ...@@.
    ..@...
    .@....
    .@....
    ..@@@.
    .....@
    ......

u+03bf:
GREEK SMALL LETTER OMICRON:
    ......
    ......
    ......
    ......
    ......
    ..@@@.
    .@...@
    .@...@
    .@...@
    ..@@@.
    ......
    ......

u+03c0:
GREEK SMALL LETTER PI:
    ......
    ......
    ......
    ......
    ......
    .@@@@@
    ..@.@.
    ..@.@.
    ..@.@.
    .@..@@
    ......
    ......

u+03c1:
GREEK SMALL LETTER RHO:
    ......
    ......
    ......
    ......
    ......
    ..@@@.
    .@...@
    .@...@
    .@...@
    .@@@@.
    .@....
    .@....

u+03c2:
GREEK SMALL LETTER FINAL SIGMA:
    ......
    ......
    ......
    ......
    ......
    ..@@@@
    .@....
    .@....
    .@....
    ..@@@.
    .....@
    ......

u+03c3:
GREEK SMALL LETTER SIGMA:
    ......
    ......
    ......
    ......
    ......
    ..@@@@
    .@..@.
    .@...@
    .@...@
    ..@@@.
    ......
    ......

u+03c4:
GREEK SMALL LETTER TAU:
    ......
    ......
    ......
    ......
    ......
    .@@@@@
    ...@..
    ...@..
    ...@..
    ....@.
    ......
    ......

u+03c5:
GREEK SMALL LETTER UPSILON:
    ......
    ......
    ......
    ......
    ......
    .@...@
    .@...@
    .@...@
    .@...@
    ..@@@.
    ......
    ......

u+03c6:
GREEK SMALL LETTER PHI:
    ......
    ......
    ......
    ......
    ......
    ....@.
    .@.@.@
    .@.@.@
    .@.@.@
    ..@@@.
    ...@..
    ...@..

u+03c7:
GREEK SMALL LETTER CHI:
    ......
    ......
    ......
    ......
    ......
    .@@..@
    ...@.@
    ...@@.
    ...@..
    ..@@..
    .@.@..
    .@..@@

u+03c8:
GREEK SMALL LETTER PSI:
    ......
    ......
    ......
    ...@..
    ...@..
    .@.@.@
    .@.@.@
    .@.@.@
    .@.@.@
    ..@@@.
    ...@..
    ...@..

u+03c9:
GREEK SMALL LETTER OMEGA:
    ......
    ......
    ......
    ......
    ......
    ..@.@.
    .@...@
    .@.@.@
    .@.@.@
    ..@.@.
    ......
    ......

u+03ca:
GREEK SMALL LETTER IOTA WITH DIALYTIKA:
    ......
    ......
    ......
    ..@.@.
    ......
    ...@..
    ...@..
    ...@..
    ...@..
    ....@.
    ......
    ......

u+03cb:
GREEK SMALL LETTER UPSILON WITH DIALYTIKA:
    ......
    ......
    ......
    ..@.@.
    ......
    .@...@
    .@...@
    .@...@
    .@...@
    ..@@@.
    ......
    ......

u+03cc:
GREEK SMALL LETTER OMICRON WITH TONOS:
    ......
    ......
    ....@.
    ...@..
    ......
    ..@@@.
    .@...@
    .@...@
    .@...@
    ..@@@.
    ......
    ......

u+03cd:
GREEK SMALL LETTER UPSILON WITH TONOS:
    ......
    ......
    ....@.
    ...@..
    ......
    .@...@
    .@...@
    .@...@
    .@...@
    ..@@@.
    ......
    ......

u+03ce:
GREEK SMALL LETTER OMEGA WITH TONOS:
    ......
    ......
    ....@.
    ...@..
    ......
    ..@.@.
    .@...@
    .@.@.@
    .@.@.@
    ..@.@.
    ......
    ......

u+0400:
CYRILLIC CAPITAL LETTER IE WITH GRAVE:
    ..@...
    ...@..
    ......
    .@@@@@
    .@....
    .@....
    .@@@..
    .@....
    .@....
    .@@@@@
    ......
    ......

u+0401:
CYRILLIC CAPITAL LETTER IO:
    ......
    ..@.@.
    ......
    .@@@@@
    .@....
    .@....
    .@@@..
    .@....
    .@....
    .@@@@@
    ......
    ......

u+0402:
CYRILLIC CAPITAL LETTER DJE:
    ......
    ......
    ......
    @@@@..
    .@....
    .@....
    .@@@@.
    .@...@
    .@...@
    .@...@
    ....@.
    ......

u+0403:
CYRILLIC CAPITAL LETTER GJE:
    ....@.
    ...@..
    ......
    .@@@@@
    .@....
    .@....
    .@....
    .@....
    .@....
    .@....
    ......
    ......

u+0404:
CYRILLIC CAPITAL LETTER UKRAINIAN IE:
    ......
    ......
    ......
    ..@@@@
    .@....
    .@....
    .@@@..
    .@....
    .@....
    ..@@@@
    ......
    ......

u+0405:
CYRILLIC CAPITAL LETTER DZE:
    ......
    ......
    ......
    ..@@@@
    .@....
    .@....
    ..@@@.
    .....@
    .....@
    .@@@@.
    ......
    ......

u+0406:
CYRILLIC CAPITAL LETTER BYELORUSSIAN-UKRAINIAN I:
    ......
    ......
    ......
    ..@@@.
    ...@..
    ...@..
    ...@..
    ...@..
    ...@..
    ..@@@.
    ......
    ......

u+0407:
CYRILLIC CAPITAL LETTER YI:
    ......
    ..@.@.
    ......
    ..@@@.
    ...@..
    ...@..
    ...@..
    ...@..
    ...@..
    ..@@@.
    ......
    ......

u+0408:
CYRILLIC CAPITAL LETTER JE:
    ......
    ......
    ......
    .....@
    .....@
    .....@
    .....@
    .....@
    .@...@
    ..@@@.
    ......
    ......

u+0409:
CYRILLIC CAPITAL LETTER LJE:
    ......
    ......
    ......
    ..@@..
    .@.@..
    .@.@..
    .@.@@.
    .@.@.@
    .@.@.@
    @..@@.
    ......
    ......

u+040a:
CYRILLIC CAPITAL LETTER NJE:
    ......
    ......
    ......
    .@.@..
    .@.@..
    .@.@..
    .@@@@.
    .@.@.@
    .@.@.@
    .@.@@.
    ......
    ......

u+040b:
CYRILLIC CAPITAL LETTER TSHE:
    ......
    ......
    ......
    @@@@..
    .@....
    .@....
    .@@@@.
    .@...@
    .@...@
    .@...@
    ......
    ......

u+040c:
CYRILLIC CAPITAL LETTER KJE:
    ....@.
    ...@..
    ......
    .@...@
    .@..@.
    .@.@..
    .@@...
    .@.@..
    .@..@.
    .@...@
    ......
    ......

u+040d:
CYRILLIC CAPITAL LETTER I WITH GRAVE:
    ..@...
    ...@..
    ......
    .@...@
    .@...@
    .@..@@
    .@.@.@
    .@@..@
    .@...@
    .@...@
    ......
    ......

u+040e:
CYRILLIC CAPITAL LETTER SHORT U:
    .@...@
    ..@@@.
    ......
    .@...@
    .@...@
    .@...@
    ..@@@@
    .....@
    .....@
    ...@@.
    ......
    ......

u+040f:
CYRILLIC CAPITAL LETTER DZHE:
    ......
    ......
    ......
    .@...@
    .@...@
    .@...@
    .@...@
    .@...@
    .@...@
    .@@@@@
    ...@..
    ......

u+0410:
CYRILLIC CAPITAL LETTER A:
    ......
    ......
    ......
    ..@@@.
    .@...@
    .@...@
    .@...@
    .@@@@@
    .@...@
    .@...@
    ......
    ......

u+0411:
CYRILLIC CAPITAL LETTER BE:
    ......
    ......
    ......
    .@@@@.
    .@....
    .@....
    .@@@@.
    .@...@
    .@...@
    .@@@@.
    ......
    ......

u+0412:
CYRILLIC CAPITAL LETTER VE:
    ......
    ......
    ......
    .@@@@.
    .@...@
    .@...@
    .@@@@.
    .@...@
    .@...@
    .@@@@.
    ......
    ......

u+0413:
CYRILLIC CAPITAL LETTER GHE:
    ......
    ......
    ......
    .@@@@@
    .@....
    .@....
    .@....
    .@....
    .@....
    .@....
    ......
    ......

u+0414:
CYRILLIC CAPITAL LETTER DE:
    ......
    ......
    ......
    ..@@@.
    .@..@.
    .@..@.
    .@..@.
    .@..@.
    .@..@.
    @@@@@@
    @....@
    ......

u+0415:
CYRILLIC CAPITAL LETTER IE:
    ......
    ......
    ......
    .@@@@@
    .@....
    .@....
    .@@@..
    .@....
    .@....
    .@@@@@
    ......
    ......

u+0416:
CYRILLIC CAPITAL LETTER ZHE:
    ......
    ......
    ......
    .@.@.@
    .@.@.@
    .@.@.@
    ..@@@.
    .@.@.@
    .@.@.@
    .@.@.@
    ......
    ......

u+0417:
CYRILLIC CAPITAL LETTER ZE:
    ......
    ......
    ......
    .@@@@.
    .....@
    .....@
    ...@@.
    .....@
    .....@
    .@@@@.
    ......
    ......

u+0418:
CYRILLIC CAPITAL LETTER I:
    ......
    ......
    ......
    .@...@
    .@...@
    .@..@@
    .@.@.@
    .@@..@
    .@...@
    .@...@
    ......
    ......

u+0419:
CYRILLIC CAPITAL LETTER SHORT I:
    .@...@
    ..@@@.
    ......
    .@...@
    .@...@
    .@..@@
    .@.@.@
    .@@..@
    .@...@
    .@...@
    ......
    ......

u+041a:
CYRILLIC CAPITAL LETTER KA:
    ......
    ......
    ......
    .@...@
    .@..@.
    .@.@..
    .@@...
    .@.@..
    .@..@.
    .@...@
    ......
    ......

u+041b:
CYRILLIC CAPITAL LETTER EL:
    ......
    ......
    ......
    ...@@@
    ..@..@
    ..@..@
    ..@..@
    ..@..@
    ..@..@
    .@...@
    ......
    ......

u+041c:
CYRILLIC CAPITAL LETTER EM:
    ......
    ......
    ......
    .@...@
    .@@.@@
    .@.@.@
    .@...@
    .@...@
    .@...@
    .@...@
    ......
    ......

u+041d:
CYRILLIC CAPITAL LETTER EN:
    ......
    ......
    ......
    .@...@
    .@...@
    .@...@
    .@@@@@
    .@...@
    .@...@
    .@...@
    ......
    ......

u+041e:
CYRILLIC CAPITAL LETTER O:
    ......
    ......
    ......
    ..@@@.
    .@...@
    .@...@
    .@...@
    .@...@
    .@...@
    ..@@@.
    ......
    ......

u+041f:
CYRILLIC CAPITAL LETTER PE:
    ......
    ......
    ......
    .@@@@@
    .@...@
    .@...@
    .@...@
    .@...@
    .@...@
    .@...@
    ......
    ......

u+0420:
CYRILLIC CAPITAL LETTER ER:
    ......
    ......
    ......
    .@@@@.
    .@...@
    .@...@
    .@...@
    .@@@@.
    .@....
    .@....
    ......
    ......

u+0421:
CYRILLIC CAPITAL LETTER ES:
    ......
    ......
    ......
    ..@@@@
    .@....
    .@....
    .@....
    .@....
    .@....
    ..@@@@
    ......
    ......

u+0422:
CYRILLIC CAPITAL LETTER TE:
    ......
    ......
    ......
    .@@@@@
    ...@..
    ...@..
    ...@..
    ...@..
    ...@..
    ...@..
    ......
    ......

u+0423:
CYRILLIC CAPITAL LETTER U:
    ......
    ......
    ......
    .@...@
    .@...@
    .@...@
    ..@@@@
    .....@
    .....@
    ...@@.
    ......
    ......

u+0424:
CYRILLIC CAPITAL LETTER EF:
    ......
    ......
    ......
    ...@..
    ..@@@.
    .@.@.@
    .@.@.@
    .@.@.@
    ..@@@.
    ...@..
    ......
    ......

u+0425:
CYRILLIC CAPITAL LETTER HA:
    ......
    ......
    ......
    .@...@
    .@...@
    ..@.@.
    ...@..
    ..@.@.
    .@...@
    .@...@
    ......
    ......

u+0426:
CYRILLIC CAPITAL LETTER TSE:
    ......
    ......
    ......
    .@...@
    .@...@
    .@...@
    .@...@
    .@...@
    .@...@
    .@@@@@
    .....@
    ......

u+0427:
CYRILLIC CAPITAL LETTER CHE:
    ......
    ......
    ......
    .@...@
    .@...@
    .@...@
    ..@@@@
    .....@
    .....@
    .....@
    ......
    ......

u+0428:
CYRILLIC CAPITAL LETTER SHA:
    ......
    ......
    ......
    .@.@.@
    .@.@.@
    .@.@.@
    .@.@.@
    .@.@.@
    .@.@.@
    .@@@@@
    ......
    ......

u+0429:
CYRILLIC CAPITAL LETTER SHCHA:
    ......
    ......
    ......
    .@.@.@
    .@.@.@
    .@.@.@
    .@.@.@
    .@.@.@
    .@.@.@
    .@@@@@
    .....@
    ......

u+042a:
CYRILLIC CAPITAL LETTER HARD SIGN:
    ......
    ......
    ......
    @@....
    .@....
    .@....
    .@@@@.
    .@...@
    .@...@
    .@@@@.
    ......
    ......

u+042b:
CYRILLIC CAPITAL LETTER YERU:
    ......
    ......
    ......
    .@...@
    .@...@
    .@...@
    .@@@.@
    .@..@@
    .@..@@
    .@@@.@
    ......
    ......

u+042c:
CYRILLIC CAPITAL LETTER SOFT SIGN:
    ......
    ......
    ......
    .@....
    .@....
    .@....
    .@@@@.
    .@...@
    .@...@
    .@@@@.
    ......
    ......

u+042d:
CYRILLIC CAPITAL LETTER E:
    ......
    ......
    ......
    .@@@@.
    .....@
    .....@
    ...@@@
    .....@
    .....@
    .@@@@.
    ......
    ......

u+042e:
CYRILLIC CAPITAL LETTER YU:
    ......
    ......
    ......
    .@..@.
    .@.@.@
    .@.@.@
    .@@@.@
    .@.@.@
    .@.@.@
    .@..@.
    ......
    ......

u+042f:
CYRILLIC CAPITAL LETTER YA:
    ......
    ......
    ......
    ..@@@@
    .@...@
    .@...@
    .@...@
    ..@@@@
    ..@..@
    .@...@
    ......
    ......

u+0430:
CYRILLIC SMALL LETTER A:
    ......
    ......
    ......
    ......
    ......
    ..@@@.
    .....@
    ..@@@@
    .@...@
    ..@@@@
    ......
    ......

u+0431:
CYRILLIC SMALL LETTER BE:
    ......
    .....@
    ...@@.
    ..@...
    .@....
    .@@@@.
    .@...@
    .@...@
    .@...@
    ..@@@.
    ......
    ......

u+0432:
CYRILLIC SMALL LETTER VE:
    ......
    ......
    ......
    ......
    ......
    .@@@@.
    .@...@
    .@@@@.
    .@...@
    .@@@@.
    ......
    ......

u+0433:
CYRILLIC SMALL LETTER GHE:
    ......
    ......
    ......
    ......
    ......
    .@@@@@
    .@....
    .@....
    .@....
    .@....
    ......
    ......

u+0434:
CYRILLIC SMALL LETTER DE:
    ......
    ......
    ......
    ......
    ......
    ...@@.
    ..@.@.
    ..@.@.
    ..@.@.
    .@@@@@
    .@...@
    ......

u+0435:
CYRILLIC SMALL LETTER IE:
    ......
    ......
    ......
    ......
    ......
    ..@@@.
    .@...@
    .@@@@@
    .@....
    ..@@@.
    ......
    ......

u+0436:
CYRILLIC SMALL LETTER ZHE:
    ......
    ......
    ......
    ......
    ......
    .@.@.@
    .@.@.@
    ..@@@.
    .@.@.@
    .@.@.@
    ......
    ......

u+0437:
CYRILLIC SMALL LETTER ZE:
    ......
    ......
    ......
    ......
    ......
    .@@@@.
    .....@
    ...@@.
    .....@
    .@@@@.
    ......
    ......

u+0438:
CYRILLIC SMALL LETTER I:
    ......
    ......
    ......
    ......
    ......
    .@...@
    .@..@@
    .@.@.@
    .@@..@
    .@...@
    ......
    ......

u+0439:
CYRILLIC SMALL LETTER SHORT I:
    ......
    ......
    .@...@
    ..@@@.
    ......
    .@...@
    .@..@@
    .@.@.@
    .@@..@
    .@...@
    ......
    ......

u+043a:
CYRILLIC SMALL LETTER KA:
    ......
    ......
    ......
    ......
    ......
    ..@..@
    ..@.@.
    ..@@..
    ..@.@.
    ..@..@
    ......
    ......

u+043b:
CYRILLIC SMALL LETTER EL:
    ......
    ......
    ......
    ......
    ......
    ...@@@
    ..@..@
    ..@..@
    ..@..@
    .@...@
    ......
    ......

u+043c:
CYRILLIC SMALL LETTER EM:
    ......
    ......
    ......
    ......
    ......
    .@...@
    .@@.@@
    .@.@.@
    .@...@
    .@...@
    ......
    ......

u+043d:
CYRILLIC SMALL LETTER EN:
    ......
    ......
    ......
    ......
    ......
    .@...@
    .@...@
    .@@@@@
    .@...@
    .@...@
    ......
    ......

u+043e:
CYRILLIC SMALL LETTER O:
    ......
    ......
    ......
    ......
    ......
    ..@@@.
    .@...@
    .@...@
    .@...@
    ..@@@.
    ......
    ......

u+043f:
CYRILLIC SMALL LETTER PE:
    ......
    ......
    ......
    ......
    ......
    .@@@@@
    .@...@
    .@...@
    .@...@
    .@...@
    ......
    ......

u+0440:
CYRILLIC SMALL LETTER ER:
    ......
    ......
    ......
    ......
    ......
    .@@@@.
    .@...@
    .@...@
    .@...@
    .@@@@.
    .@....
    .@....

u+0441:
CYRILLIC SMALL LETTER ES:
    ......
    ......
    ......
    ......
    ......
    ..@@@@
    .@....
    .@....
    .@....
    ..@@@@
    ......
    ......

u+0442:
CYRILLIC SMALL LETTER TE:
    ......
    ......
    ......
    ......
    ......
    .@@@@@
    ...@..
    ...@..
    ...@..
    ...@..
    ......
    ......

u+0443:
CYRILLIC SMALL LETTER U:
    ......
    ......
    ......
    ......
    ......
    .@...@
    .@...@
    .@...@
    .@...@
    ..@@@@
    .....@
    ...@@.

u+0444:
CYRILLIC SMALL LETTER EF:
    ......
    ......
    ......
    ...@..
    ...@..
    ..@@@.
    .@.@.@
    .@.@.@
    .@.@.@
    ..@@@.
    ...@..
    ...@..

u+0445:
CYRILLIC SMALL LETTER HA:
    ......
    ......
    ......
    ......
    ......
    .@...@
    ..@.@.
    ...@..
    ..@.@.
    .@...@
    ......
    ......

u+0446:
CYRILLIC SMALL LETTER TSE:
    ......
    ......
    ......
    ......
    ......
    .@..@.
    .@..@.
    .@..@.
    .@..@.
    .@@@@@
    .....@
    ......

u+0447:
CYRILLIC SMALL LETTER CHE:
    ......
    ......
    ......
    ......
    ......
    .@...@
    .@...@
    ..@@@@
    .....@
    .....@
    ......
    ......

u+0448:
CYRILLIC SMALL LETTER SHA:
    ......
    ......
    ......
    ......
    ......
    .@.@.@
    .@.@.@
    .@.@.@
    .@.@.@
    .@@@@@
    ......
    ......

u+0449:
CYRILLIC SMALL LETTER SHCHA:
    ......
    ......
    ......
    ......
    ......
    .@.@.@
    .@.@.@
    .@.@.@
    .@.@.@
    .@@@@@
    .....@
    ......

u+044a:
CYRILLIC SMALL LETTER HARD SIGN:
    ......
    ......
    ......
    ......
    ......
    @@....
    .@....
    .@@@@.
    .@...@
    .@@@@.
    ......
    ......

u+044b:
CYRILLIC SMALL LETTER YERU:
    ......
    ......
    ......
    ......
    ......
    .@...@
    .@...@
    .@@@.@
    .@..@@
    .@@@.@
    ......
    ......

u+044c:
CYRILLIC SMALL LETTER SOFT SIGN:
    ......
    ......
    ......
    ......
    ......
    .@....
    .@....
    .@@@@.
    .@...@
    .@@@@.
    ......
    ......

u+044d:
CYRILLIC SMALL LETTER E:
    ......
    ......
    ......
    ......
    ......
    .@@@@.
    .....@
    ...@@@
    .....@
    .@@@@.
    ......
    ......

u+044e:
CYRILLIC SMALL LETTER YU:
    ......
    ......
    ......
    ......
    ......
    .@..@.
    .@.@.@
    .@@@.@
    .@.@.@
    .@..@.
    ......
    ......

u+044f:
CYRILLIC SMALL LETTER YA:
    ......
    ......
    ......
    ......
    ......
    ..@@@@
    .@...@
    ..@@@@
    ..@..@
    .@...@
    ......
    ......

u+0450:
CYRILLIC SMALL LETTER IE WITH GRAVE:
    ......
    ......
    ..@...
    ...@..
    ......
    ..@@@.
    .@...@
    .@@@@@
    .@....
    ..@@@.
    ......
    ......

u+0451:
CYRILLIC SMALL LETTER IO:
    ......
    ......
    ......
    ..@.@.
    ......
    ..@@@.
    .@...@
    .@@@@@
    .@....
    ..@@@.
    ......
    ......

u+0452:
CYRILLIC SMALL LETTER DJE:
    ......
    ......
    .@....
    @@@@..
    .@....
    .@@@@.
    .@...@
    .@...@
    .@...@
    .@...@
    .....@
    ....@.

u+0453:
CYRILLIC SMALL LETTER GJE:
    ......
    ......
    ....@.
    ...@..
    ......
    .@@@@@
    .@....
    .@....
    .@....
    .@....
    ......
    ......

u+0454:
CYRILLIC SMALL LETTER UKRAINIAN IE:
    ......
    ......
    ......
    ......
    ......
    ..@@@@
    .@....
    .@@@..
    .@....
    ..@@@@
    ......
    ......

u+0455:
CYRILLIC SMALL LETTER DZE:
    ......
    ......
    ......
    ......
    ......
    ..@@@@
    .@....
    ..@@@.
    .....@
    .@@@@.
    ......
    ......

u+0456:
CYRILLIC SMALL LETTER BYELORUSSIAN-UKRAINIAN I:
    ......
    ......
    ......
    ...@..
    ......
    ..@@..
    ...@..
    ...@..
    ...@..
    ...@..
    ......
    ......

u+0457:
CYRILLIC SMALL LETTER YI:
    ......
    ......
    ......
    ..@.@.
    ......
    ..@@..
    ...@..
    ...@..
    ...@..
    ...@..
    ......
    ......

u+0458:
CYRILLIC SMALL LETTER JE:
    ......
    ......
    ......
    ...@..
    ......
    ..@@..
    ...@..
    ...@..
    ...@..
    ...@..
    ...@..
    ..@...

u+0459:
CYRILLIC SMALL LETTER LJE:
    ......
    ......
    ......
    ......
    ......
    ..@@..
    .@.@..
    .@.@@.
    .@.@.@
    @..@@.
    ......
    ......

u+045a:
CYRILLIC SMALL LETTER NJE:
    ......
    ......
    ......
    ......
    ......
    .@.@..
    .@.@..
    .@@@@.
    .@.@.@
    .@.@@.
    ......
    ......

u+045b:
CYRILLIC SMALL LETTER TSHE:
    ......
    ......
    .@....
    @@@@..
    .@....
    .@@@@.
    .@...@
    .@...@
    .@...@
    .@...@
    ......
    ......

u+045c:
CYRILLIC SMALL LETTER KJE:
    ......
    ......
    ....@.
    ...@..
    ......
    ..@..@
    ..@.@.
    ..@@..
    ..@.@.
    ..@..@
    ......
    ......

u+045d:
CYRILLIC SMALL LETTER I WITH GRAVE:
    ......
    ......
    ..@...
    ...@..
    ......
    .@...@
    .@..@@
    .@.@.@
    .@@..@
    .@...@
    ......
    ......

u+045e:
CYRILLIC SMALL LETTER SHORT U:
    ......
    ......
    .@...@
    ..@@@.
    ......
    .@...@
    .@...@
    .@...@
    .@...@
    ..@@@@
    .....@
    ...@@.

u+045f:
CYRILLIC SMALL LETTER DZHE:
    ......
    ......
    ......
    ......
    ......
    .@...@
    .@...@
    .@...@
    .@...@
    .@@@@@
    ...@..
    ...@..

u+0490:
CYRILLIC CAPITAL LETTER GHE WITH UPTURN:
    ......
    ......
    .....@
    .@@@@@
    .@....
    .@....
    .@....
    .@....
    .@....
    .@....
    ......
    ......

u+0491:
CYRILLIC SMALL LETTER GHE WITH UPTURN:
    ......
    ......
    ......
    ......
    .....@
    .@@@@@
    .@....
    .@....
    .@....
    .@....
    ......
    ......

u+0492:
CYRILLIC CAPITAL LETTER GHE WITH STROKE:
    ......
    ......
    ......
    .@@@@@
    .@....
    .@....
    @@@@..
    .@....
    .@....
    .@....
    ......
    ......

u+0493:
CYRILLIC SMALL LETTER GHE WITH STROKE:
    ......
    ......
    ......
    ......
    ......
    .@@@@@
    .@....
    @@@@..
    .@....
    .@....
    ......
    ......

u+049a:
CYRILLIC CAPITAL LETTER KA WITH DESCENDER:
    ......
    ......
    ......
    .@...@
    .@..@.
    .@.@..
    .@@...
    .@.@..
    .@..@.
    .@...@
    .....@
    ......

u+049b:
CYRILLIC SMALL LETTER KA WITH DESCENDER:
    ......
    ......
    ......
    ......
    ......
    ..@..@
    ..@.@.
    ..@@..
    ..@.@.
    ..@..@
    .....@
    ......

u+04a2:
CYRILLIC CAPITAL LETTER EN WITH DESCENDER:
    ......
    ......
    ......
    .@..@.
    .@..@.
    .@..@.
    .@@@@.
    .@..@.
    .@..@.
    .@..@@
    .....@
    ......

u+04a3:
CYRILLIC SMALL LETTER EN WITH DESCENDER:
    ......
    ......
    ......
    ......
    ......
    .@..@.
    .@..@.
    .@@@@.
    .@..@.
    .@..@@
    .....@
    ......

u+04b0:
CYRILLIC CAPITAL LETTER STRAIGHT U WITH STROKE:
    ......
    ......
    ......
    .@...@
    .@...@
    ..@.@.
    ...@..
    ..@@@.
    ...@..
    ...@..
    ......
    ......

u+04b1:
CYRILLIC SMALL LETTER STRAIGHT U WITH STROKE:
    ......
    ......
    ......
    ......
    ......
    .@...@
    .@...@
    ..@.@.
    ..@.@.
    ...@..
    ..@@@.
    ...@..

u+04ba:
CYRILLIC CAPITAL LETTER SHHA:
    ......
    ......
    ......
    .@....
    .@....
    .@....
    .@@@@.
    .@...@
    .@...@
    .@...@
    ......
    ......

u+04bb:
CYRILLIC SMALL LETTER SHHA:
    ......
    ......
    ......
    ......
    ......
    .@....
    .@....
    .@@@@.
    .@...@
    .@...@
    ......
    ......

u+04d8:
CYRILLIC CAPITAL LETTER SCHWA:
    ......
    ......
    ......
    ..@@@.
    .....@
    .....@
    .@@@@@
    .@...@
    .@...@
    ..@@@.
    ......
    ......

u+04d9:
CYRILLIC SMALL LETTER SCHWA:
    ......
    ......
    ......
    ......
    ......
    ..@@@.
    .....@
    .@@@@@
    .@...@
    ..@@@.
    ......
    ......

u+04e8:
CYRILLIC CAPITAL LETTER BARRED O:
    ......
    ......
    ......
    ..@@@.
    .@...@
    .@...@
    .@@@@@
    .@...@
    .@...@
    ..@@@.
    ......
    ......

u+04e9:
CYRILLIC SMALL LETTER BARRED O:
    ......
    ......
    ......
    ......
    ......
    ..@@@.
    .@...@
    .@@@@@
    .@...@
    ..@@@.
    ......
    ......

u+0531:
ARMENIAN CAPITAL LETTER AYB:
    ......
    ......
    ......
    .@...@
    .@...@
    .@...@
    .@...@
    .@.@.@
    .@..@.
    ..@@.@
    ......
    ......

u+0532:
ARMENIAN CAPITAL LETTER BEN:
    ......
    ......
    ......
    ..@@@@
    .@....
    .@....
    .@....
    .@@@@@
    .@....
    .@....
    ......
    ......

u+0533:
ARMENIAN CAPITAL LETTER GIM:
    ......
    ......
    ......
    ..@@..
    .@..@.
    .@..@.
    .@..@.
    ..@@@@
    ....@.
    ....@.
    ......
    ......

u+0534:
ARMENIAN CAPITAL LETTER DA:
    ......
    ......
    ......
    .@@@..
    ....@.
    ....@.
    ....@.
    ....@@
    ....@.
    ....@.
    ......
    ......

u+0535:
ARMENIAN CAPITAL LETTER ECH:
    ......
    ......
    ......
    .@....
    .@....
    .@@@@@
    .@....
    .@....
    .@....
    ..@@@@
    ......
    ......

u+0536:
ARMENIAN CAPITAL LETTER ZA:
    ......
    ......
    ......
    ..@@@.
    .@...@
    .@...@
    .....@
    .....@
    .@..@.
    .@@@@@
    ......
    ......

u+0537:
ARMENIAN CAPITAL LETTER EH:
    ......
    ......
    ......
    .@....
    .@....
    .@@@@@
    .@....
    .@....
    .@....
    .@@@@.
    ......
    ......

u+0538:
ARMENIAN CAPITAL LETTER ET:
    ......
    ......
    ......
    ..@@@@
    .@....
    .@....
    .@....
    .@....
    .@....
    .@@@@@
    ......
    ......

u+0539:
ARMENIAN CAPITAL LETTER TO:
    ......
    ......
    ......
    ..@@@.
    .@...@
    .@...@
    .@..@@
    .@.@.@
    .@.@.@
    .@..@.
    ......
    ......

u+053a:
ARMENIAN CAPITAL LETTER ZHE:
    ......
    ......
    ......
    ....@.
    ....@.
    ..@@@@
    .@..@.
    .@..@.
    .@..@.
    ..@@..
    ......
    ......

u+053b:
ARMENIAN CAPITAL LETTER INI:
    ......
    ......
    ......
    .@....
    .@....
    .@@@@.
    .@...@
    .@...@
    .@....
    .@....
    ......
    ......

u+053c:
ARMENIAN CAPITAL LETTER LIWN:
    ......
    ......
    ......
    .@....
    .@....
    .@....
    .@....
    .@....
    .@....
    .@@@@@
    ......
    ......

u+053d:
ARMENIAN CAPITAL LETTER XEH:
    ......
    ......
    ......
    .@....
    .@....
    .@@@.@
    .@.@.@
    .@.@.@
    .@.@.@
    .@..@.
    ......
    ......

u+053e:
ARMENIAN CAPITAL LETTER CA:
    ......
    ......
    ......
    .@..@@
    .@.@..
    .@@@@.
    ..@..@
    .@...@
    .@...@
    ..@@@.
    ......
    ......

u+053f:
ARMENIAN CAPITAL LETTER KEN:
    ......
    ......
    ......
    .@....
    .@....
    .@...@
    .@...@
    ..@@@@
    .....@
    .....@
    ......
    ......

u+0540:
ARMENIAN CAPITAL LETTER HO:
    ......
    ......
    ......
    ....@.
    .....@
    ....@@
    ..@@..
    .@....
    ..@@..
    ....@@
    ......
    ......

u+0541:
ARMENIAN CAPITAL LETTER JA:
    ......
    ......
    ......
    ..@@@.
    .@...@
    .....@
    .....@
    ..@@.@
    .@..@.
    ..@@.@
    ......
    ......

u+0542:
ARMENIAN CAPITAL LETTER GHAD:
    ......
    ......
    ......
    .@@@..
    ....@.
    ....@.
    ....@.
    ....@.
    ....@.
    ....@@
    ......
    ......

u+0543:
ARMENIAN CAPITAL LETTER CHEH:
    ......
    ......
    ......
    .@..@@
    ..@@..
    ..@@..
    ..@.@.
    .@..@.
    .@...@
    .@@@@@
    ......
    ......

u+0544:
ARMENIAN CAPITAL LETTER MEN:
    ......
    ......
    ......
    .@..@@
    .@..@.
    .@..@.
    .@..@.
    .@..@.
    .@..@.
    ..@@..
    ......
    ......

u+0545:
ARMENIAN CAPITAL LETTER YI:
    ......
    ......
    ......
    .@@@@.
    .....@
    .....@
    .@@@@.
    .....@
    .....@
    .@@@@.
    ......
    ......

u+0546:
ARMENIAN CAPITAL LETTER NOW:
    ......
    ......
    ......
    .@@...
    ..@...
    ..@...
    ..@...
    ..@...
    ..@...
    ...@@@
    ......
    ......

u+0547:
ARMENIAN CAPITAL LETTER SHA:
    ......
    ......
    ......
    .@@...
    ...@@.
    ..@@@@
    .@....
    .@....
    .@...@
    ..@@@.
    ......
    ......

u+0548:
ARMENIAN CAPITAL LETTER VO:
    ......
    ......
    ......
    ..@@@.
    .@...@
    .@...@
    .@...@
    .@...@
    .@...@
    .@...@
    ......
    ......

u+0549:
ARMENIAN CAPITAL LETTER CHA:
    ......
    ......
    ......
    ..@@@.
    .@...@
    .....@
    .....@
    ..@@@.
    .@@...
    ...@@.
    ......
    ......

u+054a:
ARMENIAN CAPITAL LETTER PEH:
    ......
    ......
    ......
    .@@@@.
    ...@.@
    ...@.@
    ...@.@
    .....@
    .....@
    .....@
    ......
    ......

u+054b:
ARMENIAN CAPITAL LETTER JHEH:
    ......
    ......
    ......
    ..@@@.
    .@...@
    .@...@
    ..@..@
    ...@.@
    .@.@@.
    .@@@@@
    ......
    ......

u+054c:
ARMENIAN CAPITAL LETTER RA:
    ......
    ......
    ......
    ..@@..
    .@..@.
    .@..@.
    .@..@.
    .@..@@
    .@..@.
    .@..@.
    ......
    ......

u+054d:
ARMENIAN CAPITAL LETTER SEH:
    ......
    ......
    ......
    .@...@
    .@...@
    .@...@
    .@...@
    .@...@
    .@...@
    ..@@@.
    ......
    ......

u+054e:
ARMENIAN CAPITAL LETTER VEW:
    ......
    ......
    ......
    ....@.
    ....@.
    .@..@.
    .@..@.
    ..@@@.
    ....@.
    ....@@
    ......
    ......

u+054f:
ARMENIAN CAPITAL LETTER TIWN:
    ......
    ......
    ......
    ..@@@@
    .@....
    .@....
    ..@@@.
    .....@
    .....@
    .@@@@.
    ......
    ......

u+0550:
ARMENIAN CAPITAL LETTER REH:
    ......
    ......
    ......
    ..@@@@
    .@....
    .@....
    .@....
    .@....
    .@....
    .@....
    ......
    ......

u+0551:
ARMENIAN CAPITAL LETTER CO:
    ......
    ......
    ......
    ..@@@.
    .@...@
    .@...@
    .@@@@.
    .....@
    .....@
    .@@@@.
    ......
    ......

u+0552:
ARMENIAN CAPITAL LETTER YIWN:
    ......
    ......
    ......
    .@....
    .@....
    .@@@@@
    .@....
    .@....
    .@....
    .@....
    ......
    ......

u+0553:
ARMENIAN CAPITAL LETTER PIWR:
    ......
    ......
    ......
    ...@..
    ..@@@.
    .@.@.@
    .@.@.@
    .@.@.@
    ..@@@.
    ...@..
    ......
    ......

u+0554:
ARMENIAN CAPITAL LETTER KEH:
    ......
    ......
    ......
    ...@@.
    ..@..@
    ..@..@
    ..@@@.
    ..@...
    .@@@@@
    ..@...
    ......
    ......

u+0555:
ARMENIAN CAPITAL LETTER OH:
    ......
    ......
    ......
    ..@@@.
    .@...@
    .@...@
    .@...@
    .@...@
    .@...@
    ..@@@.
    ......
    ......

u+0556:
ARMENIAN CAPITAL LETTER FEH:
    ......
    ......
    ......
    ..@@..
    .@.@..
    .@.@..
    ..@@@.
    ...@.@
    ...@.@
    .@@@@.
    ......
    ......

u+0559:
ARMENIAN MODIFIER LETTER LEFT HALF RING:
    ......
    ......
    ...@..
    ..@...
    ...@..
    ......
    ......
    ......
    ......
    ......
    ......
    ......

u+055a:
ARMENIAN APOSTROPHE:
    ......
    ......
    ...@..
    ...@..
    ..@...
    ......
    ......
    ......
    ......
    ......
    ......
    ......

u+055b:
ARMENIAN EMPHASIS MARK:
    ......
    ....@.
    ...@..
    ..@...
    ......
    ......
    ......
    ......
    ......
    ......
    ......
    ......

u+055c:
ARMENIAN EXCLAMATION MARK:
    ......
    .....@
    ..@@@.
    .@....
    ......
    ......
    ......
    ......
    ......
    ......
    ......
    ......

u+055d:
ARMENIAN COMMA:
    ......
    ..@...
    ...@..
    ....@.
    ......
    ......
    ......
    ......
    ......
    ......
    ......
    ......

u+055e:
ARMENIAN QUESTION MARK:
    ......
    ..@@@.
    .@...@
    .@.@@.
    ......
    ......
    ......
    ......
    ......
    ......
    ......
    ......

u+055f:
ARMENIAN ABBREVIATION MARK:
    ......
    ......
    .@....
    .@@@@@
    ......
    ......
    ......
    ......
    ......
    ......
    ......
    ......

u+0561:
ARMENIAN SMALL LETTER AYB:
    ......
    ......
    ......
    ......
    ......
    .@.@.@
    .@.@.@
    .@.@.@
    .@.@.@
    ..@.@@
    ......
    ......

u+0562:
ARMENIAN SMALL LETTER BEN:
    ......
    ......
    ......
    ......
    ......
    .@@@@.
    .@...@
    .@....
    .@....
    .@@@@@
    .@....
    .@....

u+0563:
ARMENIAN SMALL LETTER GIM:
    ......
    ......
    ......
    ......
    ......
    ..@@@.
    .@..@.
    .@..@.
    .@..@.
    ..@@@@
    ....@.
    ....@.

u+0564:
ARMENIAN SMALL LETTER DA:
    ......
    ......
    ......
    ......
    ......
    .@@@..
    .@..@.
    .@..@.
    .@..@.
    .@..@@
    ....@.
    ....@.

u+0565:
ARMENIAN SMALL LETTER ECH:
    ......
    ......
    .@....
    .@....
    .@....
    .@@@@@
    .@....
    .@...@
    .@...@
    ..@@@@
    ......
    ......

u+0566:
ARMENIAN SMALL LETTER ZA:
    ......
    ......
    ......
    ......
    ......
    ..@@@.
    .@..@.
    .@..@.
    .@..@.
    ..@@@.
    ....@.
    ....@@

u+0567:
ARMENIAN SMALL LETTER EH:
    ......
    ......
    .@....
    .@....
    .@....
    .@@@@@
    .@....
    .@....
    .@....
    .@@@@.
    ......
    ......

u+0568:
ARMENIAN SMALL LETTER ET:
    ......
    ......
    ......
    ......
    ......
    .@@@@.
    .@...@
    .@...@
    .@...@
    .@...@
    .@....
    .@@@@@

u+0569:
ARMENIAN SMALL LETTER TO:
    ......
    ......
    ......
    ......
    ......
    .@@@@.
    .@...@
    .@..@@
    .@.@.@
    .@..@.
    .@....
    .@....

u+056a:
ARMENIAN SMALL LETTER ZHE:
    ......
    ......
    ....@.
    ....@.
    ....@.
    ..@@@@
    .@..@.
    .@..@.
    .@..@.
    ..@@..
    ......
    ......

u+056b:
ARMENIAN SMALL LETTER INI:
    ......
    ......
    .@....
    .@....
    .@....
    .@@@@.
    .@...@
    .@...@
    .@...@
    .@...@
    .@....
    .@....

u+056c:
ARMENIAN SMALL LETTER LIWN:
    ......
    ......
    ......
    ..@...
    ..@...
    ..@...
    ..@...
    ..@...
    ..@...
    ..@...
    ..@...
    ..@@..

u+056d:
ARMENIAN SMALL LETTER XEH:
    ......
    ......
    .@....
    .@....
    .@....
    .@@..@
    .@.@.@
    .@.@.@
    .@.@.@
    .@..@.
    .@....
    .@....

u+056e:
ARMENIAN SMALL LETTER CA:
    ......
    ......
    ..@...
    .@....
    ..@...
    ..@@@@
    .@..@.
    .@...@
    .@...@
    ..@@@.
    ......
    ......

u+056f:
ARMENIAN SMALL LETTER KEN:
    ......
    ......
    .@....
    .@....
    .@....
    .@...@
    .@...@
    .@...@
    .@...@
    ..@@@@
    .....@
    .....@

u+0570:
ARMENIAN SMALL LETTER HO:
    ......
    ......
    .@....
    .@....
    .@....
    .@@@@.
    .@...@
    .@...@
    .@...@
    .@...@
    ......
    ......

u+0571:
ARMENIAN SMALL LETTER JA:
    ......
    ......
    ..@...
    .@....
    ..@.@@
    ..@@..
    .@..@.
    .@...@
    .@...@
    ..@@@.
    ......
    ......

u+0572:
ARMENIAN SMALL LETTER GHAD:
    ......
    ......
    ......
    ......
    ......
    .@@@..
    .@..@.
    .@..@.
    .@..@.
    .@..@.
    ....@.
    ....@@

u+0573:
ARMENIAN SMALL LETTER CHEH:
    ......
    ......
    ....@@
    ...@..
    ..@...
    .@@@@.
    ..@..@
    .@...@
    .@..@@
    ..@@.@
    ......
    ......

u+0574:
ARMENIAN SMALL LETTER MEN:
    ......
    ......
    ....@@
    ....@.
    ....@.
    .@..@.
    .@..@.
    .@..@.
    .@..@.
    ..@@@.
    ......
    ......

u+0575:
ARMENIAN SMALL LETTER YI:
    ......
    ......
    ......
    ......
    ......
    ...@..
    ...@..
    ...@..
    ...@..
    ...@..
    ...@..
    ..@...

u+0576:
ARMENIAN SMALL LETTER NOW:
    ......
    ......
    .@@...
    ..@...
    ..@...
    ..@..@
    ..@..@
    ..@..@
    ..@..@
    ...@@@
    ......
    ......

u+0577:
ARMENIAN SMALL LETTER SHA:
    ......
    ......
    ......
    ......
    ......
    .@@@@.
    .....@
    .....@
    ....@.
    ...@..
    ..@...
    .@@@@@

u+0578:
ARMENIAN SMALL LETTER VO:
    ......
    ......
    ......
    ......
    ......
    .@@@@.
    .@...@
    .@...@
    .@...@
    .@...@
    ......
    ......

u+0579:
ARMENIAN SMALL LETTER CHA:
    ......
    ......
    ......
    ..@...
    .@....
    ..@@@.
    ....@.
    ...@..
    ..@...
    .@....
    .@....
    .@@@@@

u+057a:
ARMENIAN SMALL LETTER PEH:
    ......
    ......
    ......
    ......
    ......
    .@.@.@
    .@.@.@
    .@.@.@
    .@.@.@
    ..@.@@
    .....@
    .....@

u+057b:
ARMENIAN SMALL LETTER JHEH:
    ......
    ......
    ......
    ......
    ......
    ..@@@.
    .@...@
    .@...@
    ..@.@.
    ...@..
    ..@...
    .@@@@@

u+057c:
ARMENIAN SMALL LETTER RA:
    ......
    ......
    ......
    ......
    ......
    .@@@@.
    .@...@
    .@...@
    .@..@.
    .@.@@@
    ......
    ......

u+057d:
ARMENIAN SMALL LETTER SEH:
    ......
    ......
    ......
    ......
    ......
    .@...@
    .@...@
    .@...@
    .@...@
    ..@@@@
    ......
    ......

u+057e:
ARMENIAN SMALL LETTER VEW:
    ......
    ......
    ....@.
    ....@.
    ....@.
    .@..@.
    .@..@.
    .@..@.
    .@..@.
    ..@@@.
    ....@.
    ....@@

u+057f:
ARMENIAN SMALL LETTER TIWN:
    ......
    ......
    ......
    ......
    ......
    .@.@@.
    .@.@.@
    .@.@.@
    .@.@.@
    ..@@.@
    ......
    ......

u+0580:
ARMENIAN SMALL LETTER REH:
    ......
    ......
    ......
    ......
    ......
    .@@@@.
    .@...@
    .@...@
    .@...@
    .@...@
    .@....
    .@....

u+0581:
ARMENIAN SMALL LETTER CO:
    ......
    ......
    ......
    ......
    ......
    ..@@@@
    .@...@
    .@...@
    .@...@
    ..@@@@
    .....@
    ..@@@.

u+0582:
ARMENIAN SMALL LETTER YIWN:
    ......
    ......
    ......
    ......
    ......
    ..@...
    ..@...
    ..@...
    ..@...
    ..@@@.
    ......
    ......

u+0583:
ARMENIAN SMALL LETTER PIWR:
    ......
    ......
    ...@..
    ...@..
    ...@..
    .@.@@.
    .@.@.@
    .@.@.@
    .@.@.@
    ..@@.@
    ...@..
    ...@..

u+0584:
ARMENIAN SMALL LETTER KEH:
    ......
    ......
    ......
    ......
    ......
    ..@@@.
    ..@..@
    ..@..@
    ..@..@
    ..@@@.
    ..@...
    .@@@@@

u+0585:
ARMENIAN SMALL LETTER OH:
    ......
    ......
    ......
    ......
    ......
    ..@@@.
    .@...@
    .@...@
    .@...@
    ..@@@.
    ......
    ......

u+0586:
ARMENIAN SMALL LETTER FEH:
    ......
    ......
    ..@@..
    .@.@..
    .@.@..
    ..@@@.
    ...@.@
    ...@.@
    ...@.@
    .@@@@.
    ...@..
    ...@..

u+0587:
ARMENIAN SMALL LIGATURE ECH YIWN:
    ......
    ......
    .@....
    .@....
    .@....
    .@.@..
    .@.@..
    .@.@..
    .@.@..
    ..@@@@
    ......
    ......

u+0589:
ARMENIAN FULL STOP:
    ......
    ......
    ......
    ......
    ......
    ...@..
    ......
    ......
    ......
    ...@..
    ......
    ......

u+058a:
ARMENIAN HYPHEN:
    ......
    ......
    ......
    ......
    ......
    ......
    .@...@
    ..@@@.
    ......
    ......
    ......
    ......

u+058d:
RIGHT-FACING ARMENIAN ETERNITY SIGN:
    ......
    ......
    ......
    ......
    .@@@@.
    @.@..@
    @.@@@@
    @@@@.@
    @..@.@
    .@@@@.
    ......
    ......

u+058e:
LEFT-FACING ARMENIAN ETERNITY SIGN:
    ......
    ......
    ......
    ......
    .@@@@.
    @..@.@
    @@@@.@
    @.@@@@
    @.@..@
    .@@@@.
    ......
    ......

u+058f:
ARMENIAN DRAM SIGN:
    ......
    ......
    ......
    .@@@..
    ....@.
    ....@.
    ...@@@
    ....@.
    ...@@@
    ....@.
    ......
    ......

u+05d0:
HEBREW LETTER ALEF:
    ......
    ......
    ......
    ......
    ......
    .@...@
    ..@..@
    .@.@.@
    .@..@.
    .@...@
    ......
    ......

u+05d1:
HEBREW LETTER BET:
    ......
    ......
    ......
    ......
    ......
    .@@@..
    ....@.
    ....@.
    ....@.
    .@@@@@
    ......
    ......

u+05d2:
HEBREW LETTER GIMEL:
    ......
    ......
    ......
    ......
    ......
    .@@@..
    ....@.
    ....@.
    ....@.
    .@@@.@
    ......
    ......

u+05d3:
HEBREW LETTER DALET:
    ......
    ......
    ......
    ......
    ......
    .@@@@@
    ....@.
    ....@.
    ....@.
    ....@.
    ......
    ......

u+05d4:
HEBREW LETTER HE:
    ......
    ......
    ......
    ......
    ......
    .@@@@.
    .....@
    .@...@
    .@...@
    .@...@
    ......
    ......

u+05d5:
HEBREW LETTER VAV:
    ......
    ......
    ......
    ......
    ......
    ...@..
    ...@..
    ...@..
    ...@..
    ...@..
    ......
    ......

u+05d6:
HEBREW LETTER ZAYIN:
    ......
    ......
    ......
    ......
    ......
    .@@@@@
    .....@
    ....@.
    ...@..
    ...@..
    ......
    ......

u+05d7:
HEBREW LETTER HET:
    ......
    ......
    ......
    ......
    ......
    .@@@@.
    .@...@
    .@...@
    .@...@
    .@...@
    ......
    ......

u+05d8:
HEBREW LETTER TET:
    ......
    ......
    ......
    ......
    ......
    .@.@@.
    .@...@
    .@...@
    .@...@
    ..@@@.
    ......
    ......

u+05d9:
HEBREW LETTER YOD:
    ......
    ......
    ......
    ......
    ......
    ...@..
    ...@..
    ...@..
    ......
    ......
    ......
    ......

u+05da:
HEBREW LETTER FINAL KAF:
    ......
    ......
    ......
    ......
    ......
    .@@@@.
    .....@
    .....@
    .....@
    .....@
    .....@
    .....@

u+05db:
HEBREW LETTER KAF:
    ......
    ......
    ......
    ......
    ......
    .@@@@.
    .....@
    .....@
    .....@
    .@@@@.
    ......
    ......

u+05dc:
HEBREW LETTER LAMED:
    ......
    ......
    ......
    ......
    .@....
    .@@@@@
    .....@
    ....@.
    ...@..
    ..@...
    ......
    ......

u+05dd:
HEBREW LETTER FINAL MEM:
    ......
    ......
    ......
    ......
    ......
    .@@@@.
    .@...@
    .@...@
    .@...@
    .@@@@@
    ......
    ......

u+05de:
HEBREW LETTER MEM:
    ......
    ......
    ......
    ......
    ......
    .@.@@.
    ..@..@
    ..@..@
    .@...@
    .@.@@@
    ......
    ......

u+05df:
HEBREW LETTER FINAL NUN:
    ......
    ......
    ......
    ......
    ......
    ...@..
    ...@..
    ...@..
    ...@..
    ...@..
    ...@..
    ...@..

u+05e0:
HEBREW LETTER NUN:
    ......
    ......
    ......
    ......
    ......
    .@@@@.
    .....@
    .....@
    .....@
    .@@@@@
    ......
    ......

u+05e1:
HEBREW LETTER SAMEKH:
    ......
    ......
    ......
    ......
    ......
    .@@@@.
    .@...@
    .@...@
    .@...@
    ..@@@.
    ......
    ......

u+05e2:
HEBREW LETTER AYIN:
    ......
    ......
    ......
    ......
    ......
    .@...@
    .@...@
    ..@..@
    ..@..@
    .@@@@.
    ......
    ......

u+05e3:
HEBREW LETTER FINAL PE:
    ......
    ......
    ......
    ......
    ......
    .@@@@.
    .@...@
    ..@@.@
    .....@
    .....@
    .....@
    .....@

u+05e4:
HEBREW LETTER PE:
    ......
    ......
    ......
    ......
    ......
    .@@@@.
    .@...@
    ..@@.@
    .....@
    .@@@@.
    ......
    ......

u+05e5:
HEBREW LETTER FINAL TSADI:
    ......
    ......
    ......
    ......
    ......
    .@...@
    ..@..@
    ...@@.
    ...@..
    ...@..
    ...@..
    ...@..

u+05e6:
HEBREW LETTER TSADI:
    ......
    ......
    ......
    ......
    ......
    .@...@
    ..@..@
    ...@@.
    ....@.
    .@@@@@
    ......
    ......

u+05e7:
HEBREW LETTER QOF:
    ......
    ......
    ......
    ......
    ......
    .@@@@@
    .....@
    .@...@
    .@..@.
    .@.@..
    .@....
    .@....

u+05e8:
HEBREW LETTER RESH:
    ......
    ......
    ......
    ......
    ......
    .@@@@.
    .....@
    .....@
    .....@
    .....@
    ......
    ......

u+05e9:
HEBREW LETTER SHIN:
    ......
    ......
    ......
    ......
    ......
    .@.@.@
    .@.@.@
    .@@..@
    .@...@
    .@@@@.
    ......
    ......

u+05ea:
HEBREW LETTER TAV:
    ......
    ......
    ......
    ......
    ......
    .@@@@.
    ..@..@
    ..@..@
    ..@..@
    .@...@
    ......
    ......

u+0ca0:
KANNADA LETTER TTHA:
    ......
    ......
    ......
    .....@
    .....@
    .@@@@.
    .@...@
    .@.@.@
    .@...@
    ..@@@.
    ......
    ......

u+1e02:
LATIN CAPITAL LETTER B WITH DOT ABOVE:
    ......
    ...@..
    ......
    .@@@@.
    .@...@
    .@...@
    .@@@@.
    .@...@
    .@...@
    .@@@@.
    ......
    ......

u+1e03:
LATIN SMALL LETTER B WITH DOT ABOVE:
    .@....
    ......
    .@....
    .@....
    .@....
    .@@@@.
    .@...@
    .@...@
    .@...@
    .@@@@.
    ......
    ......

u+1e0a:
LATIN CAPITAL LETTER D WITH DOT ABOVE:
    ......
    ...@..
    ......
    .@@@@.
    .@...@
    .@...@
    .@...@
    .@...@
    .@...@
    .@@@@.
    ......
    ......

u+1e0b:
LATIN SMALL LETTER D WITH DOT ABOVE:
    .....@
    ......
    .....@
    .....@
    .....@
    ..@@@@
    .@...@
    .@...@
    .@...@
    ..@@@@
    ......
    ......

u+1e1e:
LATIN CAPITAL LETTER F WITH DOT ABOVE:
    ......
    ...@..
    ......
    .@@@@@
    .@....
    .@....
    .@@@..
    .@....
    .@....
    .@....
    ......
    ......

u+1e1f:
LATIN SMALL LETTER F WITH DOT ABOVE:
    ...@..
    ......
    ...@@.
    ..@...
    ..@...
    ..@@..
    ..@...
    ..@...
    ..@...
    ..@...
    ......
    ......

u+1e40:
LATIN CAPITAL LETTER M WITH DOT ABOVE:
    ......
    ...@..
    ......
    .@...@
    .@@.@@
    .@.@.@
    .@...@
    .@...@
    .@...@
    .@...@
    ......
    ......

u+1e41:
LATIN SMALL LETTER M WITH DOT ABOVE:
    ......
    ......
    ......
    ...@..
    ......
    .@@.@.
    .@.@.@
    .@.@.@
    .@.@.@
    .@...@
    ......
    ......

u+1e56:
LATIN CAPITAL LETTER P WITH DOT ABOVE:
    ......
    ...@..
    ......
    .@@@@.
    .@...@
    .@...@
    .@...@
    .@@@@.
    .@....
    .@....
    ......
    ......

u+1e57:
LATIN SMALL LETTER P WITH DOT ABOVE:
    ......
    ......
    ......
    ...@..
    ......
    .@@@@.
    .@...@
    .@...@
    .@...@
    .@@@@.
    .@....
    .@....

u+1e60:
LATIN CAPITAL LETTER S WITH DOT ABOVE:
    ......
    ...@..
    ......
    ..@@@@
    .@....
    .@....
    ..@@@.
    .....@
    .....@
    .@@@@.
    ......
    ......

u+1e61:
LATIN SMALL LETTER S WITH DOT ABOVE:
    ......
    ......
    ......
    ...@..
    ......
    ..@@@@
    .@....
    ..@@@.
    .....@
    .@@@@.
    ......
    ......

u+1e6a:
LATIN CAPITAL LETTER T WITH DOT ABOVE:
    ......
    ...@..
    ......
    .@@@@@
    ...@..
    ...@..
    ...@..
    ...@..
    ...@..
    ...@..
    ......
    ......

u+1e6b:
LATIN SMALL LETTER T WITH DOT ABOVE:
    ..@...
    ......
    ..@...
    ..@...
    ..@...
    .@@@..
    ..@...
    ..@...
    ..@...
    ...@@.
    ......
    ......

u+1e80:
LATIN CAPITAL LETTER W WITH GRAVE:
    ..@...
    ...@..
    ......
    .@...@
    .@...@
    .@...@
    .@...@
    .@.@.@
    .@@.@@
    .@...@
    ......
    ......

u+1e81:
LATIN SMALL LETTER W WITH GRAVE:
    ......
    ......
    ..@...
    ...@..
    ......
    .@...@
    .@...@
    .@.@.@
    .@@.@@
    .@...@
    ......
    ......

u+1e82:
LATIN CAPITAL LETTER W WITH ACUTE:
    ....@.
    ...@..
    ......
    .@...@
    .@...@
    .@...@
    .@...@
    .@.@.@
    .@@.@@
    .@...@
    ......
    ......

u+1e83:
LATIN SMALL LETTER W WITH ACUTE:
    ......
    ......
    ....@.
    ...@..
    ......
    .@...@
    .@...@
    .@.@.@
    .@@.@@
    .@...@
    ......
    ......

u+1e84:
LATIN CAPITAL LETTER W WITH DIAERESIS:
    ......
    ..@.@.
    ......
    .@...@
    .@...@
    .@...@
    .@...@
    .@.@.@
    .@@.@@
    .@...@
    ......
    ......

u+1e85:
LATIN SMALL LETTER W WITH DIAERESIS:
    ......
    ......
    ......
    ..@.@.
    ......
    .@...@
    .@...@
    .@.@.@
    .@@.@@
    .@...@
    ......
    ......

u+1ea0:
LATIN CAPITAL LETTER A WITH DOT BELOW:
    ......
    ......
    ......
    ..@@@.
    .@...@
    .@...@
    .@...@
    .@@@@@
    .@...@
    .@...@
    ......
    ...@..

u+1ea1:
LATIN SMALL LETTER A WITH DOT BELOW:
    ......
    ......
    ......
    ......
    ......
    ..@@@.
    .....@
    ..@@@@
    .@...@
    ..@@@@
    ......
    ...@..

u+1ea2:
LATIN CAPITAL LETTER A WITH HOOK ABOVE:
    ..@@..
    ....@.
    ...@..
    ..@@@.
    .@...@
    .@...@
    .@...@
    .@@@@@
    .@...@
    .@...@
    ......
    ......

u+1ea3:
LATIN SMALL LETTER A WITH HOOK ABOVE:
    ......
    ..@@..
    ....@.
    ...@..
    ......
    ..@@@.
    .....@
    ..@@@@
    .@...@
    ..@@@@
    ......
    ......

u+1ea4:
LATIN CAPITAL LETTER A WITH CIRCUMFLEX AND ACUTE:
    .@...@
    @.@.@.
    ......
    ..@@@.
    .@...@
    .@...@
    .@...@
    .@@@@@
    .@...@
    .@...@
    ......
    ......

u+1ea5:
LATIN SMALL LETTER A WITH CIRCUMFLEX AND ACUTE:
    .....@
    ....@.
    ..@...
    .@.@..
    ......
    ..@@@.
    .....@
    ..@@@@
    .@...@
    ..@@@@
    ......
    ......

u+1ea6:
LATIN CAPITAL LETTER A WITH CIRCUMFLEX AND GRAVE:
    @...@.
    .@.@.@
    ......
    ..@@@.
    .@...@
    .@...@
    .@...@
    .@@@@@
    .@...@
    .@...@
    ......
    ......

u+1ea7:
LATIN SMALL LETTER A WITH CIRCUMFLEX AND GRAVE:
    .@....
    ..@...
    ....@.
    ...@.@
    ......
    ..@@@.
    .....@
    ..@@@@
    .@...@
    ..@@@@
    ......
    ......

u+1ea8:
LATIN CAPITAL LETTER A WITH CIRCUMFLEX AND HOOK ABOVE:
    .@.@@.
    @.@..@
    ....@.
    ..@@@.
    .@...@
    .@...@
    .@...@
    .@@@@@
    .@...@
    .@...@
    ......
    ......

u+1ea9:
LATIN SMALL LETTER A WITH CIRCUMFLEX AND HOOK ABOVE:
    ...@@.
    .....@
    ..@.@.
    .@.@..
    ......
    ..@@@.
    .....@
    ..@@@@
    .@...@
    ..@@@@
    ......
    ......

u+1eaa:
LATIN CAPITAL LETTER A WITH CIRCUMFLEX AND TILDE:
    ..@.@.
    .@.@..
    ..@.@.
    ..@@@.
    .@...@
    .@...@
    .@...@
    .@@@@@
    .@...@
    .@...@
    ......
    ......

u+1eab:
LATIN SMALL LETTER A WITH CIRCUMFLEX AND TILDE:
    ...@.@
    ..@.@.
    ...@..
    ..@.@.
    ......
    ..@@@.
    .....@
    ..@@@@
    .@...@
    ..@@@@
    ......
    ......

u+1eac:
LATIN CAPITAL LETTER A WITH CIRCUMFLEX AND DOT BELOW:
    ...@..
    ..@.@.
    ......
    ..@@@.
    .@...@
    .@...@
    .@...@
    .@@@@@
    .@...@
    .@...@
    ......
    ...@..

u+1ead:
LATIN SMALL LETTER A WITH CIRCUMFLEX AND DOT BELOW:
    ......
    ......
    ...@..
    ..@.@.
    ......
    ..@@@.
    .....@
    ..@@@@
    .@...@
    ..@@@@
    ......
    ...@..

u+1eae:
LATIN CAPITAL LETTER A WITH BREVE AND ACUTE:
    ....@.
    ...@..
    .@...@
    ..@@@.
    .@...@
    .@...@
    .@...@
    .@@@@@
    .@...@
    .@...@
    ......
    ......

u+1eaf:
LATIN SMALL LETTER A WITH BREVE AND ACUTE:
    ....@.
    ...@..
    .@...@
    ..@@@.
    ......
    ..@@@.
    .....@
    ..@@@@
    .@...@
    ..@@@@
    ......
    ......

u+1eb0:
LATIN CAPITAL LETTER A WITH BREVE AND GRAVE:
    ..@...
    ...@..
    .@...@
    ..@@@.
    .@...@
    .@...@
    .@...@
    .@@@@@
    .@...@
    .@...@
    ......
    ......

u+1eb1:
LATIN SMALL LETTER A WITH BREVE AND GRAVE:
    ..@...
    ...@..
    .@...@
    ..@@@.
    ......
    ..@@@.
    .....@
    ..@@@@
    .@...@
    ..@@@@
    ......
    ......

u+1eb2:
LATIN CAPITAL LETTER A WITH BREVE AND HOOK ABOVE:
    ..@@..
    ....@.
    .@.@.@
    ..@@@.
    .@...@
    .@...@
    .@...@
    .@@@@@
    .@...@
    .@...@
    ......
    ......

u+1eb3:
LATIN SMALL LETTER A WITH BREVE AND HOOK ABOVE:
    ..@@..
    ....@.
    .@.@.@
    ..@@@.
    ......
    ..@@@.
    .....@
    ..@@@@
    .@...@
    ..@@@@
    ......
    ......

u+1eb4:
LATIN CAPITAL LETTER A WITH BREVE AND TILDE:
    ...@.@
    ..@.@.
    .@...@
    ..@@@.
    .@...@
    .@...@
    .@...@
    .@@@@@
    .@...@
    .@...@
    ......
    ......

u+1eb5:
LATIN SMALL LETTER A WITH BREVE AND TILDE:
    ...@.@
    ..@.@.
    .@...@
    ..@@@.
    ......
    ..@@@.
    .....@
    ..@@@@
    .@...@
    ..@@@@
    ......
    ......

u+1eb6:
LATIN CAPITAL LETTER A WITH BREVE AND DOT BELOW:
    .@...@
    ..@@@.
    ......
    ..@@@.
    .@...@
    .@...@
    .@...@
    .@@@@@
    .@...@
    .@...@
    ......
    ...@..

u+1eb7:
LATIN SMALL LETTER A WITH BREVE AND DOT BELOW:
    ......
    ......
    ..@..@
    ...@@.
    ......
    ..@@@.
    .....@
    ..@@@@
    .@...@
    ..@@@@
    ......
    ...@..

u+1eb8:
LATIN CAPITAL LETTER E WITH DOT BELOW:
    ......
    ......
    ......
    .@@@@@
    .@....
    .@....
    .@@@..
    .@....
    .@....
    .@@@@@
    ......
    ...@..

u+1eb9:
LATIN SMALL LETTER E WITH DOT BELOW:
    ......
    ......
    ......
    ......
    ......
    ..@@@.
    .@...@
    .@@@@@
    .@....
    ..@@@.
    ......
    ...@..

u+1eba:
LATIN CAPITAL LETTER E WITH HOOK ABOVE:
    ..@@..
    ....@.
    ...@..
    .@@@@@
    .@....
    .@....
    .@@@..
    .@....
    .@....
    .@@@@@
    ......
    ......

u+1ebb:
LATIN SMALL LETTER E WITH HOOK ABOVE:
    ......
    ..@@..
    ....@.
    ...@..
    ......
    ..@@@.
    .@...@
    .@@@@@
    .@....
    ..@@@.
    ......
    ......

u+1ebc:
LATIN CAPITAL LETTER E WITH TILDE:
    ...@.@
    ..@.@.
    ......
    .@@@@@
    .@....
    .@....
    .@@@..
    .@....
    .@....
    .@@@@@
    ......
    ......

u+1ebd:
LATIN SMALL LETTER E WITH TILDE:
    ......
    ......
    ...@.@
    ..@.@.
    ......
    ..@@@.
    .@...@
    .@@@@@
    .@....
    ..@@@.
    ......
    ......

u+1ebe:
LATIN CAPITAL LETTER E WITH CIRCUMFLEX AND ACUTE:
    .@...@
    @.@.@.
    ......
    .@@@@@
    .@....
    .@....
    .@@@..
    .@....
    .@....
    .@@@@@
    ......
    ......

u+1ebf:
LATIN SMALL LETTER E WITH CIRCUMFLEX AND ACUTE:
    .....@
    ....@.
    ..@...
    .@.@..
    ......
    ..@@@.
    .@...@
    .@@@@@
    .@....
    ..@@@.
    ......
    ......

u+1ec0:
LATIN CAPITAL LETTER E WITH CIRCUMFLEX AND GRAVE:
    @...@.
    .@.@.@
    ......
    .@@@@@
    .@....
    .@....
    .@@@..
    .@....
    .@....
    .@@@@@
    ......
    ......

u+1ec1:
LATIN SMALL LETTER E WITH CIRCUMFLEX AND GRAVE:
    .@....
    ..@...
    ....@.
    ...@.@
    ......
    ..@@@.
    .@...@
    .@@@@@
    .@....
    ..@@@.
    ......
    ......

u+1ec2:
LATIN CAPITAL LETTER E WITH CIRCUMFLEX AND HOOK ABOVE:
    .@.@@.
    @.@..@
    ....@.
    .@@@@@
    .@....
    .@....
    .@@@..
    .@....
    .@....
    .@@@@@
    ......
    ......

u+1ec3:
LATIN SMALL LETTER E WITH CIRCUMFLEX AND HOOK ABOVE:
    ...@@.
    .....@
    ..@.@.
    .@.@..
    ......
    ..@@@.
    .@...@
    .@@@@@
    .@....
    ..@@@.
    ......
    ......

u+1ec4:
LATIN CAPITAL LETTER E WITH CIRCUMFLEX AND TILDE:
    ..@.@.
    .@.@..
    ..@.@.
    .@@@@@
    .@....
    .@....
    .@@@..
    .@....
    .@....
    .@@@@@
    ......
    ......

u+1ec5:
LATIN SMALL LETTER E WITH CIRCUMFLEX AND TILDE:
    ...@.@
    ..@.@.
    ...@..
    ..@.@.
    ......
    ..@@@.
    .@...@
    .@@@@@
    .@....
    ..@@@.
    ......
    ......

u+1ec6:
LATIN CAPITAL LETTER E WITH CIRCUMFLEX AND DOT BELOW:
    ...@..
    ..@.@.
    ......
    .@@@@@
    .@....
    .@....
    .@@@..
    .@....
    .@....
    .@@@@@
    ......
    ...@..

u+1ec7:
LATIN SMALL LETTER E WITH CIRCUMFLEX AND DOT BELOW:
    ......
    ......
    ...@..
    ..@.@.
    ......
    ..@@@.
    .@...@
    .@@@@@
    .@....
    ..@@@.
    ......
    ...@..

u+1ec8:
LATIN CAPITAL LETTER I WITH HOOK ABOVE:
    ..@@..
    ....@.
    ...@..
    ..@@@.
    ...@..
    ...@..
    ...@..
    ...@..
    ...@..
    ..@@@.
    ......
    ......

u+1ec9:
LATIN SMALL LETTER I WITH HOOK ABOVE:
    ......
    ..@@..
    ....@.
    ...@..
    ......
    ..@@..
    ...@..
    ...@..
    ...@..
    ...@..
    ......
    ......

u+1eca:
LATIN CAPITAL LETTER I WITH DOT BELOW:
    ......
    ......
    ......
    ..@@@.
    ...@..
    ...@..
    ...@..
    ...@..
    ...@..
    ..@@@.
    ......
    ...@..

u+1ecb:
LATIN SMALL LETTER I WITH DOT BELOW:
    ......
    ......
    ......
    ...@..
    ......
    ..@@..
    ...@..
    ...@..
    ...@..
    ...@..
    ......
    ...@..

u+1ecc:
LATIN CAPITAL LETTER O WITH DOT BELOW:
    ......
    ......
    ......
    ..@@@.
    .@...@
    .@...@
    .@...@
    .@...@
    .@...@
    ..@@@.
    ......
    ...@..

u+1ecd:
LATIN SMALL LETTER O WITH DOT BELOW:
    ......
    ......
    ......
    ......
    ......
    ..@@@.
    .@...@
    .@...@
    .@...@
    ..@@@.
    ......
    ...@..

u+1ece:
LATIN CAPITAL LETTER O WITH HOOK ABOVE:
    ..@@..
    ....@.
    ...@..
    ..@@@.
    .@...@
    .@...@
    .@...@
    .@...@
    .@...@
    ..@@@.
    ......
    ......

u+1ecf:
LATIN SMALL LETTER O WITH HOOK ABOVE:
    ......
    ..@@..
    ....@.
    ...@..
    ......
    ..@@@.
    .@...@
    .@...@
    .@...@
    ..@@@.
    ......
    ......

u+1ed0:
LATIN CAPITAL LETTER O WITH CIRCUMFLEX AND ACUTE:
    .@...@
    @.@.@.
    ......
    ..@@@.
    .@...@
    .@...@
    .@...@
    .@...@
    .@...@
    ..@@@.
    ......
    ......

u+1ed1:
LATIN SMALL LETTER O WITH CIRCUMFLEX AND ACUTE:
    .....@
    ....@.
    ..@...
    .@.@..
    ......
    ..@@@.
    .@...@
    .@...@
    .@...@
    ..@@@.
    ......
    ......

u+1ed2:
LATIN CAPITAL LETTER O WITH CIRCUMFLEX AND GRAVE:
    @...@.
    .@.@.@
    ......
    ..@@@.
    .@...@
    .@...@
    .@...@
    .@...@
    .@...@
    ..@@@.
    ......
    ......

u+1ed3:
LATIN SMALL LETTER O WITH CIRCUMFLEX AND GRAVE:
    .@....
    ..@...
    ....@.
    ...@.@
    ......
    ..@@@.
    .@...@
    .@...@
    .@...@
    ..@@@.
    ......
    ......

u+1ed4:
LATIN CAPITAL LETTER O WITH CIRCUMFLEX AND HOOK ABOVE:
    .@.@@.
    @.@..@
    ....@.
    ..@@@.
    .@...@
    .@...@
    .@...@
    .@...@
    .@...@
    ..@@@.
    ......
    ......

u+1ed5:
LATIN SMALL LETTER O WITH CIRCUMFLEX AND HOOK ABOVE:
    ...@@.
    .....@
    ..@.@.
    .@.@..
    ......
    ..@@@.
    .@...@
    .@...@
    .@...@
    ..@@@.
    ......
    ......

u+1ed6:
LATIN CAPITAL LETTER O WITH CIRCUMFLEX AND TILDE:
    ..@.@.
    .@.@..
    ..@.@.
    ..@@@.
    .@...@
    .@...@
    .@...@
    .@...@
    .@...@
    ..@@@.
    ......
    ......

u+1ed7:
LATIN SMALL LETTER O WITH CIRCUMFLEX AND TILDE:
    ...@.@
    ..@.@.
    ...@..
    ..@.@.
    ......
    ..@@@.
    .@...@
    .@...@
    .@...@
    ..@@@.
    ......
    ......

u+1ed8:
LATIN CAPITAL LETTER O WITH CIRCUMFLEX AND DOT BELOW:
    ...@..
    ..@.@.
    ......
    ..@@@.
    .@...@
    .@...@
    .@...@
    .@...@
    .@...@
    ..@@@.
    ......
    ...@..

u+1ed9:
LATIN SMALL LETTER O WITH CIRCUMFLEX AND DOT BELOW:
    ......
    ......
    ...@..
    ..@.@.
    ......
    ..@@@.
    .@...@
    .@...@
    .@...@
    ..@@@.
    ......
    ...@..

u+1eda:
LATIN CAPITAL LETTER O WITH HORN AND ACUTE:
    ...@..
    ..@...
    .....@
    ..@@.@
    .@..@@
    .@..@.
    .@..@.
    .@..@.
    .@..@.
    ..@@..
    ......
    ......

u+1edb:
LATIN SMALL LETTER O WITH HORN AND ACUTE:
    ......
    ......
    ...@..
    ..@...
    .....@
    ..@@.@
    .@..@@
    .@..@.
    .@..@.
    ..@@..
    ......
    ......

u+1edc:
LATIN CAPITAL LETTER O WITH HORN AND GRAVE:
    ..@...
    ...@..
    .....@
    ..@@.@
    .@..@@
    .@..@.
    .@..@.
    .@..@.
    .@..@.
    ..@@..
    ......
    ......

u+1edd:
LATIN SMALL LETTER O WITH HORN AND GRAVE:
    ......
    ......
    ..@...
    ...@..
    .....@
    ..@@.@
    .@..@@
    .@..@.
    .@..@.
    ..@@..
    ......
    ......

u+1ede:
LATIN CAPITAL LETTER O WITH HORN AND HOOK ABOVE:
    .@@...
    ...@..
    ..@..@
    ..@@.@
    .@..@@
    .@..@.
    .@..@.
    .@..@.
    .@..@.
    ..@@..
    ......
    ......

u+1edf:
LATIN SMALL LETTER O WITH HORN AND HOOK ABOVE:
    ......
    .@@...
    ...@..
    ..@...
    .....@
    ..@@.@
    .@..@@
    .@..@.
    .@..@.
    ..@@..
    ......
    ......

u+1ee0:
LATIN CAPITAL LETTER O WITH HORN AND TILDE:
    ..@.@.
    .@.@..
    .....@
    ..@@.@
    .@..@@
    .@..@.
    .@..@.
    .@..@.
    .@..@.
    ..@@..
    ......
    ......

u+1ee1:
LATIN SMALL LETTER O WITH HORN AND TILDE:
    ......
    ......
    ..@.@.
    .@.@..
    .....@
    ..@@.@
    .@..@@
    .@..@.
    .@..@.
    ..@@..
    ......
    ......

u+1ee2:
LATIN CAPITAL LETTER O WITH HORN AND DOT BELOW:
    ......
    ......
    .....@
    ..@@.@
    .@..@@
    .@..@.
    .@..@.
    .@..@.
    .@..@.
    ..@@..
    ......
    ...@..

u+1ee3:
LATIN SMALL LETTER O WITH HORN AND DOT BELOW:
    ......
    ......
    ......
    ......
    .....@
    ..@@.@
    .@..@@
    .@..@.
    .@..@.
    ..@@..
    ......
    ...@..

u+1ee4:
LATIN CAPITAL LETTER U WITH DOT BELOW:
    ......
    ......
    ......
    .@...@
    .@...@
    .@...@
    .@...@
    .@...@
    .@...@
    ..@@@.
    ......
    ...@..

u+1ee5:
LATIN SMALL LETTER U WITH DOT BELOW:
    ......
    ......
    ......
    ......
    ......
    .@...@
    .@...@
    .@...@
    .@...@
    ..@@@@
    ......
    ...@..

u+1ee6:
LATIN CAPITAL LETTER U WITH HOOK ABOVE:
    ..@@..
    ....@.
    ...@..
    .@...@
    .@...@
    .@...@
    .@...@
    .@...@
    .@...@
    ..@@@.
    ......
    ......

u+1ee7:
LATIN SMALL LETTER U WITH HOOK ABOVE:
    ......
    ..@@..
    ....@.
    ...@..
    ......
    .@...@
    .@...@
    .@...@
    .@...@
    ..@@@@
    ......
    ......

u+1ee8:
LATIN CAPITAL LETTER U WITH HORN AND ACUTE:
    ...@..
    ..@...
    .....@
    .@..@@
    .@..@@
    .@..@.
    .@..@.
    .@..@.
    .@..@.
    ..@@..
    ......
    ......

u+1ee9:
LATIN SMALL LETTER U WITH HORN AND ACUTE:
    ......
    ......
    ...@..
    ..@...
    .....@
    .@..@@
    .@..@@
    .@..@.
    .@..@.
    ..@@@.
    ......
    ......

u+1eea:
LATIN CAPITAL LETTER U WITH HORN AND GRAVE:
    ..@...
    ...@..
    .....@
    .@..@@
    .@..@@
    .@..@.
    .@..@.
    .@..@.
    .@..@.
    ..@@..
    ......
    ......

u+1eeb:
LATIN SMALL LETTER U WITH HORN AND GRAVE:
    ......
    ......
    ..@...
    ...@..
    .....@
    .@..@@
    .@..@@
    .@..@.
    .@..@.
    ..@@@.
    ......
    ......

u+1eec:
LATIN CAPITAL LETTER U WITH HORN AND HOOK ABOVE:
    .@@...
    ...@..
    ..@..@
    .@..@@
    .@..@@
    .@..@.
    .@..@.
    .@..@.
    .@..@.
    ..@@..
    ......
    ......

u+1eed:
LATIN SMALL LETTER U WITH HORN AND HOOK ABOVE:
    ......
    .@@...
    ...@..
    ..@...
    .....@
    .@..@@
    .@..@@
    .@..@.
    .@..@.
    ..@@@.
    ......
    ......

u+1eee:
LATIN CAPITAL LETTER U WITH HORN AND TILDE:
    ..@.@.
    .@.@..
    .....@
    .@..@@
    .@..@@
    .@..@.
    .@..@.
    .@..@.
    .@..@.
    ..@@..
    ......
    ......

u+1eef:
LATIN SMALL LETTER U WITH HORN AND TILDE:
    ......
    ......
    ..@.@.
    .@.@..
    .....@
    .@..@@
    .@..@@
    .@..@.
    .@..@.
    ..@@@.
    ......
    ......

u+1ef0:
LATIN CAPITAL LETTER U WITH HORN AND DOT BELOW:
    ......
    ......
    .....@
    .@..@@
    .@..@@
    .@..@.
    .@..@.
    .@..@.
    .@..@.
    ..@@..
    ......
    ...@..

u+1ef1:
LATIN SMALL LETTER U WITH HORN AND DOT BELOW:
    ......
    ......
    ......
    ......
    .....@
    .@..@@
    .@..@@
    .@..@.
    .@..@.
    ..@@@.
    ......
    ...@..

u+1ef2:
LATIN CAPITAL LETTER Y WITH GRAVE:
    ..@...
    ...@..
    ......
    .@...@
    .@...@
    ..@.@.
    ...@..
    ...@..
    ...@..
    ...@..
    ......
    ......

u+1ef3:
LATIN SMALL LETTER Y WITH GRAVE:
    ......
    ......
    ..@...
    ...@..
    ......
    .@...@
    .@...@
    .@...@
    .@...@
    ..@@@@
    .....@
    ...@@.

u+1ef4:
LATIN CAPITAL LETTER Y WITH DOT BELOW:
    ......
    ......
    ......
    .@...@
    .@...@
    ..@.@.
    ...@..
    ...@..
    ...@..
    ...@..
    ......
    ...@..

u+1ef5:
LATIN SMALL LETTER Y WITH DOT BELOW:
    ......
    ......
    ......
    ......
    ......
    .@...@
    .@...@
    .@...@
    .@...@
    ..@@@@
    ....@.
    ..@@.@

u+1ef6:
LATIN CAPITAL LETTER Y WITH HOOK ABOVE:
    ..@@..
    ....@.
    ...@..
    .@...@
    .@...@
    ..@.@.
    ...@..
    ...@..
    ...@..
    ...@..
    ......
    ......

u+1ef7:
LATIN SMALL LETTER Y WITH HOOK ABOVE:
    ......
    ..@@..
    ....@.
    ...@..
    ......
    .@...@
    .@...@
    .@...@
    .@...@
    ..@@@@
    .....@
    ..@@@.

u+1ef8:
LATIN CAPITAL LETTER Y WITH TILDE:
    ...@.@
    ..@.@.
    ......
    .@...@
    .@...@
    ..@.@.
    ...@..
    ...@..
    ...@..
    ...@..
    ......
    ......

u+1ef9:
LATIN SMALL LETTER Y WITH TILDE:
    ......
    ......
    ...@.@
    ..@.@.
    ......
    .@...@
    .@...@
    .@...@
    .@...@
    ..@@@@
    .....@
    ..@@@.

u+2000:
EN QUAD:
    ......
    ......
    ......
    ......
    ......
    ......
    ......
    ......
    ......
    ......
    ......
    ......

u+2001:
EM QUAD:
    ......
    ......
    ......
    ......
    ......
    ......
    ......
    ......
    ......
    ......
    ......
    ......

u+2002:
EN SPACE:
    ......
    ......
    ......
    ......
    ......
    ......
    ......
    ......
    ......
    ......
    ......
    ......

u+2003:
EM SPACE:
    ......
    ......
    ......
    ......
    ......
    ......
    ......
    ......
    ......
    ......
    ......
    ......

u+2004:
THREE-PER-EM SPACE:
    ......
    ......
    ......
    ......
    ......
    ......
    ......
    ......
    ......
    ......
    ......
    ......

u+2005:
FOUR-PER-EM SPACE:
    ......
    ......
    ......
    ......
    ......
    ......
    ......
    ......
    ......
    ......
    ......
    ......

u+2006:
SIX-PER-EM SPACE:
    ......
    ......
    ......
    ......
    ......
    ......
    ......
    ......
    ......
    ......
    ......
    ......

u+2007:
FIGURE SPACE:
    ......
    ......
    ......
    ......
    ......
    ......
    ......
    ......
    ......
    ......
    ......
    ......

u+2008:
PUNCTUATION SPACE:
    ......
    ......
    ......
    ......
    ......
    ......
    ......
    ......
    ......
    ......
    ......
    ......

u+2009:
THIN SPACE:
    ......
    ......
    ......
    ......
    ......
    ......
    ......
    ......
    ......
    ......
    ......
    ......

u+200a:
HAIR SPACE:
    ......
    ......
    ......
    ......
    ......
    ......
    ......
    ......
    ......
    ......
    ......
    ......

u+200b:
ZERO WIDTH SPACE:
    ......
    ......
    ......
    ......
    ......
    ......
    ......
    ......
    ......
    ......
    ......
    ......

u+200c:
ZERO WIDTH NON-JOINER:
    ......
    ......
    ......
    ......
    ......
    ......
    ......
    ......
    ......
    ......
    ......
    ......

u+200d:
ZERO WIDTH JOINER:
    ......
    ......
    ......
    ......
    ......
    ......
    ......
    ......
    ......
    ......
    ......
    ......

u+200e:
LEFT-TO-RIGHT MARK:
    ......
    ......
    ......
    ......
    ......
    ......
    ......
    ......
    ......
    ......
    ......
    ......

u+200f:
RIGHT-TO-LEFT MARK:
    ......
    ......
    ......
    ......
    ......
    ......
    ......
    ......
    ......
    ......
    ......
    ......

u+2010:
HYPHEN:
    ......
    ......
    ......
    ......
    ......
    ......
    ..@@@.
    ......
    ......
    ......
    ......
    ......

u+2011:
NON-BREAKING HYPHEN:
    ......
    ......
    ......
    ......
    ......
    ......
    ..@@@.
    ......
    ......
    ......
    ......
    ......

u+2012:
FIGURE DASH:
    ......
    ......
    ......
    ......
    ......
    ......
    .@@@@@
    ......
    ......
    ......
    ......
    ......

u+2013:
EN DASH:
    ......
    ......
    ......
    ......
    ......
    ......
    .@@@@.
    ......
    ......
    ......
    ......
    ......

u+2014:
EM DASH:
    ......
    ......
    ......
    ......
    ......
    ......
    @@@@@@
    ......
    ......
    ......
    ......
    ......

u+2015:
HORIZONTAL BAR:
    ......
    ......
    ......
    ......
    ......
    ......
    @@@@@@
    ......
    ......
    ......
    ......
    ......

u+2016:
DOUBLE VERTICAL LINE:
    ......
    ..@.@.
    ..@.@.
    ..@.@.
    ..@.@.
    ..@.@.
    ..@.@.
    ..@.@.
    ..@.@.
    ..@.@.
    ..@.@.
    ..@.@.

u+2017:
DOUBLE LOW LINE:
    ......
    ......
    ......
    ......
    ......
    ......
    ......
    ......
    ......
    .@@@@@
    ......
    .@@@@@

u+2018:
LEFT SINGLE QUOTATION MARK:
    ....@.
    ...@..
    ...@..
    ......
    ......
    ......
    ......
    ......
    ......
    ......
    ......
    ......

u+2019:
RIGHT SINGLE QUOTATION MARK:
    ...@..
    ...@..
    ..@...
    ......
    ......
    ......
    ......
    ......
    ......
    ......
    ......
    ......

u+201a:
SINGLE LOW-9 QUOTATION MARK:
    ......
    ......
    ......
    ......
    ......
    ......
    ......
    ......
    ......
    ...@..
    ...@..
    ..@...

u+201b:
SINGLE HIGH-REVERSED-9 QUOTATION MARK:
    ...@..
    ...@..
    ....@.
    ......
    ......
    ......
    ......
    ......
    ......
    ......
    ......
    ......

u+201c:
LEFT DOUBLE QUOTATION MARK:
    ...@.@
    ..@.@.
    ..@.@.
    ......
    ......
    ......
    ......
    ......
    ......
    ......
    ......
    ......

u+201d:
RIGHT DOUBLE QUOTATION MARK:
    ..@.@.
    ..@.@.
    .@.@..
    ......
    ......
    ......
    ......
    ......
    ......
    ......
    ......
    ......

u+201e:
DOUBLE LOW-9 QUOTATION MARK:
    ......
    ......
    ......
    ......
    ......
    ......
    ......
    ......
    ......
    ..@.@.
    ..@.@.
    .@.@..

u+201f:
DOUBLE HIGH-REVERSED-9 QUOTATION MARK:
    ..@.@.
    ..@.@.
    ...@.@
    ......
    ......
    ......
    ......
    ......
    ......
    ......
    ......
    ......

u+2020:
DAGGER:
    ......
    ......
    ...@..
    ...@..
    .@@@@@
    ...@..
    ...@..
    ...@..
    ...@..
    ...@..
    ......
    ......

u+2021:
DOUBLE DAGGER:
    ......
    ......
    ...@..
    ...@..
    .@@@@@
    ...@..
    ...@..
    .@@@@@
    ...@..
    ...@..
    ......
    ......

u+2022:
BULLET:
    ......
    ......
    ......
    ......
    ..@@..
    .@@@@.
    .@@@@.
    ..@@..
    ......
    ......
    ......
    ......

u+2023:
TRIANGULAR BULLET:
    ......
    ......
    ......
    ......
    ......
    ..@@..
    ..@@@.
    ..@@..
    ......
    ......
    ......
    ......

u+2024:
ONE DOT LEADER:
    ......
    ......
    ......
    ......
    ......
    ......
    ......
    ......
    ......
    ...@..
    ......
    ......

u+2025:
TWO DOT LEADER:
    ......
    ......
    ......
    ......
    ......
    ......
    ......
    ......
    ......
    ..@..@
    ......
    ......

u+2026:
HORIZONTAL ELLIPSIS:
    ......
    ......
    ......
    ......
    ......
    ......
    ......
    ......
    ......
    .@.@.@
    ......
    ......

u+2027:
HYPHENATION POINT:
    ......
    ......
    ......
    ......
    ......
    ......
    ...@..
    ......
    ......
    ......
    ......
    ......

u+2028:
LINE SEPARATOR:
    ......
    ......
    ......
    ......
    ......
    ......
    ......
    ......
    ......
    ......
    ......
    ......

u+2029:
PARAGRAPH SEPARATOR:
    ......
    ......
    ......
    ......
    ......
    ......
    ......
    ......
    ......
    ......
    ......
    ......

u+202a:
LEFT-TO-RIGHT EMBEDDING:
    ......
    ......
    ......
    ......
    ......
    ......
    ......
    ......
    ......
    ......
    ......
    ......

u+202b:
RIGHT-TO-LEFT EMBEDDING:
    ......
    ......
    ......
    ......
    ......
    ......
    ......
    ......
    ......
    ......
    ......
    ......

u+202c:
POP DIRECTIONAL FORMATTING:
    ......
    ......
    ......
    ......
    ......
    ......
    ......
    ......
    ......
    ......
    ......
    ......

u+202d:
LEFT-TO-RIGHT OVERRIDE:
    ......
    ......
    ......
    ......
    ......
    ......
    ......
    ......
    ......
    ......
    ......
    ......

u+202e:
RIGHT-TO-LEFT OVERRIDE:
    ......
    ......
    ......
    ......
    ......
    ......
    ......
    ......
    ......
    ......
    ......
    ......

u+202f:
NARROW NO-BREAK SPACE:
    ......
    ......
    ......
    ......
    ......
    ......
    ......
    ......
    ......
    ......
    ......
    ......

u+2030:
PER MILLE SIGN:
    ......
    ......
    ......
    .@....
    @.@.@.
    .@.@..
    ..@...
    .@@.@.
    @@.@.@
    ..@.@.
    ......
    ......

u+2031:
PER TEN THOUSAND SIGN:
    ......
    ......
    ......
    @@..@.
    @@.@..
    ..@...
    .@....
    @@.@.@
    .@@@@@
    .@.@.@
    ......
    ......

u+2032:
PRIME:
    ......
    ......
    ...@..
    ..@...
    .@....
    ......
    ......
    ......
    ......
    ......
    ......
    ......

u+2033:
DOUBLE PRIME:
    ......
    ......
    ...@.@
    ..@.@.
    .@.@..
    ......
    ......
    ......
    ......
    ......
    ......
    ......

u+2034:
TRIPLE PRIME:
    ......
    ......
    .@.@.@
    @.@.@.
    .@.@..
    ......
    ......
    ......
    ......
    ......
    ......
    ......

u+2035:
REVERSED PRIME:
    ......
    ......
    ...@..
    ....@.
    .....@
    ......
    ......
    ......
    ......
    ......
    ......
    ......

u+2036:
REVERSED DOUBLE PRIME:
    ......
    ......
    .@.@..
    ..@.@.
    ...@.@
    ......
    ......
    ......
    ......
    ......
    ......
    ......

u+2037:
REVERSED TRIPLE PRIME:
    ......
    ......
    @.@.@.
    .@.@.@
    ..@.@.
    ......
    ......
    ......
    ......
    ......
    ......
    ......

u+2038:
CARET:
    ......
    ......
    ......
    ......
    ......
    ......
    ......
    ......
    ......
    ...@..
    ..@.@.
    .@...@

u+2039:
SINGLE LEFT-POINTING ANGLE QUOTATION MARK:
    ......
    ......
    ......
    ......
    ......
    ....@.
    ...@..
    ..@...
    ...@..
    ....@.
    ......
    ......

u+203a:
SINGLE RIGHT-POINTING ANGLE QUOTATION MARK:
    ......
    ......
    ......
    ......
    ......
    ..@...
    ...@..
    ....@.
    ...@..
    ..@...
    ......
    ......

u+203c:
DOUBLE EXCLAMATION MARK:
    ......
    ......
    ......
    ..@.@.
    ..@.@.
    ..@.@.
    ..@.@.
    ..@.@.
    ......
    ..@.@.
    ......
    ......

u+203d:
INTERROBANG:
    ......
    ......
    ......
    .@@@@.
    ...@.@
    ...@.@
    ...@@.
    ...@..
    ......
    ...@..
    ......
    ......

u+203e:
OVERLINE:
    ......
    .@@@@@
    ......
    ......
    ......
    ......
    ......
    ......
    ......
    ......
    ......
    ......

u+203f:
UNDERTIE:
    ......
    ......
    ......
    ......
    ......
    ......
    ......
    ......
    ......
    ......
    .@...@
    ..@@@.

u+2040:
CHARACTER TIE:
    ..@@@.
    .@...@
    ......
    ......
    ......
    ......
    ......
    ......
    ......
    ......
    ......
    ......

u+2041:
CARET INSERTION POINT:
    ......
    ......
    ......
    ......
    ......
    ......
    ......
    .....@
    ....@.
    ...@..
    ..@.@.
    .@...@

u+2042:
ASTERISM:
    ......
    ......
    ......
    ..@.@.
    ...@..
    ..@.@.
    ......
    .@.@.@
    ..@.@.
    .@.@.@
    ......
    ......

u+2043:
HYPHEN BULLET:
    ......
    ......
    ......
    ......
    ......
    ......
    ..@@@.
    ..@@@.
    ......
    ......
    ......
    ......

u+2044:
FRACTION SLASH:
    ......
    ......
    ......
    ......
    ......
    .....@
    ....@.
    ...@..
    ..@...
    .@....
    ......
    ......

u+2045:
LEFT SQUARE BRACKET WITH QUILL:
    ......
    ...@@.
    ...@..
    ...@..
    ...@..
    ...@..
    ...@@.
    ...@..
    ...@..
    ...@..
    ...@..
    ...@@.

u+2046:
RIGHT SQUARE BRACKET WITH QUILL:
    ......
    ..@@..
    ...@..
    ...@..
    ...@..
    ...@..
    ..@@..
    ...@..
    ...@..
    ...@..
    ...@..
    ..@@..

u+2047:
DOUBLE QUESTION MARK:
    ......
    ......
    ......
    .@@@@.
    ...@.@
    ...@.@
    ..@.@.
    ..@.@.
    ......
    ..@.@.
    ......
    ......

u+2048:
QUESTION EXCLAMATION MARK:
    ......
    ......
    ......
    .@@@.@
    ....@@
    ....@@
    ...@.@
    ..@..@
    ......
    ..@..@
    ......
    ......

u+2049:
EXCLAMATION QUESTION MARK:
    ......
    ......
    ......
    .@@@@.
    .@...@
    .@...@
    .@..@.
    .@.@..
    ......
    .@.@..
    ......
    ......

u+204a:
TIRONIAN SIGN ET:
    ......
    ......
    ......
    ......
    ......
    ......
    ......
    .@@@@@
    .....@
    ....@.
    ...@..
    ..@...

u+204b:
REVERSED PILCROW SIGN:
    ......
    ......
    .@@@@.
    .@.@@@
    .@.@@@
    .@.@@@
    .@.@@.
    .@.@..
    .@.@..
    .@.@..
    ......
    ......

u+204c:
BLACK LEFTWARDS BULLET:
    ......
    ......
    ......
    ......
    ......
    ..@@.@
    .@@@.@
    ..@@.@
    ......
    ......
    ......
    ......

u+204d:
BLACK RIGHTWARDS BULLET:
    ......
    ......
    ......
    ......
    ......
    .@.@@.
    .@.@@@
    .@.@@.
    ......
    ......
    ......
    ......

u+204e:
LOW ASTERISK:
    ......
    ......
    ......
    ......
    ......
    ......
    ......
    ..@.@.
    ...@..
    .@@@@@
    ...@..
    ..@.@.

u+204f:
REVERSED SEMICOLON:
    ......
    ......
    ......
    ......
    ......
    ...@..
    ......
    ......
    ......
    ...@..
    ....@.
    ......

u+2050:
CLOSE UP:
    ..@@@.
    .@...@
    ......
    ......
    ......
    ......
    ......
    ......
    ......
    ......
    .@...@
    ..@@@.

u+2051:
TWO ASTERISKS ALIGNED VERTICALLY:
    ......
    ..@.@.
    ...@..
    .@@@@@
    ...@..
    ..@.@.
    ......
    ..@.@.
    ...@..
    .@@@@@
    ...@..
    ..@.@.

u+2052:
COMMERCIAL MINUS SIGN:
    ......
    ......
    ......
    .@@...
    .@@..@
    ....@.
    ...@..
    ..@...
    .@..@@
    ....@@
    ......
    ......

u+2053:
SWUNG DASH:
    ......
    ......
    ......
    ......
    ......
    .@@..@
    @..@@.
    ......
    ......
    ......
    ......
    ......

u+2054:
INVERTED UNDERTIE:
    ......
    ......
    ......
    ......
    ......
    ......
    ......
    ......
    ......
    ......
    ..@@@.
    .@...@

u+2055:
FLOWER PUNCTUATION MARK:
    ......
    ......
    ......
    ...@..
    .@.@.@
    ..@@@.
    .@@@@@
    ..@@@.
    .@.@.@
    ...@..
    ......
    ......

u+2056:
THREE DOT PUNCTUATION:
    ......
    ......
    ......
    ......
    ......
    .....@
    ......
    .@....
    ......
    .....@
    ......
    ......

u+2057:
QUADRUPLE PRIME:
    ......
    ......
    ..@@@@
    .@@@@.
    @@@@..
    ......
    ......
    ......
    ......
    ......
    ......
    ......

u+2058:
FOUR DOT PUNCTUATION:
    ......
    ......
    ......
    ......
    ......
    ...@..
    ......
    .@...@
    ......
    ...@..
    ......
    ......

u+2059:
FIVE DOT PUNCTUATION:
    ......
    ......
    ......
    ......
    ......
    .@...@
    ......
    ...@..
    ......
    .@...@
    ......
    ......

u+205a:
TWO DOT PUNCTUATION:
    ......
    ......
    ......
    ......
    ......
    ...@..
    ......
    ......
    ......
    ...@..
    ......
    ......

u+205b:
FOUR DOT MARK:
    ......
    ......
    ......
    ......
    ...@..
    ......
    ......
    .@...@
    ......
    ......
    ...@..
    ......

u+205c:
DOTTED CROSS:
    ......
    ......
    ......
    ......
    ......
    .@.@.@
    ...@..
    .@@@@@
    ...@..
    .@.@.@
    ......
    ......

u+205d:
TRICOLON:
    ......
    ......
    ......
    ......
    ......
    ...@..
    ......
    ...@..
    ......
    ...@..
    ......
    ......

u+205e:
VERTICAL FOUR DOTS:
    ......
    ......
    ......
    ...@..
    ......
    ...@..
    ......
    ...@..
    ......
    ...@..
    ......
    ......

u+205f:
MEDIUM MATHEMATICAL SPACE:
    ......
    ......
    ......
    ......
    ......
    ......
    ......
    ......
    ......
    ......
    ......
    ......

u+2060:
WORD JOINER:
    ......
    ......
    ......
    ......
    ......
    ......
    ......
    ......
    ......
    ......
    ......
    ......

u+2061:
FUNCTION APPLICATION:
    ......
    ......
    .@....
    @.....
    @..@@.
    @@@..@
    @.@..@
    @.@..@
    @.@..@
    @.@..@
    ...@@.
    ......

u+2062:
INVISIBLE TIMES:
    ......
    ......
    ......
    ......
    .@...@
    ..@.@.
    ...@..
    ..@.@.
    .@...@
    ......
    ......
    ......

u+2063:
INVISIBLE SEPARATOR:
    ......
    ......
    ......
    ......
    ......
    ......
    ......
    ......
    ......
    ......
    ...@..
    ..@...

u+2064:
INVISIBLE PLUS:
    ......
    ......
    ......
    ......
    ...@..
    ...@..
    .@@@@@
    ...@..
    ...@..
    ......
    ......
    ......

u+2066:
char8294:
    ......
    ......
    ......
    ......
    ......
    ......
    ......
    ......
    ......
    ......
    ......
    ......

u+2067:
char8295:
    ......
    ......
    ......
    ......
    ......
    ......
    ......
    ......
    ......
    ......
    ......
    ......

u+2068:
char8296:
    ......
    ......
    ......
    ......
    ......
    ......
    ......
    ......
    ......
    ......
    ......
    ......

u+2069:
char8297:
    ......
    ......
    ......
    ......
    ......
    ......
    ......
    ......
    ......
    ......
    ......
    ......

u+206a:
INHIBIT SYMMETRIC SWAPPING:
    ......
    ......
    ......
    ......
    ......
    ......
    ......
    ......
    ......
    ......
    ......
    ......

u+206b:
ACTIVATE SYMMETRIC SWAPPING:
    ......
    ......
    ......
    ......
    ......
    ......
    ......
    ......
    ......
    ......
    ......
    ......

u+206c:
INHIBIT ARABIC FORM SHAPING:
    ......
    ......
    ......
    ......
    ......
    ......
    ......
    ......
    ......
    ......
    ......
    ......

u+206d:
ACTIVATE ARABIC FORM SHAPING:
    ......
    ......
    ......
    ......
    ......
    ......
    ......
    ......
    ......
    ......
    ......
    ......

u+206e:
NATIONAL DIGIT SHAPES:
    ......
    ......
    ......
    ......
    ......
    ......
    ......
    ......
    ......
    ......
    ......
    ......

u+206f:
NOMINAL DIGIT SHAPES:
    ......
    ......
    ......
    ......
    ......
    ......
    ......
    ......
    ......
    ......
    ......
    ......

u+207f:
SUPERSCRIPT LATIN SMALL LETTER N:
    ......
    ......
    ......
    .@@@..
    .@..@.
    .@..@.
    .@..@.
    ......
    ......
    ......
    ......
    ......

u+20a1:
COLON SIGN:
    ......
    ......
    ...@.@
    ..@@@@
    .@.@.@
    .@.@.@
    .@.@@.
    .@@.@.
    .@@.@.
    ..@@@@
    ..@.@.
    ......

u+20a5:
MILL SIGN:
    ......
    ......
    ......
    ....@.
    ....@.
    .@@.@.
    .@.@.@
    .@.@.@
    .@.@.@
    .@.@.@
    ..@...
    ..@...

u+20a6:
NAIRA SIGN:
    ......
    ......
    ......
    .@...@
    .@@..@
    .@@@@@
    .@.@.@
    .@@@@@
    .@..@@
    .@...@
    ......
    ......

u+20a7:
PESETA SIGN:
    ......
    ......
    ....@.
    .@@.@.
    .@.@@.
    .@.@@@
    .@.@@.
    .@@.@.
    .@..@.
    .@...@
    ......
    ......

u+20a8:
RUPEE SIGN:
    ......
    ......
    ......
    .@@@@@
    ....@.
    .@@@@@
    ...@..
    ..@...
    ...@..
    ....@.
    ......
    ......

u+20a9:
WON SIGN:
    ......
    ......
    ......
    .@...@
    .@...@
    .@@@@@
    .@...@
    .@.@.@
    .@@.@@
    .@...@
    ......
    ......

u+20aa:
NEW SHEQEL SIGN:
    ......
    ......
    ......
    ......
    ......
    .@@..@
    .@.@.@
    .@.@.@
    .@.@.@
    .@..@@
    ......
    ......

u+20ab:
DONG SIGN:
    ......
    ......
    .....@
    ..@@@@
    .....@
    ..@@@@
    .@...@
    .@...@
    .@...@
    ..@@@@
    ......
    ..@@@@

u+20ac:
EURO SIGN:
    ......
    ......
    ......
    ...@@@
    ..@...
    .@@@@.
    ..@...
    .@@@@.
    ..@...
    ...@@@
    ......
    ......

u+20ad:
KIP SIGN:
    ......
    ......
    ......
    .@...@
    .@..@.
    .@.@..
    .@@@@.
    .@.@..
    .@..@.
    .@...@
    ......
    ......

u+20ae:
TUGRIK SIGN:
    ......
    ......
    ......
    .@@@@@
    ...@..
    ...@@.
    ..@@..
    ...@@.
    ..@@..
    ...@..
    ......
    ......

u+20af:
DRACHMA SIGN:
    ......
    ......
    ......
    .@@...
    .@.@..
    .@.@@.
    .@.@.@
    .@.@.@
    .@.@.@
    .@@@@.
    ...@..
    ...@..

u+20b1:
PESO SIGN:
    ......
    ......
    ......
    .@@@@.
    .@...@
    .@@@@@
    .@...@
    .@@@@.
    .@....
    .@....
    ......
    ......

u+20b2:
GUARANI SIGN:
    ......
    ......
    ...@..
    ..@@@@
    .@.@..
    .@.@..
    .@.@@@
    .@.@.@
    .@.@.@
    ..@@@@
    ...@..
    ......

u+20b4:
HRYVNIA SIGN:
    ......
    ......
    ......
    .@@@@.
    .....@
    .@@@@@
    ..@@@.
    .@@@@@
    .@....
    ..@@@@
    ......
    ......

u+20b5:
CEDI SIGN:
    ......
    ......
    ...@..
    ..@@@@
    .@.@..
    .@.@..
    .@.@..
    .@.@..
    .@.@..
    ..@@@@
    ...@..
    ......

u+20b8:
TENGE SIGN:
    ......
    ......
    ......
    .@@@@@
    ......
    .@@@@@
    ...@..
    ...@..
    ...@..
    ...@..
    ......
    ......

u+20b9:
INDIAN RUPEE SIGN:
    ......
    ......
    ......
    .@@@@@
    ....@.
    .@@@@@
    ...@..
    ..@...
    ...@..
    ....@.
    ......
    ......

u+20ba:
TURKISH LIRA SIGN:
    ......
    ......
    ......
    ..@...
    ..@@@.
    .@@...
    ..@@@.
    .@@...
    ..@..@
    ..@@@.
    ......
    ......

u+20bb:
MANAT SIGN:
    ......
    ......
    ......
    ...@..
    ..@@@.
    .@.@.@
    .@.@.@
    .@.@.@
    .@.@.@
    .@...@
    ......
    ......

u+20bc:
RUBLE SIGN:
    ......
    ......
    ......
    .@@@@.
    .@...@
    .@...@
    .@@@@.
    .@....
    .@@@@.
    .@....
    ......
    ......

u+2116:
NUMERO SIGN:
    ......
    ......
    ......
    .@.@..
    .@.@..
    .@@@@.
    .@@@.@
    .@@@@.
    .@.@..
    .@.@@@
    ......
    ......

u+2122:
TRADE MARK SIGN:
    @@@@.@
    .@.@@@
    .@.@.@
    .@.@.@
    ......
    ......
    ......
    ......
    ......
    ......
    ......
    ......

u+212b:
ANGSTROM SIGN:
    ...@..
    ..@.@.
    ...@..
    ..@@@.
    .@...@
    .@...@
    .@...@
    .@@@@@
    .@...@
    .@...@
    ......
    ......

u+2190:
LEFTWARDS ARROW:
    ......
    ......
    ......
    ......
    ..@...
    .@....
    @@@@@@
    .@....
    ..@...
    ......
    ......
    ......

u+2191:
UPWARDS ARROW:
    ......
    ......
    ...@..
    ..@@@.
    .@.@.@
    ...@..
    ...@..
    ...@..
    ...@..
    ...@..
    ......
    ......

u+2192:
RIGHTWARDS ARROW:
    ......
    ......
    ......
    ......
    ...@..
    ....@.
    @@@@@@
    ....@.
    ...@..
    ......
    ......
    ......

u+2193:
DOWNWARDS ARROW:
    ......
    ......
    ...@..
    ...@..
    ...@..
    ...@..
    ...@..
    .@.@.@
    ..@@@.
    ...@..
    ......
    ......

u+2194:
LEFT RIGHT ARROW:
    ......
    ......
    ......
    ......
    ..@...
    .@..@.
    @@@@@@
    .@..@.
    ...@..
    ......
    ......
    ......

u+2195:
UP DOWN ARROW:
    ......
    ......
    ...@..
    ..@@@.
    .@.@.@
    ...@..
    ...@..
    .@.@.@
    ..@@@.
    ...@..
    ......
    ......

u+2196:
NORTH WEST ARROW:
    ......
    ......
    ......
    ......
    @@@@..
    @@....
    @.@...
    @..@..
    ....@.
    .....@
    ......
    ......

u+2198:
SOUTH EAST ARROW:
    ......
    ......
    ......
    ......
    @.....
    .@....
    ..@..@
    ...@.@
    ....@@
    ..@@@@
    ......
    ......

u+21a4:
LEFTWARDS ARROW FROM BAR:
    ......
    ......
    ......
    ......
    ..@..@
    .@...@
    @@@@@@
    .@...@
    ..@..@
    ......
    ......
    ......

u+21a6:
RIGHTWARDS ARROW FROM BAR:
    ......
    ......
    ......
    ......
    @..@..
    @...@.
    @@@@@@
    @...@.
    @..@..
    ......
    ......
    ......

u+21a8:
UP DOWN ARROW WITH BASE:
    ......
    ......
    ...@..
    ..@@@.
    .@.@.@
    ...@..
    ...@..
    .@.@.@
    ..@@@.
    ...@..
    .@@@@@
    ......

u+21a9:
LEFTWARDS ARROW WITH HOOK:
    ......
    ......
    ......
    ......
    ......
    ..@.@.
    .@...@
    @@@@@.
    .@....
    ..@...
    ......
    ......

u+21b5:
DOWNWARDS ARROW WITH CORNER LEFTWARDS:
    ......
    ......
    ......
    .....@
    .....@
    ..@..@
    .@...@
    @@@@@.
    .@....
    ..@...
    ......
    ......

u+21b8:
NORTH WEST ARROW TO LONG BAR:
    ......
    ......
    ......
    @@@@@@
    ......
    @@@@..
    @@....
    @.@...
    @..@..
    ....@.
    .....@
    ......

u+21b9:
LEFTWARDS ARROW TO BAR OVER RIGHTWARDS ARROW TO BAR:
    ......
    ......
    ......
    @..@..
    @.@...
    @@@@@@
    @.@..@
    @..@.@
    @@@@@@
    ...@.@
    ..@..@
    ......

u+21c6:
LEFTWARDS ARROW OVER RIGHTWARDS ARROW:
    ......
    ......
    ......
    ..@...
    .@....
    @@@@@@
    .@.@..
    ..@.@.
    @@@@@@
    ....@.
    ...@..
    ......

u+21de:
UPWARDS ARROW WITH DOUBLE STROKE:
    ......
    ......
    ...@..
    ..@@@.
    .@.@.@
    ...@..
    ..@@@.
    ...@..
    ..@@@.
    ...@..
    ......
    ......

u+21df:
DOWNWARDS ARROW WITH DOUBLE STROKE:
    ......
    ......
    ...@..
    ..@@@.
    ...@..
    ..@@@.
    ...@..
    .@.@.@
    ..@@@.
    ...@..
    ......
    ......

u+21e4:
LEFTWARDS ARROW TO BAR:
    ......
    ......
    ......
    ......
    @..@..
    @.@...
    @@@@@@
    @.@...
    @..@..
    ......
    ......
    ......

u+21e5:
RIGHTWARDS ARROW TO BAR:
    ......
    ......
    ......
    ......
    ..@..@
    ...@.@
    @@@@@@
    ...@.@
    ..@..@
    ......
    ......
    ......

u+21e7:
UPWARDS WHITE ARROW:
    ......
    ......
    ......
    ...@..
    ..@.@.
    .@...@
    .@@.@@
    ..@.@.
    ..@.@.
    ..@@@.
    ......
    ......

u+21ea:
UPWARDS WHITE ARROW FROM BAR:
    ......
    ......
    ......
    ...@..
    ..@.@.
    .@...@
    .@@.@@
    ..@.@.
    ..@@@.
    ..@.@.
    ..@@@.
    ......

u+21f1:
NORTH WEST ARROW TO CORNER:
    ......
    ......
    ......
    ......
    @@@@@.
    @.....
    @.@@@.
    @.@@..
    @.@.@.
    .....@
    ......
    ......

u+21f2:
SOUTH EAST ARROW TO CORNER:
    ......
    ......
    ......
    ......
    @.....
    .@.@.@
    ..@@.@
    .@@@.@
    .....@
    .@@@@@
    ......
    ......

u+2203:
THERE EXISTS:
    ......
    ......
    ......
    .@@@@@
    .....@
    .....@
    ...@@@
    .....@
    .....@
    .@@@@@
    ......
    ......

u+2219:
BULLET OPERATOR:
    ......
    ......
    ......
    ......
    ......
    ...@..
    ..@@@.
    ...@..
    ......
    ......
    ......
    ......

u+221a:
SQUARE ROOT:
    ......
    ......
    ......
    .....@
    .....@
    ....@.
    ....@.
    @..@..
    .@.@..
    ..@...
    ......
    ......

u+221e:
INFINITY:
    ......
    ......
    ......
    ......
    ..@.@.
    .@.@.@
    .@.@.@
    .@.@.@
    ..@.@.
    ......
    ......
    ......

u+221f:
RIGHT ANGLE:
    ......
    ......
    ......
    ......
    ......
    .@....
    .@....
    .@....
    .@....
    .@@@@@
    ......
    ......

u+2229:
INTERSECTION:
    ......
    ......
    ......
    ......
    ..@@@.
    .@...@
    .@...@
    .@...@
    .@...@
    .@...@
    ......
    ......

u+2248:
ALMOST EQUAL TO:
    ......
    ......
    ......
    ......
    ......
    ..@@.@
    .@..@.
    ..@@.@
    .@..@.
    ......
    ......
    ......

u+2260:
NOT EQUAL TO:
    ......
    ......
    ......
    ......
    ....@.
    .@@@@@
    ...@..
    .@@@@@
    ..@...
    ......
    ......
    ......

u+2261:
IDENTICAL TO:
    ......
    ......
    ......
    ......
    .@@@@@
    ......
    .@@@@@
    ......
    .@@@@@
    ......
    ......
    ......

u+2264:
LESS-THAN OR EQUAL TO:
    ......
    ......
    ......
    .....@
    ...@@.
    .@@...
    ...@@.
    .....@
    ......
    .@@@@@
    ......
    ......

u+2265:
GREATER-THAN OR EQUAL TO:
    ......
    ......
    ......
    .@....
    ..@@..
    ....@@
    ..@@..
    .@....
    ......
    .@@@@@
    ......
    ......

u+2296:
CIRCLED MINUS:
    ......
    ......
    ......
    ..@@@.
    .@...@
    .@...@
    .@@@@@
    .@...@
    .@...@
    ..@@@.
    ......
    ......

u+2297:
CIRCLED TIMES:
    ......
    ......
    ......
    ..@@@.
    .@...@
    .@@.@@
    .@.@.@
    .@@.@@
    .@...@
    ..@@@.
    ......
    ......

u+229d:
CIRCLED DASH:
    ......
    ......
    ......
    ..@@@.
    .@...@
    .@...@
    .@@@@@
    .@...@
    .@...@
    ..@@@.
    ......
    ......

u+2302:
HOUSE:
    ......
    ......
    ......
    ...@..
    ..@.@.
    .@...@
    .@...@
    .@...@
    .@...@
    .@@@@@
    ......
    ......

u+2303:
UP ARROWHEAD:
    ......
    ......
    ......
    ...@..
    ..@.@.
    .@...@
    ......
    ......
    ......
    ......
    ......
    ......

u+2305:
PROJECTIVE:
    ......
    ......
    ......
    .@@@@@
    ......
    ...@..
    ..@.@.
    .@...@
    ......
    ......
    ......
    ......

u+2310:
REVERSED NOT SIGN:
    ......
    ......
    ......
    ......
    ......
    ......
    .@@@@@
    .@....
    ......
    ......
    ......
    ......

u+2318:
PLACE OF INTEREST SIGN:
    ......
    ......
    ......
    ......
    @@..@@
    @@@@@@
    .@..@.
    .@..@.
    @@@@@@
    @@..@@
    ......
    ......

u+2320:
TOP HALF INTEGRAL:
    ......
    ....@@
    ...@..
    ...@..
    ...@..
    ...@..
    ...@..
    ...@..
    ...@..
    ...@..
    ...@..
    ...@..

u+2321:
BOTTOM HALF INTEGRAL:
    ...@..
    ...@..
    ...@..
    ...@..
    ...@..
    ...@..
    ...@..
    ...@..
    ...@..
    ...@..
    .@@...
    ......

u+2324:
UP ARROWHEAD BETWEEN TWO HORIZONTAL BARS:
    ......
    ......
    ......
    .@@.@@
    ...@..
    ..@.@.
    .@...@
    ......
    ......
    ......
    ......
    ......

u+2325:
OPTION KEY:
    ......
    ......
    ......
    ......
    ......
    @@..@@
    ..@...
    ...@..
    ....@@
    ......
    ......
    ......

u+2326:
ERASE TO THE RIGHT:
    ......
    ......
    ......
    ......
    ......
    @@@@..
    @.@.@.
    @@.@@@
    @.@.@.
    @@@@..
    ......
    ......

u+2327:
X IN A RECTANGLE BOX:
    ......
    ......
    ......
    ......
    ......
    .@@@@@
    .@.@.@
    .@@.@@
    .@.@.@
    .@@@@@
    ......
    ......

u+2328:
KEYBOARD:
    ......
    ......
    ......
    ......
    ......
    .@.@.@
    ......
    .@.@.@
    ......
    ..@@@.
    ......
    ......

u+232b:
ERASE TO THE LEFT:
    ......
    ......
    ......
    ......
    ......
    ..@@@@
    .@.@.@
    @@@.@@
    .@.@.@
    ..@@@@
    ......
    ......

u+233d:
APL FUNCTIONAL SYMBOL CIRCLE STILE:
    ......
    ......
    ......
    ...@..
    ...@..
    ..@@@.
    .@.@.@
    .@.@.@
    .@.@.@
    ..@@@.
    ...@..
    ...@..

u+2380:
INSERTION SYMBOL:
    ......
    ......
    ..@@..
    ....@.
    ..@@@.
    .@..@.
    ..@@@.
    ......
    .@...@
    ..@.@.
    ...@..
    ......

u+2384:
COMPOSITION SYMBOL:
    ......
    ......
    ......
    ......
    ......
    @@@@@.
    @@.@.@
    @@.@.@
    @@.@.@
    @@@@@.
    ......
    ......

u+2386:
ENTER SYMBOL:
    ......
    ......
    ......
    ......
    ......
    ..@..@
    .@...@
    @@@@@@
    .@....
    ..@...
    ......
    ......

u+2387:
ALTERNATIVE KEY SYMBOL:
    ......
    ......
    ......
    ......
    ......
    ....@@
    ...@..
    ..@...
    @@..@@
    ......
    ......
    ......

u+2388:
HELM SYMBOL:
    ......
    ......
    ......
    ...@..
    .@.@.@
    ..@@@.
    .@.@.@
    .@.@.@
    ..@@@.
    .@.@.@
    ...@..
    ......

u+238b:
BROKEN CIRCLE WITH NORTHWEST ARROW:
    ......
    ......
    ......
    ......
    @@@...
    @@..@.
    @.@..@
    ...@.@
    .@...@
    ..@@@.
    ......
    ......

u+23ba:
HORIZONTAL SCAN LINE-1:
    @@@@@@
    ......
    ......
    ......
    ......
    ......
    ......
    ......
    ......
    ......
    ......
    ......

u+23bb:
HORIZONTAL SCAN LINE-3:
    ......
    ......
    ......
    @@@@@@
    ......
    ......
    ......
    ......
    ......
    ......
    ......
    ......

u+23bc:
HORIZONTAL SCAN LINE-7:
    ......
    ......
    ......
    ......
    ......
    ......
    ......
    ......
    @@@@@@
    ......
    ......
    ......

u+23bd:
HORIZONTAL SCAN LINE-9:
    ......
    ......
    ......
    ......
    ......
    ......
    ......
    ......
    ......
    ......
    ......
    @@@@@@

u+23ce:
RETURN SYMBOL:
    ......
    ......
    ......
    ...@@@
    ...@.@
    ...@.@
    ..@@.@
    .@.@.@
    @....@
    .@.@@.
    ..@...
    ......

u+23cf:
EJECT SYMBOL:
    ......
    ......
    ......
    ......
    ......
    ...@..
    ..@@@.
    .@@@@@
    ......
    .@@@@@
    ......
    ......

u+2400:
SYMBOL FOR NULL:
    @..@..
    @@.@..
    @.@@..
    @..@..
    .@..@.
    .@..@.
    .@..@.
    ..@@..
    ..@...
    ..@...
    ..@...
    ..@@@@

u+2401:
SYMBOL FOR START OF HEADING:
    .@@...
    @.....
    .@....
    ..@...
    @@@@..
    .@..@.
    .@..@.
    ..@@..
    ..@..@
    ..@..@
    ..@@@@
    ..@..@

u+2402:
SYMBOL FOR START OF TEXT:
    .@@...
    @.....
    .@....
    ..@...
    @@@@@.
    ...@..
    ...@..
    ...@..
    ..@..@
    ..@..@
    ..@@@@
    ..@..@

u+2403:
SYMBOL FOR END OF TEXT:
    @@@...
    @.....
    @@....
    @.....
    @@@@@.
    ...@..
    ...@..
    ...@..
    ..@..@
    ...@@.
    ...@@.
    ..@..@

u+2404:
SYMBOL FOR END OF TRANSMISSION:
    @@@...
    @.....
    @@....
    @.....
    @@@@..
    .@..@.
    .@..@.
    ..@@..
    ...@@@
    ....@.
    ....@.
    ....@.

u+2405:
SYMBOL FOR ENQUIRY:
    @@@...
    @.....
    @@....
    @.....
    @@@.@.
    .@@.@.
    .@.@@.
    .@..@.
    ...@@.
    ..@..@
    ..@.@@
    ...@@@

u+2406:
SYMBOL FOR ACKNOWLEDGE:
    .@@...
    @..@..
    @@@@..
    @..@..
    ..@@@.
    .@....
    .@....
    ..@@@.
    ..@..@
    ..@.@.
    ..@@@.
    ..@..@

u+2407:
SYMBOL FOR BELL:
    @@....
    @.@...
    @@....
    @.@...
    @@@@..
    .@....
    .@@...
    .@....
    .@@@..
    ..@...
    ..@...
    ..@@@@

u+2408:
SYMBOL FOR BACKSPACE:
    ......
    @@....
    @.@...
    @@....
    @.@...
    @@....
    ....@@
    ...@..
    ....@.
    .....@
    ...@@.
    ......

u+2409:
SYMBOL FOR HORIZONTAL TABULATION:
    ......
    @.@...
    @.@...
    @@@...
    @.@...
    @.@...
    ...@@@
    ....@.
    ....@.
    ....@.
    ....@.
    ......

u+240a:
SYMBOL FOR LINE FEED:
    ......
    @.....
    @.....
    @.....
    @.....
    @@@...
    ...@@@
    ...@..
    ...@@.
    ...@..
    ...@..
    ......

u+240b:
SYMBOL FOR VERTICAL TABULATION:
    ......
    @.@...
    @.@...
    @.@...
    .@....
    .@....
    ...@@@
    ....@.
    ....@.
    ....@.
    ....@.
    ......

u+240c:
SYMBOL FOR FORM FEED:
    ......
    @@@...
    @.....
    @@....
    @.....
    @.....
    ...@@@
    ...@..
    ...@@.
    ...@..
    ...@..
    ......

u+240d:
SYMBOL FOR CARRIAGE RETURN:
    ......
    .@@...
    @.....
    @.....
    @.....
    .@@...
    ...@@.
    ...@.@
    ...@@.
    ...@.@
    ...@.@
    ......

u+240e:
SYMBOL FOR SHIFT OUT:
    ......
    .@@...
    @.....
    .@....
    ..@...
    @@....
    ....@@
    ...@..
    ....@.
    .....@
    ...@@.
    ......

u+240f:
SYMBOL FOR SHIFT IN:
    ......
    .@@...
    @.....
    .@....
    ..@...
    @@....
    ...@@@
    ....@.
    ....@.
    ....@.
    ...@@@
    ......

u+2410:
SYMBOL FOR DATA LINK ESCAPE:
    @@@...
    @..@..
    @..@..
    @@@@..
    .@....
    .@....
    .@@@..
    ...@@@
    ...@..
    ...@@.
    ...@..
    ...@@@

u+2411:
SYMBOL FOR DEVICE CONTROL ONE:
    @@@...
    @..@..
    @..@..
    @@@...
    ..@@@.
    .@....
    .@....
    ..@@@.
    .....@
    ....@@
    .....@
    .....@

u+2412:
SYMBOL FOR DEVICE CONTROL TWO:
    @@@...
    @..@..
    @..@..
    @@@...
    ..@@@.
    .@....
    .@....
    ..@@@.
    ...@@.
    .....@
    ....@.
    ...@@@

u+2413:
SYMBOL FOR DEVICE CONTROL THREE:
    @@@...
    @..@..
    @..@..
    @@@...
    ..@@@.
    .@....
    .@....
    ..@@@.
    .....@
    ....@.
    .....@
    ...@@.

u+2414:
SYMBOL FOR DEVICE CONTROL FOUR:
    @@@...
    @..@..
    @..@..
    @@@...
    ..@@@.
    .@....
    .@....
    ..@@@@
    ....@@
    ...@.@
    ..@@@@
    .....@

u+2415:
SYMBOL FOR NEGATIVE ACKNOWLEDGE:
    @..@..
    @@.@..
    @.@@..
    @..@..
    ..@@..
    .@..@.
    .@@@@.
    .@..@.
    ..@..@
    ..@.@.
    ..@@@.
    ..@..@

u+2416:
SYMBOL FOR SYNCHRONOUS IDLE:
    .@@...
    @.....
    .@....
    ..@...
    @@@.@.
    ..@.@.
    ...@..
    ...@..
    ..@..@
    ..@@.@
    ..@.@@
    ..@..@

u+2417:
SYMBOL FOR END OF TRANSMISSION BLOCK:
    @@@...
    @.....
    @@.@@@
    @...@.
    @@@.@.
    ....@.
    ......
    ...@@.
    ...@.@
    ...@@.
    ...@.@
    ...@@.

u+2418:
SYMBOL FOR CANCEL:
    .@@@..
    @.....
    @.....
    .@@@..
    ..@@..
    .@..@.
    .@@@@.
    .@..@.
    ..@..@
    ..@@.@
    ..@.@@
    ..@..@

u+2419:
SYMBOL FOR END OF MEDIUM:
    ......
    @@@...
    @.....
    @@....
    @.....
    @@@...
    .@...@
    .@@.@@
    .@.@.@
    .@...@
    .@...@
    ......

u+241a:
SYMBOL FOR SUBSTITUTE:
    .@@...
    @.....
    .@.@.@
    ..@@.@
    @@.@.@
    ...@@@
    ......
    ...@@.
    ...@.@
    ...@@.
    ...@.@
    ...@@.

u+241b:
SYMBOL FOR ESCAPE:
    @@@...
    @.....
    @@....
    @.....
    @@@@..
    .@....
    ..@...
    ...@..
    .@@.@@
    ...@..
    ...@..
    ....@@

u+241c:
SYMBOL FOR FILE SEPARATOR:
    ......
    @@@...
    @.....
    @@....
    @.....
    @.....
    ....@@
    ...@..
    ....@.
    .....@
    ...@@.
    ......

u+241d:
SYMBOL FOR GROUP SEPARATOR:
    ......
    .@@...
    @.....
    @.@...
    @.@...
    .@@...
    ....@@
    ...@..
    ....@.
    .....@
    ...@@.
    ......

u+241e:
SYMBOL FOR RECORD SEPARATOR:
    ......
    @@....
    @.@...
    @@....
    @.@...
    @.@...
    ....@@
    ...@..
    ....@.
    .....@
    ...@@.
    ......

u+241f:
SYMBOL FOR UNIT SEPARATOR:
    ......
    @..@..
    @..@..
    @..@..
    @..@..
    .@@...
    ....@@
    ...@..
    ....@.
    .....@
    ...@@.
    ......

u+2420:
SYMBOL FOR SPACE:
    ......
    .@@...
    @.....
    .@....
    ..@...
    @@....
    ...@@.
    ...@.@
    ...@@.
    ...@..
    ...@..
    ......

u+2421:
SYMBOL FOR DELETE:
    @@....
    @.@...
    @.@...
    @@....
    .@@@..
    .@....
    .@@...
    .@....
    .@@@..
    ..@...
    ..@...
    ..@@@@

u+2422:
BLANK SYMBOL:
    ......
    ......
    .@.@..
    .@@...
    @@....
    .@@@@.
    .@...@
    .@...@
    .@...@
    .@@@@.
    ......
    ......

u+2423:
OPEN BOX:
    ......
    ......
    ......
    ......
    ......
    ......
    ......
    ......
    ......
    .@...@
    .@@@@@
    ......

u+2424:
SYMBOL FOR NEWLINE:
    ......
    @..@..
    @@.@..
    @.@@..
    @..@..
    @..@..
    ..@...
    ..@...
    ..@...
    ..@...
    ..@@@@
    ......

u+2425:
SYMBOL FOR DELETE FORM TWO:
    ......
    ......
    ......
    ......
    ......
    ..@..@
    .@..@.
    ...@..
    ..@..@
    .@..@.
    ......
    ......

u+2426:
SYMBOL FOR SUBSTITUTE FORM TWO:
    ......
    ......
    ......
    ..@@@@
    .@....
    .@....
    ..@...
    ...@..
    ......
    ...@..
    ......
    ......

u+2500:
BOX DRAWINGS LIGHT HORIZONTAL:
    ......
    ......
    ......
    ......
    ......
    @@@@@@
    ......
    ......
    ......
    ......
    ......
    ......

u+2502:
BOX DRAWINGS LIGHT VERTICAL:
    ...@..
    ...@..
    ...@..
    ...@..
    ...@..
    ...@..
    ...@..
    ...@..
    ...@..
    ...@..
    ...@..
    ...@..

u+250c:
BOX DRAWINGS LIGHT DOWN AND RIGHT:
    ......
    ......
    ......
    ......
    ......
    ....@@
    ...@..
    ...@..
    ...@..
    ...@..
    ...@..
    ...@..

u+2510:
BOX DRAWINGS LIGHT DOWN AND LEFT:
    ......
    ......
    ......
    ......
    ......
    @@@...
    ...@..
    ...@..
    ...@..
    ...@..
    ...@..
    ...@..

u+2514:
BOX DRAWINGS LIGHT UP AND RIGHT:
    ...@..
    ...@..
    ...@..
    ...@..
    ...@..
    ....@@
    ......
    ......
    ......
    ......
    ......
    ......

u+2518:
BOX DRAWINGS LIGHT UP AND LEFT:
    ...@..
    ...@..
    ...@..
    ...@..
    ...@..
    @@@...
    ......
    ......
    ......
    ......
    ......
    ......

u+251c:
BOX DRAWINGS LIGHT VERTICAL AND RIGHT:
    ...@..
    ...@..
    ...@..
    ...@..
    ...@..
    ...@@@
    ...@..
    ...@..
    ...@..
    ...@..
    ...@..
    ...@..

u+2524:
BOX DRAWINGS LIGHT VERTICAL AND LEFT:
    ...@..
    ...@..
    ...@..
    ...@..
    ...@..
    @@@@..
    ...@..
    ...@..
    ...@..
    ...@..
    ...@..
    ...@..

u+252c:
BOX DRAWINGS LIGHT DOWN AND HORIZONTAL:
    ......
    ......
    ......
    ......
    ......
    @@@@@@
    ...@..
    ...@..
    ...@..
    ...@..
    ...@..
    ...@..

u+2534:
BOX DRAWINGS LIGHT UP AND HORIZONTAL:
    ...@..
    ...@..
    ...@..
    ...@..
    ...@..
    @@@@@@
    ......
    ......
    ......
    ......
    ......
    ......

u+253c:
BOX DRAWINGS LIGHT VERTICAL AND HORIZONTAL:
    ...@..
    ...@..
    ...@..
    ...@..
    ...@..
    @@@@@@
    ...@..
    ...@..
    ...@..
    ...@..
    ...@..
    ...@..

u+2550:
BOX DRAWINGS DOUBLE HORIZONTAL:
    ......
    ......
    ......
    ......
    @@@@@@
    ......
    @@@@@@
    ......
    ......
    ......
    ......
    ......

u+2551:
BOX DRAWINGS DOUBLE VERTICAL:
    ..@.@.
    ..@.@.
    ..@.@.
    ..@.@.
    ..@.@.
    ..@.@.
    ..@.@.
    ..@.@.
    ..@.@.
    ..@.@.
    ..@.@.
    ..@.@.

u+2552:
BOX DRAWINGS DOWN SINGLE AND RIGHT DOUBLE:
    ......
    ......
    ......
    ......
    ....@@
    ......
    ....@@
    ...@..
    ...@..
    ...@..
    ...@..
    ...@..

u+2553:
BOX DRAWINGS DOWN DOUBLE AND RIGHT SINGLE:
    ......
    ......
    ......
    ......
    .....@
    ..@.@.
    ..@.@.
    ..@.@.
    ..@.@.
    ..@.@.
    ..@.@.
    ..@.@.

u+2554:
BOX DRAWINGS DOUBLE DOWN AND RIGHT:
    ......
    ......
    ......
    ......
    ....@@
    ...@..
    ..@..@
    ..@.@.
    ..@.@.
    ..@.@.
    ..@.@.
    ..@.@.

u+2555:
BOX DRAWINGS DOWN SINGLE AND LEFT DOUBLE:
    ......
    ......
    ......
    ......
    @@@...
    ......
    @@@...
    ...@..
    ...@..
    ...@..
    ...@..
    ...@..

u+2556:
BOX DRAWINGS DOWN DOUBLE AND LEFT SINGLE:
    ......
    ......
    ......
    ......
    ......
    @@....
    ..@.@.
    ..@.@.
    ..@.@.
    ..@.@.
    ..@.@.
    ..@.@.

u+2557:
BOX DRAWINGS DOUBLE DOWN AND LEFT:
    ......
    ......
    ......
    ......
    @@@...
    ...@..
    @@..@.
    ..@.@.
    ..@.@.
    ..@.@.
    ..@.@.
    ..@.@.

u+2558:
BOX DRAWINGS UP SINGLE AND RIGHT DOUBLE:
    ...@..
    ...@..
    ...@..
    ...@..
    ....@@
    ......
    ....@@
    ......
    ......
    ......
    ......
    ......

u+2559:
BOX DRAWINGS UP DOUBLE AND RIGHT SINGLE:
    ..@.@.
    ..@.@.
    ..@.@.
    ..@.@.
    ..@.@.
    .....@
    ......
    ......
    ......
    ......
    ......
    ......

u+255a:
BOX DRAWINGS DOUBLE UP AND RIGHT:
    ..@.@.
    ..@.@.
    ..@.@.
    ..@.@.
    ..@..@
    ...@..
    ....@@
    ......
    ......
    ......
    ......
    ......

u+255b:
BOX DRAWINGS UP SINGLE AND LEFT DOUBLE:
    ...@..
    ...@..
    ...@..
    ...@..
    @@@...
    ......
    @@@...
    ......
    ......
    ......
    ......
    ......

u+255c:
BOX DRAWINGS UP DOUBLE AND LEFT SINGLE:
    ..@.@.
    ..@.@.
    ..@.@.
    ..@.@.
    ..@.@.
    @@....
    ......
    ......
    ......
    ......
    ......
    ......

u+255d:
BOX DRAWINGS DOUBLE UP AND LEFT:
    ..@.@.
    ..@.@.
    ..@.@.
    ..@.@.
    @@..@.
    ...@..
    @@@...
    ......
    ......
    ......
    ......
    ......

u+255e:
BOX DRAWINGS VERTICAL SINGLE AND RIGHT DOUBLE:
    ...@..
    ...@..
    ...@..
    ...@..
    ...@@@
    ...@..
    ...@@@
    ...@..
    ...@..
    ...@..
    ...@..
    ...@..

u+255f:
BOX DRAWINGS VERTICAL DOUBLE AND RIGHT SINGLE:
    ..@.@.
    ..@.@.
    ..@.@.
    ..@.@.
    ..@.@.
    ..@.@@
    ..@.@.
    ..@.@.
    ..@.@.
    ..@.@.
    ..@.@.
    ..@.@.

u+2560:
BOX DRAWINGS DOUBLE VERTICAL AND RIGHT:
    ..@.@.
    ..@.@.
    ..@.@.
    ..@.@.
    ..@..@
    ..@...
    ..@..@
    ..@.@.
    ..@.@.
    ..@.@.
    ..@.@.
    ..@.@.

